<?xml version="1.0" standalone="no"?><!DOCTYPE svg PUBLIC "-//W3C//DTD SVG 1.1//EN" "http://www.w3.org/Graphics/SVG/1.1/DTD/svg11.dtd"><svg t="1575362176752" class="icon" viewBox="0 0 1044 1024" version="1.1" xmlns="http://www.w3.org/2000/svg" p-id="2472" xmlns:xlink="http://www.w3.org/1999/xlink" width="203.90625" height="200"><defs><style type="text/css"></style></defs><path d="M452.83 602.595a31.378 31.378 0 0 1-22.216-53.53L902.098 77.58a31.378 31.378 0 0 1 44.369 44.368L474.983 593.433a31.252 31.252 0 0 1-22.153 9.162z" p-id="2473"></path><path d="M659.422 1024a31.378 31.378 0 0 1-28.303-17.823L438.96 604.29 17.367 392.614a31.378 31.378 0 0 1 4.142-57.798l941.337-313.34a31.315 31.315 0 1 1 39.724 39.662l-313.34 941.337a31.378 31.378 0 0 1-27.8 21.4c-0.753 0.125-1.38 0.125-2.008 0.125zM113.07 370.461l363.607 182.557c6.213 3.138 11.233 8.22 14.245 14.496L654.15 908.97l269.034-808.107-810.114 269.6z" p-id="2474"></path><path d="M354.052 862.592a31.378 31.378 0 0 1-30.75-37.528l49.389-246.756a31.378 31.378 0 1 1 61.5 12.3l-34.515 172.39 84.97-56.605a31.378 31.378 0 0 1 34.768 52.213l-148.041 98.652a30.939 30.939 0 0 1-17.32 5.334z" p-id="2475"></path></svg>