<?xml version="1.0" standalone="no"?><!DOCTYPE svg PUBLIC "-//W3C//DTD SVG 1.1//EN" "http://www.w3.org/Graphics/SVG/1.1/DTD/svg11.dtd"><svg t="1575362169704" class="icon" viewBox="0 0 1024 1024" version="1.1" xmlns="http://www.w3.org/2000/svg" p-id="2348" xmlns:xlink="http://www.w3.org/1999/xlink" width="200" height="200"><defs><style type="text/css"></style></defs><path d="M511.99936 1024c-282.303647 0-511.99936-229.695713-511.99936-511.99936s229.695713-511.99936 511.99936-511.99936a508.351365 508.351365 0 0 1 296.895629 94.847881 31.99996 31.99996 0 0 1-37.119954 52.159935 447.80744 447.80744 0 0 0-134.463832-65.279918A448.511439 448.511439 0 0 0 63.99992 512.00064c0 246.975691 200.959749 447.99944 447.99944 447.99944 246.975691 0 447.99944-201.023749 447.99944-447.99944a448.831439 448.831439 0 0 0-54.847931-214.975731 31.99996 31.99996 0 0 1 56.127929-30.783962A512.639359 512.639359 0 0 1 1023.99872 512.00064c0 282.303647-229.695713 511.99936-511.99936 511.99936z" p-id="2349"></path><path d="M444.799444 784.0003a32.12796 32.12796 0 0 1-22.655972-9.343988l-220.799724-220.799724a31.99996 31.99996 0 0 1 45.247944-45.247944l198.399752 198.463752L902.398872 258.816956a31.99996 31.99996 0 0 1 44.735944 45.695943l-479.9994 470.463412a32.06396 32.06396 0 0 1-22.335972 9.023989z" p-id="2350"></path></svg>