<?xml version="1.0" standalone="no"?><!DOCTYPE svg PUBLIC "-//W3C//DTD SVG 1.1//EN" "http://www.w3.org/Graphics/SVG/1.1/DTD/svg11.dtd"><svg t="1575526643322" class="icon" viewBox="0 0 2004 1024" version="1.1" xmlns="http://www.w3.org/2000/svg" p-id="11783" xmlns:xlink="http://www.w3.org/1999/xlink" width="391.40625" height="200"><defs><style type="text/css"></style></defs><path d="M20.801973 1023.769098a228.197643 228.197643 0 0 0 145.61381-58.037504h-30.26687a216.548538 216.548538 0 0 0 291.227621 0h-29.642811a216.548538 216.548538 0 0 0 291.227621 0h-29.746822a216.548538 216.548538 0 0 0 291.227621 0h-29.642811a216.548538 216.548538 0 0 0 291.227621 0h-29.850831a227.989623 227.989623 0 0 0 145.613811 58.037504c27.146575 1.144109 27.042565-40.979887 0-42.123995A181.393204 181.393204 0 0 1 1212.130963 936.088782a21.738062 21.738062 0 0 0-29.850831 0 172.864395 172.864395 0 0 1-231.733979 0 21.634052 21.634052 0 0 0-29.746821 0 172.864395 172.864395 0 0 1-231.733978 0 21.738062 21.738062 0 0 0-29.850832 0 172.864395 172.864395 0 0 1-231.733978 0 21.634052 21.634052 0 0 0-29.746821 0A172.864395 172.864395 0 0 1 166.415783 936.088782a21.738062 21.738062 0 0 0-29.850831 0A180.873155 180.873155 0 0 1 20.801973 981.645103c-27.042565 1.144109-27.250585 43.268104 0 42.123995z" fill="#49494A" p-id="11784"></path><path d="M1327.997952 1023.769098a228.197643 228.197643 0 0 0 145.613811-58.037504h-29.850831a216.652548 216.652548 0 0 0 291.227621 0H1705.761781a216.548538 216.548538 0 0 0 291.227621 0c20.801973-17.785687-9.360888-47.532508-29.850831-29.850832a172.760385 172.760385 0 0 1-231.629969 0A21.738062 21.738062 0 0 0 1705.761781 936.088782a172.864395 172.864395 0 0 1-231.733979 0 21.738062 21.738062 0 0 0-29.850831 0 180.873155 180.873155 0 0 1-115.762979 45.764341c-27.042565 1.144109-27.250585 43.268104 0 42.123995z" fill="#49494A" p-id="11785"></path><path d="M532.842537 235.270314l65.630224 32.451078a86.744227 86.744227 0 0 0 71.350768-123.979759L487.078196 20.801973l-85.912148 149.358166 70.934728 35.051324" fill="#0F7888" p-id="11786"></path><path d="M522.233531 253.47204c37.547561 18.513756 68.750521 44.724242 110.978525 27.042565 50.756814-20.801973 93.608878-102.865756 51.484883-151.646383-20.801973-24.026279-61.053791-41.603946-87.056257-58.869583L497.687203 2.912276a21.530042 21.530042 0 0 0-28.914743 7.48871l-85.808138 149.150146a21.426032 21.426032 0 0 0 7.59272 28.914743l70.830718 34.947314c24.234298 11.961134 45.660331-24.338308 20.801973-36.403452l-70.310669-35.051325 7.59272 28.914743 85.808139-149.046136-28.914743 7.48871L624.059188 138.33312a139.893268 139.893268 0 0 1 29.122762 19.553855c15.809499 18.929795-2.288217 63.342008-26.210486 78.839477s-22.88217 10.400986-45.97236-1.248118l-37.235531-18.409746c-24.338308-12.065144-45.660331 24.338308-20.801973 36.403452z" fill="#49494A" p-id="11787"></path><path d="M1630.458639 689.065354l-78.631458-38.89969a86.640217 86.640217 0 0 0-71.350767 123.875749l182.745332 122.73164 85.808139-149.046136-47.532509-23.506229" fill="#0F7888" p-id="11788"></path><path d="M1641.171655 670.863627c-31.931028-15.70549-71.662797-47.428498-108.586299-38.795679-58.349534 13.521282-110.146447 97.041204-70.310668 152.686481 18.305736 25.586427 60.533741 43.060084 86.120168 60.221712l104.009864 69.998639a21.426032 21.426032 0 0 0 28.914743-7.59272l85.808138-149.046137a20.801973 20.801973 0 0 0-7.59272-28.810732l-47.428498-23.50623c-24.234298-11.961134-45.660331 24.338308-21.322023 36.403453l47.532508 23.50623-7.59272-28.914743-85.808138 149.046136 28.810733-7.48871-154.14262-104.009865a110.666496 110.666496 0 0 1-26.522515-17.785687c-14.561381-19.761874 23.922269-88.304375 49.300675-88.096355 20.801973 0 57.933495 28.602713 77.38334 38.27563 24.234298 11.961134 45.660331-24.442318 20.801973-36.507462z" fill="#49494A" p-id="11789"></path><path d="M1334.966613 608.665728l148.214057 85.184079" fill="#0F7888" p-id="11790"></path><path d="M1324.357607 626.867454l148.110047 85.18408c23.610239 13.521282 44.828252-22.88217 21.322023-36.403453l-148.214058-85.184079c-23.506229-13.625292-44.828252 22.88217-20.801972 36.403452z" fill="#49494A" p-id="11791"></path><path d="M666.807242 224.557298L865.986133 339.072159" fill="#0F7888" p-id="11792"></path><path d="M656.198236 242.759024l199.178891 114.410851c23.506229 13.521282 44.828252-22.88217 20.801973-36.403452l-199.178891-114.410851c-23.506229-13.521282-44.828252 22.88217-20.801973 36.403452z" fill="#49494A" p-id="11793"></path><path d="M1040.098647 482.605772a147.069949 147.069949 0 0 0 93.608878-134.692775 314.83786 314.83786 0 0 0-143.013564 15.081431 269.697579 269.697579 0 0 0-110.354466 83.207892A146.861929 146.861929 0 0 0 1040.098647 482.605772z" fill="#F3D24F" p-id="11794"></path><path d="M1220.451752 316.606028A245.6713 245.6713 0 0 1 795.675465 480.317555L239.742738 694.473867c242.551004 105.049963 583.183311 42.644045 857.977374-63.237998s574.862522-287.171236 678.560357-528.890162z" fill="#92CAEE" p-id="11795"></path><path d="M1156.693705 551.252283c-244.631202 94.336947-540.851296 153.9346-774.769482 91.84071l-133.860696 52.004933c242.551004 105.049963 583.183311 42.644045 857.977374-63.237998 260.024662-100.369519 543.763573-268.65748 660.77467-491.86265-136.044903 182.953352-381.716203 323.05464-610.121866 411.255005z" fill="#5DA1D3" p-id="11796"></path><path d="M537.83501 557.076835l-303.708805 117.115108a21.322022 21.322022 0 0 0 0 40.667857C520.049323 833.847085 866.194153 748.871026 1140.260147 636.956411 1393.732187 533.882635 1678.095157 374.435513 1794.482195 113.058723c6.552621-14.769401-4.680444-38.37964-23.818259-31.202959L1214.83522 296.220095a22.154101 22.154101 0 0 0-15.49747 20.801973c-9.464898 199.80295-247.855508 289.979503-388.788875 148.734106a20.801973 20.801973 0 0 0-20.801972-5.408513L624.059188 524.105708c-25.066377 9.672917-14.145342 50.444784 11.233065 40.667857l166.415784-64.174086-20.801973-5.408513c167.455882 167.767912 449.634645 57.101416 460.86771-178.584938l-15.497469 20.281924 555.620697-214.156312-23.818259-31.202959c-114.410851 255.968277-395.237486 411.359015-643.821063 510.480416C849.552575 707.26708 520.049323 788.602794 245.359271 674.191943v40.667857l303.708805-117.115108c25.066377-9.568908 14.145342-50.444784-11.233066-40.667857zM225.805416 780.073985c27.146575 0 27.250585-42.228005 0-42.228005S198.658842 780.073985 225.805416 780.073985zM380.572095 782.778242a790.474972 790.474972 0 0 1-98.809372-25.170388c-25.794446-8.736829-36.923502 32.139048-11.337075 40.667857a784.23438 784.23438 0 0 0 98.705362 25.170388c26.522515 4.992474 37.859591-35.675384 11.233065-40.667857zM543.763573 796.611554a912.478543 912.478543 0 0 1-109.210358-6.136582c-26.834545-3.328316-26.626525 38.899689 0 41.603945a891.36454 891.36454 0 0 0 109.210358 5.824553c27.146575 0 27.146575-41.603946 0-41.603946z" fill="#49494A" p-id="11797"></path><path d="M1123.306539 676.06412c-166.415783 63.237998-339.280179 108.066249-516.825018 118.883276-27.042565 1.560148-27.146575 43.788153 0 41.603946 181.393204-10.504996 358.209974-55.229238 527.226004-119.819364 25.170387-9.568908 14.249351-50.444784-11.233065-40.667858zM1707.945988 66.878343c27.146575 0 27.250585-42.228005 0-42.228005s-27.146575 42.228005 0 42.228005zM1625.258146 100.1615l26.210485-10.400987a21.634052 21.634052 0 0 0 14.665391-26.002466 20.801973 20.801973 0 0 0-25.898456-14.665391l-26.106476 10.400987a20.801973 20.801973 0 1 0 11.129056 40.667857zM1390.195851 190.754092l162.359399-62.405919c25.066377-9.672917 14.249351-50.444784-11.129055-40.667857l-162.463409 62.405919c-25.066377 9.672917-14.145342 50.548794 11.233065 40.771867zM1051.123693 500.807498a173.176425 173.176425 0 0 0 104.009864-152.894501 20.801973 20.801973 0 0 0-15.49747-20.801973c-104.633924-14.769401-213.844282 20.801973-278.018368 107.65021a20.801973 20.801973 0 0 0 3.328316 25.586427 173.488454 173.488454 0 0 0 180.561125 41.603946c25.690437-8.424799 14.769401-49.092656-11.129056-40.667857a131.156439 131.156439 0 0 1-139.685248-31.20296l3.328316 25.586427c48.780627-65.734234 145.613811-100.26551 230.38185-88.304375l-15.49747-20.801973a132.300548 132.300548 0 0 1-83.207892 116.491049c-24.650338 12.273164-3.224306 48.572607 21.426033 37.75558z" fill="#49494A" p-id="11798"></path></svg>