<?xml version="1.0" standalone="no"?><!DOCTYPE svg PUBLIC "-//W3C//DTD SVG 1.1//EN" "http://www.w3.org/Graphics/SVG/1.1/DTD/svg11.dtd"><svg t="1575526616945" class="icon" viewBox="0 0 1533 1024" version="1.1" xmlns="http://www.w3.org/2000/svg" p-id="10910" xmlns:xlink="http://www.w3.org/1999/xlink" width="299.4140625" height="200"><defs><style type="text/css"></style></defs><path d="M931.837057 99.723845l-103.987325 20.797465-103.987325 20.797465-268.183311 54.593345-133.935675 27.140692-72.791127 14.7662A81.006126 81.006126 0 0 0 185.104076 332.75944l30.364299 149.845735a80.902139 80.902139 0 0 0 95.25239 63.328281l207.246738-41.59493a81.214101 81.214101 0 0 0 63.328281-95.356377c-6.759176-35.77164-23.70911-133.935674 27.244679-143.086559 55.321257-10.398732 75.598785 84.853657 83.18986 120.833271a81.006126 81.006126 0 0 0 95.356377 63.224294l207.246739-41.59493a80.902139 80.902139 0 0 0 63.224293-95.356377l-30.364299-150.05371a80.798151 80.798151 0 0 0-95.356376-63.224293z" fill="#92CAEE" p-id="10911"></path><path d="M340.773102 540.73409l176.778452-35.875628a81.214101 81.214101 0 0 0 63.328281-95.356376c-4.26348-22.56525-12.582466-69.879482-5.303354-103.987325A364.475574 364.475574 0 0 0 340.773102 540.73409zM655.750709 288.772801c20.797465 28.38854 31.196197 75.182836 35.667652 98.060048a81.006126 81.006126 0 0 0 95.356377 63.224293l176.778453-35.77164A364.683548 364.683548 0 0 0 655.750709 288.772801z" fill="#5DA1D3" p-id="10912"></path><path d="M926.117754 79.342329l-437.786638 88.493213-178.546237 36.187589c-43.15474 8.734935-93.588592 11.438606-123.640929 47.938157s-23.189173 77.678532-14.662213 120.105361C188.84762 457.54423 195.918758 582.952944 316.33608 566.730921a1556.482279 1556.482279 0 0 0 207.246739-41.59493c61.352522-17.365883 85.373594-68.631634 76.638658-128.736308-3.639556-24.956958-14.038289-65.512015-2.911645-89.533087 26.724743-57.193029 60.62461 31.716134 66.967837 55.425244 14.038289 51.993662 31.820121 102.115553 94.10853 109.810615 34.523792 4.26348 74.662899-9.566834 108.146817-16.32601 87.661315-17.677845 231.579773-23.085186 210.886295-150.261684-14.142276-87.037391-22.877211-240.210721-145.582254-226.588381-26.724743 2.911645-27.036704 45.130499 0 42.114866 69.463533-7.695062 76.118722 53.033536 86.309479 103.987325 6.551201 32.444045 20.797465 69.775495 19.861579 103.155426-0.831899 57.608978-57.92094 62.392395-100.139794 70.711381L811.731696 423.540374a199.759651 199.759651 0 0 1-30.052337 6.031265c-50.641827 2.70367-65.30404-32.444045-75.702772-73.727013-9.254872-36.395564-23.813097-84.645682-59.48075-103.987325A60.520623 60.520623 0 0 0 562.162116 278.997993c-20.277528 40.347082-6.447214 86.30948-3.015632 128.320359 5.303354 64.784103-39.931133 75.390811-89.429099 85.373593L343.788734 518.272827c-45.754423 9.254872-92.028783 15.286137-108.354792-43.986638-9.774809-35.563665-14.7662-72.791127-22.045313-109.186691-10.398732-49.601954-8.94291-93.588592 50.849802-108.874729C291.795072 249.56958 320.183611 244.786163 348.260189 239.170847l166.37972-33.79588 422.292526-85.373594c27.036704-5.615316 15.806073-46.066385-10.814681-40.659044z" fill="#49494A" p-id="10913"></path><path d="M347.948227 162.740163L842.927894 62.392395c84.853657-16.845947 191.128703-51.993662 242.602429 47.314233 20.797465 40.659044 24.333034 95.668339 33.275944 139.862952 12.686454 62.392395 25.164933 123.536942-27.348667 173.970794-37.747399 36.291576-100.971692 40.347082-150.157697 50.329866l-135.183522 27.452653c-26.620755 5.303354-15.390124 45.962398 11.126643 40.659044l135.807447-27.452653c45.026512-9.150885 96.604225-13.726327 136.951307-37.33145 123.744917-72.791127 75.910747-214.005915 52.513599-325.688302S1029.377167-17.157909 917.902755 4.575442c-102.531502 20.069554-204.85503 41.59493-307.178558 62.392395l-274.006601 55.113282c-26.516768 5.407341-15.286137 46.066385 11.230631 40.659044zM461.294411 570.890414C355.539302 592.727752 188.84762 655.120147 146.732753 508.290044c-12.478479-43.674676-18.509744-89.949036-27.556641-134.351624-16.637972-82.357961 4.67943-161.180354 96.292263-184.369527 26.308793-6.655189 15.182149-47.314233-11.126644-40.659044A175.010668 175.010668 0 0 0 72.069854 353.556905c9.566834 55.21727 19.237655 112.410298 34.003855 166.37972 24.541009 89.949036 111.5784 140.590863 202.359335 124.78479 54.905308-9.566834 109.394666-22.1493 164.091998-33.171957 26.620755-5.407341 15.390124-46.066385-11.230631-40.659044zM523.582819 600.838763c27.140692 0 27.140692-42.218854 0-42.218854s-27.140692 42.218854 0 42.218854z" fill="#49494A" p-id="10914"></path><path d="M307.80912 320.072986l127.384473-25.788856c26.620755-5.407341 15.390124-46.066385-11.230631-40.659045l-127.384473 25.788857c-26.516768 5.407341-15.286137 46.066385 11.230631 40.659044zM509.024593 273.070715c27.036704 0 27.140692-42.218854 0-42.218854s-27.244679 42.218854 0 42.218854zM801.332964 219.101294l61.144547-12.374492c26.620755-5.407341 15.390124-46.066385-11.126644-40.659044l-61.144547 12.374492c-26.620755 5.407341-15.390124 46.066385 11.126644 40.659044zM919.878514 192.376551c27.140692 0 27.244679-42.218854 0-42.218854s-27.140692 42.218854 0 42.218854zM713.463674 236.36319c27.140692 0 27.140692-42.114867 0-42.114867s-27.140692 42.114867 0 42.114867zM1125.565443 170.851175L1201.684165 155.980987l-25.996832-15.182149 23.501136 116.465804c5.303354 26.620755 45.962398 15.286137 40.659044-11.230631l-23.501136-116.361817a21.317402 21.317402 0 0 0-25.892843-14.7662l-76.118722 15.286137c-26.516768 5.407341-15.286137 46.066385 11.230631 40.659044zM65.206691 499.13916L42.225492 382.465381l-15.18215 25.892844 76.014735-15.286137c26.620755-5.303354 15.390124-45.962398-11.230631-40.659044l-76.014735 15.286137A21.629364 21.629364 0 0 0 0.630562 393.696012l23.917085 116.361817c5.303354 26.620755 45.962398 15.286137 40.659044-11.230631z" fill="#49494A" p-id="10915"></path><path d="M829.097579 998.798256c-64.576129-11.022656-102.323528-64.680116-102.531502-148.389913v-1.039873l-3.11962-47.106258 91.612834 1.767784 3.119619 46.586322c0 58.752839 20.797465 58.752839 36.603539 58.648851l340.662476-3.11962a64.056192 64.056192 0 0 0 64.16018-63.848217v-3.951518L1357.873127 270.367045l90.260998 15.702086-96.916187 559.347821A155.980987 155.980987 0 0 1 1196.484798 998.278319l-340.766463 3.11962a152.029469 152.029469 0 0 1-26.620756-2.599683z" fill="#ECEBEB" p-id="10916"></path><path d="M1414.858181 354.700765l-73.623026 432.691259c-3.743544 21.421389-6.031265 43.570689-11.022657 64.680116-12.166517 50.849802-58.128915 91.508846-104.611249 112.930235-62.392395 28.596514-152.445418 12.478479-219.309268 12.894429-27.140692 0-27.140692 42.426829 0 42.218853 69.879482 0 157.644785 14.142276 224.30066-11.542593a225.340533 225.340533 0 0 0 145.582255-178.130287l79.134354-464.615368c4.575442-26.516768-36.083602-37.955374-40.659044-11.126644zM657.206531 686.940268c5.511328 29.740375 17.88582 72.791127 51.993663 81.942012 18.509744 4.991392 41.59493 0 60.728598-1.455822s41.59493 1.455823 59.0648-6.447214c31.196197-14.7662 37.539424-58.752839 39.723158-89.117138a20.797465 20.797465 0 0 0-20.797465-20.797465l-170.019276 9.566834c-26.932717 1.455823-27.140692 43.674676 0 41.59493l170.019276-9.462846-20.797465-20.797465c-1.455823 19.757592-2.495696 45.85841-22.669237 51.993662a196.120095 196.120095 0 0 1-40.659044 2.287721 148.701875 148.701875 0 0 1-37.747399 2.183734c-20.797465-5.199366-23.917085-33.067969-27.452653-51.993662-5.719303-27.348666-46.378347-16.014048-41.386956 10.502719zM857.694094 978.624715c-102.843464-3.847531-105.443147-97.332136-110.642514-177.922313-1.871772-26.932717-43.986638-27.140692-42.218854 0 3.015632 45.234486 1.247848 92.860681 19.549617 135.183522 24.125059 55.945181 74.24695 82.357961 133.311751 84.645683 27.140692 1.039873 27.140692-41.59493 0-42.218854z" fill="#49494A" p-id="10917"></path><path d="M1345.498635 276.918246l-70.607394 407.526327c-8.318986 47.522207-15.182149 95.564352-24.021072 142.878584-19.133668 102.739477-151.19757 79.654291-229.396038 81.110114-38.47531 0.727911-77.36657 3.223607-115.84188 2.183733-67.279799-1.871772-67.175812-59.688725-67.799736-112.618273 0-27.140692-42.426829-27.244679-42.114867 0 0 43.674676-0.935886 93.588592 31.716134 127.072511 25.684869 26.516768 60.104674 27.97259 94.628466 27.348667 80.174228-1.455823 161.284341 0 241.354581-4.471455 54.697333-3.327594 103.987325-32.756007 122.913018-85.997518 8.422973-22.877211 9.254872-51.265751 13.518352-75.598785l47.002271-271.614893 39.307209-226.588381c4.575442-26.620755-36.083602-37.955374-40.659044-11.230631zM1448.134125 307.49052c27.140692 0 27.140692-42.114867 0-42.114867s-27.140692 42.114867 0 42.114867z" fill="#49494A" p-id="10918"></path><path d="M1448.862036 23.293161c-40.763031-6.863163-73.934988-12.582466-86.517454 61.352521l-20.797465 123.848904 147.973963 25.164933 20.797465-123.744917c12.582466-74.038975-20.58949-79.654291-61.456509-86.621441z" fill="#F3D24F" p-id="10919"></path><path d="M1454.477352 3.015632c-64.264167-10.398732-99.307895 10.398732-112.514286 76.430684-8.111011 40.867019-14.038289 82.357961-20.797465 123.432955a21.317402 21.317402 0 0 0 14.558226 25.892844l147.869976 25.164932A21.317402 21.317402 0 0 0 1509.486646 239.170847c6.967151-41.59493 14.662213-82.253974 20.797465-123.432954 10.398732-65.096065-10.918669-101.595616-76.014734-112.826248-26.516768-4.575442-37.955374 36.083602-11.230631 40.659044 22.253288 3.847531 44.402588 5.303354 48.458093 31.196198 2.599683 16.637972-3.11962 36.811513-5.927277 53.449485l-16.949934 99.619857 25.892844-14.7662-147.869976-25.164933 14.7662 25.892844 17.157908-99.411883a367.283232 367.283232 0 0 1 8.214999-42.634803c9.670821-32.548033 26.82873-33.067969 56.465117-28.076578 26.620755 4.471455 37.955374-36.187589 11.230632-40.659044z" fill="#49494A" p-id="10920"></path></svg>