<?xml version="1.0" standalone="no"?><!DOCTYPE svg PUBLIC "-//W3C//DTD SVG 1.1//EN" "http://www.w3.org/Graphics/SVG/1.1/DTD/svg11.dtd"><svg t="1575526662173" class="icon" viewBox="0 0 1071 1024" version="1.1" xmlns="http://www.w3.org/2000/svg" p-id="12491" xmlns:xlink="http://www.w3.org/1999/xlink" width="209.1796875" height="200"><defs><style type="text/css"></style></defs><path d="M658.29637 22.631555h-240.789066A218.489905 218.489905 0 0 0 198.912707 240.807388h677.873569A218.489905 218.489905 0 0 0 658.29637 22.631555zM417.821376 806.871076h240.789067A218.489905 218.489905 0 0 0 876.786276 588.381171H198.912707a218.489905 218.489905 0 0 0 218.908669 218.489905z" fill="#F3D24F" p-id="12492"></path><path d="M708.33862 756.828827h-240.789067A218.594596 218.594596 0 0 1 255.13172 588.381171H198.912707a218.489905 218.489905 0 0 0 218.908669 218.489905h240.789067a218.175833 218.175833 0 0 0 177.451073-91.081081 217.652378 217.652378 0 0 1-127.722896 41.038832z" fill="#BFAD65" p-id="12493"></path><path d="M499.689659 735.785956c-86.474682 0-159.234857-24.811743-205.298852-103.120535-13.714508-23.34607-50.14694-2.198509-36.327742 20.93818C311.560114 744.998755 397.825415 777.871697 499.689659 777.871697c27.114943 0 27.219634-41.876359 0-41.876359zM630.448591 735.785956h-67.525629c-27.114943 0-27.114943 41.876359 0 41.87636h67.525629c27.114943 0 27.114943-41.876359 0-41.87636zM391.334579 262.269022h485.451697a20.93818 20.93818 0 0 0 20.938179-20.93818c-3.245418-98.095372-59.255049-186.45449-152.115875-222.991614C681.53775-7.205351 605.741539 1.483993 538.006528 1.483993c-65.431812 0-138.715441-8.270581-201.320598 14.237963C240.789067 50.374643 181.429327 140.618198 177.974528 240.807388a20.93818 20.93818 0 0 0 20.938179 20.938179h69.724139c27.114943 0 27.114943-41.876359 0-41.876359H198.912707l20.93818 20.93818c3.768872-101.864244 79.25101-188.443617 183.523145-196.714199 44.493632-3.245418 90.138864 0 134.632496 0 41.876359 0 85.218391-2.093818 127.408823 0A200.273689 200.273689 0 0 1 855.743405 240.807388l20.93818-20.93818H391.334579c-27.114943 0-27.114943 41.876359 0 41.876359z" fill="#49494A" p-id="12494"></path><path d="M688.447349 67.858023a416.251013 416.251013 0 0 0-103.643989-12.667599c-27.114943 0-27.114943 41.876359 0 41.87636a366.418145 366.418145 0 0 1 92.442063 11.201926c26.277416 6.909599 37.479342-33.81516 11.201926-40.72476zM791.463193 130.986635a262.460083 262.460083 0 0 0-43.446723-37.898105 20.93818 20.93818 0 0 0-28.789997 7.537744 21.461634 21.461634 0 0 0 7.537745 28.894688c1.360982 0.837527 2.617272 1.779745 3.873563 2.721964s4.187636 3.140727 2.198509 1.570363l2.512582 1.989127 4.920472 4.292327q11.201926 9.840944 20.93818 20.93818c18.844362 19.577198 48.576577-10.46909 29.836906-29.836906zM803.293265 210.656409c27.114943 0 27.219634-41.876359 0-41.87636s-27.219634 41.876359 0 41.87636zM344.328365 262.269022c27.114943 0 27.219634-41.876359 0-41.87636s-27.114943 41.876359 0 41.87636zM632.437718 567.233609H198.912707a20.93818 20.93818 0 0 0-20.938179 20.93818c3.140727 98.095372 59.255049 186.45449 152.115875 222.991614 64.280212 25.335197 140.076422 16.645853 207.706743 16.645853 65.431812 0 138.715441 8.270581 201.320598-14.237962 96.315627-34.652687 155.361294-124.896242 158.606711-225.399505a20.93818 20.93818 0 0 0-20.938179-20.93818h-45.959305c-27.114943 0-27.114943 41.876359 0 41.87636h45.959305l-20.93818-20.93818C852.393296 690.978252 777.015849 777.662316 672.639023 785.20006c-44.493632 3.350109-90.034173 0-134.632495 0-41.876359 0-85.113701 2.093818-127.408824 0a200.168998 200.168998 0 0 1-190.223362-196.818889l-20.93818 20.93818h433.001556c27.114943 0 27.219634-41.876359 0-41.87636z" fill="#49494A" p-id="12495"></path><path d="M785.181739 567.233609h-92.023299c-27.114943 0-27.219634 41.876359 0 41.87636H785.181739c27.219634 0 27.219634-41.876359 0-41.87636z" fill="#49494A" p-id="12496"></path><path d="M956.770122 414.489588a36.11836 36.11836 0 0 1-32.977633 38.526251H146.567258a36.013669 36.013669 0 0 1-32.872942-38.526251A36.013669 36.013669 0 0 1 146.567258 375.963338h777.225231a36.11836 36.11836 0 0 1 32.977633 38.52625z" fill="#BFAD65" p-id="12497"></path><path d="M383.27338 397.110899h85.218391c27.114943 0 27.114943-41.876359 0-41.876359h-85.218391c-27.219634 0-27.219634 41.876359 0 41.876359z" fill="#49494A" p-id="12498"></path><path d="M595.900595 397.110899h278.582481c10.46909 0 36.11836-4.71109 45.540541 0 24.078907 11.934762 7.956508 29.836906-4.920472 34.862069-22.717925 8.689345-65.955266 0-90.138864 0H189.490526c-7.642436 0-29.522833 3.873563-36.537123 0-1.465673-0.837527-5.025163 0.942218-6.281454 0-3.559491-2.826654 2.407891-34.652687 2.931345-34.862069 3.245418-1.884436 11.097235 0.732836 14.552035 0 46.482759-10.46909 104.690899 0 152.63933 0 27.114943 0 27.114943-41.876359 0-41.876359-55.067413 0-112.438025-5.025163-167.505438 0-59.569121 5.129854-81.55421 94.954645-18.844361 115.892825 24.078907 8.375272 56.951849 2.721963 81.55421 2.721963h609.301029a983.36161 983.36161 0 0 0 100.922027 0c56.847158-5.967381 79.146319-88.045046 22.717925-114.322461-15.808326-7.328363-35.699596-4.815781-52.34545-4.815782H595.900595c-27.219634 0-27.219634 41.876359 0 41.87636z" fill="#49494A" p-id="12499"></path><path d="M555.385217 397.110899c27.114943 0 27.114943-41.876359 0-41.876359s-27.219634 41.876359 0 41.876359z" fill="#49494A" p-id="12500"></path><path d="M151.906494 278.914875h757.648033v38.735632H151.906494z" fill="#66C089" p-id="12501"></path><path d="M371.966763 338.693378c27.114943 0 27.114943-41.876359 0-41.87636s-27.219634 41.876359 0 41.87636zM314.072696 338.693378c27.114943 0 27.114943-41.876359 0-41.87636s-27.219634 41.876359 0 41.87636zM888.511656 278.914875v38.735632l20.93818-20.938179H432.373411c-27.114943 0-27.114943 41.876359 0 41.876359h477.285807a20.93818 20.93818 0 0 0 20.93818-20.93818v-38.735632c0-27.114943-41.876359-27.219634-41.87636 0zM151.906494 338.693378c27.219634 0 27.219634-41.876359 0-41.87636s-27.114943 41.876359 0 41.87636zM269.264991 296.502946h-61.244176c-27.114943 0-27.219634 41.876359 0 41.876359h61.244176c27.114943 0 27.114943-41.876359 0-41.876359z" fill="#49494A" p-id="12502"></path><path d="M151.906494 509.548924h757.648033v42.713887H151.906494z" fill="#66C089" p-id="12503"></path><path d="M909.659218 531.534013c27.114943 0 27.114943-41.876359 0-41.876359s-27.219634 41.876359 0 41.876359zM777.329922 531.534013h64.489594c27.114943 0 27.114943-41.876359 0-41.876359h-64.489594c-27.114943 0-27.114943 41.876359 0 41.876359z" fill="#49494A" p-id="12504"></path><path d="M173.054055 548.284557v-38.735633l-20.938179 20.93818h579.882887c27.114943 0 27.114943-41.876359 0-41.876359H151.906494a20.93818 20.93818 0 0 0-20.93818 20.938179v38.735633c0 27.114943 41.876359 27.219634 41.87636 0z" fill="#49494A" p-id="12505"></path><path d="M536.017401 1002.957129C228.121468 1002.957129 20.93818 910.829139 20.93818 824.877911c0-43.237341 50.565704-86.474682 139.448277-119.97577a275.022991 275.022991 0 0 0 257.434919 175.671328h240.789067a275.441754 275.441754 0 0 0 256.28332-174.415037c86.579373 33.396397 136.098168 76.110283 136.098168 118.719479C1050.782549 910.829139 843.913334 1002.957129 536.017401 1002.957129z" fill="#92CAEE" p-id="12506"></path><path d="M658.29637 880.573469h-240.789066a275.022991 275.022991 0 0 1-256.806775-175.671328c-5.653309 2.093818-11.097235 4.292327-16.436471 6.490836a76.319665 76.319665 0 0 0-13.714507 41.876359c0 81.55421 84.485555 190.118672 405.46785 189.699908 372.280835 0 405.46785-108.145698 405.46785-189.699908a76.005592 76.005592 0 0 0-13.714508-41.876359l-12.87698-5.234545a275.441754 275.441754 0 0 1-256.597393 174.415037z" fill="#5DA1D3" p-id="12507"></path><path d="M902.435546 926.11401c-195.039144 70.352284-427.243557 73.807084-628.145392 29.941597-68.572539-14.970798-148.032931-35.594906-202.053434-83.752719-76.633738-67.839702 34.547997-123.849333 94.221809-147.509476 24.916434-9.840944 14.133271-50.670395-11.201926-40.620069C93.279591 708.985086-20.93818 760.178936 3.4548 846.96769c18.216216 63.861448 98.304754 98.409445 154.209693 119.452316 116.206897 43.760796 245.186084 56.742467 368.616654 57.475303 130.235478 0.837527 264.239828-12.667599 387.356325-57.161231 25.335197-9.108108 14.447344-49.937559-11.201926-40.620068zM997.808954 874.81547l-4.082945 3.350108c-4.71109 3.768872 3.350109-2.407891-1.570363 1.256291-3.140727 2.198509-6.176763 4.501709-9.422181 6.595527a20.93818 20.93818 0 0 0 20.93818 36.432432c8.16589-5.548618 16.017707-11.515999 23.555452-17.797452a20.93818 20.93818 0 0 0 0-29.836906 21.775707 21.775707 0 0 0-29.836906 0zM880.241075 802.055295A343.490838 343.490838 0 0 0 935.203797 711.916431l-25.963343 14.656726c39.57316 15.703635 117.463188 46.168686 120.499225 98.304754 1.570363 26.905561 43.656105 27.114943 41.876359 0-4.292327-76.110283-90.452936-115.159988-151.383039-139.029513-11.515999-4.6064-21.880398 5.234545-25.858652 14.761416a277.744954 277.744954 0 0 1-44.17956 71.608575c-17.378689 20.93818 12.353526 50.565704 29.836907 29.836906zM785.181739 870.837215c27.114943 0 27.114943-41.876359 0-41.876359s-27.219634 41.876359 0 41.876359z" fill="#49494A" p-id="12508"></path></svg>