<?xml version="1.0" standalone="no"?><!DOCTYPE svg PUBLIC "-//W3C//DTD SVG 1.1//EN" "http://www.w3.org/Graphics/SVG/1.1/DTD/svg11.dtd"><svg t="1575526651093" class="icon" viewBox="0 0 1799 1024" version="1.1" xmlns="http://www.w3.org/2000/svg" p-id="12050" xmlns:xlink="http://www.w3.org/1999/xlink" width="351.3671875" height="200"><defs><style type="text/css"></style></defs><path d="M894.559126 20.984085a213.249496 213.249496 0 0 0-213.354183 213.249496C681.204943 366.45455 894.559126 523.486579 894.559126 523.486579s213.458872-157.032029 213.458872-289.462374A213.354184 213.354184 0 0 0 894.559126 20.984085z m0 427.022432a35.279863 35.279863 0 1 1 35.279863-35.279863 35.175175 35.175175 0 0 1-35.279863 35.175175z" fill="#92CAEE" p-id="12051"></path><path d="M774.691344 164.51136v65.01126a88.042624 88.042624 0 0 0 88.042625 88.042625h20.937603a87.937936 87.937936 0 0 0 88.042625-88.042625v-65.01126z" fill="#ECEBEB" p-id="12052"></path><path d="M853.207359 185.553652c27.218885 0 27.218885-41.875208 0-41.875208s-27.114197 41.875208 0 41.875208z" fill="#49494A" p-id="12053"></path><path d="M801.596165 143.36438H774.691344a20.937604 20.937604 0 0 0-20.937604 20.937604c0 33.29079-4.815649 71.083165 6.90941 102.908323 17.796963 48.470553 62.812812 71.292541 112.748997 71.292541s93.067649-21.67042 111.597428-68.780028c12.771938-32.557974 8.060977-71.083165 8.060978-105.420836a21.461044 21.461044 0 0 0-20.937604-20.937604h-69.512845c-27.218885 0-27.218885 41.875208 0 41.875208h68.884717l-20.937604-20.937604c0 60.509675 4.815649 131.802217-77.469135 132.011593S795.628948 224.811659 795.628948 164.51136l-20.937604 20.937604h27.218885c27.114197 0 27.218885-41.875208 0-41.875208z" fill="#49494A" p-id="12054"></path><path d="M973.598581 207.119384a175.143057 175.143057 0 0 1 37.792375 0c18.634467 4.396897 19.262596 32.139222-1.256256 32.872038-27.114197 1.04688-27.218885 43.236152 0 41.875208a56.740907 56.740907 0 0 0 50.878377-28.579829 62.184684 62.184684 0 0 0-4.292208-62.812812c-19.995412-28.893893-52.34401-25.962629-83.122288-25.962629-27.114197 0-27.218885 41.875208 0 41.875208z" fill="#49494A" p-id="12055"></path><path d="M1083.416314 360.696709C1152.719782 251.297728 1137.330644 115.203303 1024.581647 39.095113a236.594924 236.594924 0 0 0-305.165577 39.258007c-150.541372 170.22272 25.020437 359.917411 164.569566 463.55855a20.204788 20.204788 0 0 0 20.937604 0 953.289105 953.289105 0 0 0 113.900566-101.547379c18.948532-19.471972-10.468802-49.412745-29.836086-29.836085a879.379364 879.379364 0 0 1-105.316148 94.952034h20.937604c-98.511426-73.281614-239.735565-199.954117-191.997827-335.734479a192.521268 192.521268 0 0 1 353.950193-20.937604c32.976726 66.58158 18.006339 129.708456-20.100099 190.218132-14.551635 23.031364 21.879796 44.178344 36.326742 20.937603zM720.253574 2.663682a225.288618 225.288618 0 0 0-56.112778 35.803303c-20.1001 18.320403 9.840674 48.156489 29.836085 29.836085a188.438435 188.438435 0 0 1 47.528361-29.207957A20.937604 20.937604 0 0 0 749.147467 10.515283 21.565732 21.565732 0 0 0 720.253574 2.663682z" fill="#49494A" p-id="12056"></path><path d="M894.559126 426.859537a14.237571 14.237571 0 0 1 0-28.370453 14.237571 14.237571 0 0 1 0 28.370453c-26.904821 1.360944-27.114197 43.550216 0 41.875208a56.322154 56.322154 0 1 0-56.217466-58.206539 57.264347 57.264347 0 0 0 56.217466 58.206539c26.695445 1.675008 26.695445-40.514264 0-41.875208z" fill="#49494A" p-id="12057"></path><path d="M227.905818 436.386147h369.548709v143.422586h-369.548709z" fill="#F3D24F" p-id="12058"></path><path d="M202.361942 356.195124l-20.937604 31.72047h416.030189v-70.350349H284.332661" fill="#BBBCBE" p-id="12059"></path><path d="M184.146226 345.516946l-20.937604 31.406406a20.937604 20.937604 0 0 0 18.215716 31.406405h416.030189a20.937604 20.937604 0 0 0 20.937604-20.937603v-69.826909a20.937604 20.937604 0 0 0-20.937604-20.937604H333.53603c-27.114197 0-27.218885 41.875208 0 41.875207h263.918497l-20.937604-20.937603v70.350349l20.937604-20.937604H181.424338l18.215715 31.406406 20.937604-31.406406c15.075075-22.612612-21.461044-43.759592-36.431431-20.937604z" fill="#49494A" p-id="12060"></path><path d="M254.810639 338.712224c27.114197 0 27.218885-41.875208 0-41.875207s-27.218885 41.875208 0 41.875207z" fill="#49494A" p-id="12061"></path><path d="M21.042292 787.300388H642.78444v215.552632H21.042292z" fill="#92CAEE" p-id="12062"></path><path d="M642.78444 981.810728H20.937604l20.937604 20.937604V787.300388l-20.937604 20.937604h621.846836c27.218885 0 27.218885-41.875208 0-41.875208H20.937604a20.937604 20.937604 0 0 0-20.937604 20.937604v215.65732a20.937604 20.937604 0 0 0 20.937604 20.937604h621.846836c27.218885 0 27.218885-41.875208 0-41.875208z" fill="#49494A" p-id="12063"></path><path d="M83.855104 850.1132h89.403568v89.403568H83.855104z" fill="#F3D24F" p-id="12064"></path><path d="M62.812812 857.231985v82.389471a20.937604 20.937604 0 0 0 20.937604 20.937604h89.508256a20.937604 20.937604 0 0 0 20.937604-20.937604v-41.247079c0-27.114197-41.875208-27.114197-41.875208 0v41.247079l20.937604-20.937604H83.750416l20.937603 20.937604v-82.389471c0-27.114197-41.875208-27.218885-41.875207 0z" fill="#49494A" p-id="12065"></path><path d="M260.987233 850.1132h89.403568v89.403568h-89.403568z" fill="#F3D24F" p-id="12066"></path><path d="M239.944941 857.231985v82.389471a20.937604 20.937604 0 0 0 20.937604 20.937604h89.403568a20.937604 20.937604 0 0 0 20.937604-20.937604v-41.247079c0-27.114197-41.875208-27.114197-41.875208 0v41.247079l20.937604-20.937604h-89.29888l20.937603 20.937604v-82.389471c0-27.114197-41.875208-27.218885-41.875207 0z" fill="#49494A" p-id="12067"></path><path d="M438.119362 850.1132h89.403568v89.403568h-89.403568z" fill="#F3D24F" p-id="12068"></path><path d="M416.972382 857.231985v82.389471a21.461044 21.461044 0 0 0 20.937603 20.937604h89.403569a20.937604 20.937604 0 0 0 20.937604-20.937604v-41.247079c0-27.114197-41.875208-27.114197-41.875208 0v41.247079l20.937604-20.937604h-89.194192l20.937603 20.937604v-82.389471c0-27.114197-41.875208-27.218885-41.875207 0zM173.36336 871.26018c27.114197 0 27.114197-41.875208 0-41.875208s-27.218885 41.875208 0 41.875208z" fill="#49494A" p-id="12069"></path><path d="M527.52293 871.26018c27.218885 0 27.218885-41.875208 0-41.875208s-27.114197 41.875208 0 41.875208z" fill="#49494A" p-id="12070"></path><path d="M1147.799446 787.300388h621.742147v215.552632h-621.742147z" fill="#92CAEE" p-id="12071"></path><path d="M1147.799446 1024H1769.227529a20.937604 20.937604 0 0 0 20.937604-20.937604V787.300388a20.937604 20.937604 0 0 0-20.937604-20.937604h-621.428083c-27.114197 0-27.218885 41.875208 0 41.875208H1769.227529l-20.937604-20.937604v215.65732l20.937604-20.937604h-621.428083c-27.114197 0-27.218885 41.875208 0 41.875208z" fill="#49494A" p-id="12072"></path><path d="M1210.612257 850.1132h89.403569v89.403568h-89.403569z" fill="#F3D24F" p-id="12073"></path><path d="M1189.465277 857.231985v82.389471a21.461044 21.461044 0 0 0 20.937604 20.937604h89.403569a20.937604 20.937604 0 0 0 20.937604-20.937604v-41.247079c0-27.114197-41.875208-27.114197-41.875208 0v41.247079l20.937604-20.937604h-89.403569l20.937604 20.937604v-82.389471c0-27.114197-41.875208-27.218885-41.875208 0z" fill="#49494A" p-id="12074"></path><path d="M1387.744386 850.1132h89.403569v89.403568h-89.403569z" fill="#F3D24F" p-id="12075"></path><path d="M1366.597406 857.231985v82.389471a20.937604 20.937604 0 0 0 20.937604 20.937604h89.403569a20.937604 20.937604 0 0 0 20.937604-20.937604v-41.247079c0-27.114197-41.875208-27.114197-41.875208 0v41.247079l20.937604-20.937604h-89.403569l20.937604 20.937604v-82.389471c0-27.114197-41.875208-27.218885-41.875208 0z" fill="#49494A" p-id="12076"></path><path d="M1564.771827 850.1132h89.403569v89.403568h-89.403569z" fill="#F3D24F" p-id="12077"></path><path d="M1543.729535 857.231985v82.389471a20.937604 20.937604 0 0 0 20.937604 20.937604H1654.070708a20.937604 20.937604 0 0 0 20.937604-20.937604v-41.247079c0-27.114197-41.875208-27.114197-41.875208 0v41.247079l20.937604-20.937604h-89.508257l20.937604 20.937604v-82.389471c0-27.114197-41.875208-27.218885-41.875208 0zM1300.015826 871.26018c27.114197 0 27.218885-41.875208 0-41.875208s-27.114197 41.875208 0 41.875208z" fill="#49494A" p-id="12078"></path><path d="M1650.720691 871.26018c27.114197 0 27.218885-41.875208 0-41.875208s-27.114197 41.875208 0 41.875208z" fill="#49494A" p-id="12079"></path><path d="M730.827064 787.300388v215.029192h99.977059V841.842846h133.581912v160.486734h99.872371V787.300388H730.827064z" fill="#F3D24F" p-id="12080"></path><path d="M829.757242 981.287288h-98.82549l20.937604 20.937604V787.300388l-20.937604 20.937604h333.326654l-20.937604-20.937604V858.488241c0 27.114197 41.875208 27.218885 41.875208 0v-71.187853a21.461044 21.461044 0 0 0-20.937604-20.937604H730.931752a20.937604 20.937604 0 0 0-20.937604 20.937604v215.029192a20.937604 20.937604 0 0 0 20.937604 20.937604h98.82549c27.114197 0 27.114197-41.875208 0-41.875208zM1043.216114 954.801219v47.528361l20.937604-20.937604h-95.266098c-27.114197 0-27.218885 41.875208 0 41.875208h95.266098a20.937604 20.937604 0 0 0 20.937604-20.937604V954.801219c0-27.114197-41.875208-27.114197-41.875208 0z" fill="#49494A" p-id="12081"></path><path d="M850.799534 895.129048v-53.286202l-20.937604 20.937604h139.235066l-20.937604-20.937604v160.486734c0 27.218885 41.875208 27.218885 41.875208 0V841.842846a20.937604 20.937604 0 0 0-20.937604-20.937604H829.757242a21.461044 21.461044 0 0 0-20.937604 20.937604v53.286202c0 27.114197 41.875208 27.218885 41.875208 0z" fill="#49494A" p-id="12082"></path><path d="M829.757242 967.468469c27.114197 0 27.114197-41.875208 0-41.875207s-27.218885 41.875208 0 41.875207zM1064.258406 928.524526c27.114197 0 27.218885-41.875208 0-41.875208s-27.114197 41.875208 0 41.875208z" fill="#49494A" p-id="12083"></path><path d="M721.719206 595.30256h356.358019v91.602017H721.719206z" fill="#92CAEE" p-id="12084"></path><path d="M982.915815 665.862285h-261.720049l20.937604 20.937604v-91.497329l-20.937604 20.937604h355.939266l-20.937603-20.937604v91.602017l20.937603-20.937604h-33.081414c-27.114197 0-27.114197 41.875208 0 41.875208H1078.286601a20.937604 20.937604 0 0 0 20.937604-20.937604v-91.602017a20.937604 20.937604 0 0 0-20.937604-20.937604H722.347334a20.937604 20.937604 0 0 0-20.937603 20.937604v91.602017a20.937604 20.937604 0 0 0 20.937603 20.937604h261.720049c27.114197 0 27.218885-41.875208 0-41.875208z" fill="#49494A" p-id="12085"></path><path d="M1078.077225 738.097019H721.719206" fill="#92CAEE" p-id="12086"></path><path d="M1078.286601 716.950039H722.347334c-27.114197 0-27.218885 41.875208 0 41.875208h355.939267c27.114197 0 27.218885-41.875208 0-41.875208z" fill="#49494A" p-id="12087"></path><path d="M660.372027 648.902826H138.711626L21.042292 725.011016h639.329735v-76.10819z" fill="#BBBCBE" p-id="12088"></path><path d="M588.137293 746.157996h72.234734a21.461044 21.461044 0 0 0 20.937604-20.937604V649.112202a20.937604 20.937604 0 0 0-20.937604-20.937604H138.711626c-27.114197 0-27.218885 41.875208 0 41.875208h521.660401l-20.937604-20.937604v76.10819l20.937604-20.937603h-72.234734c-27.114197 0-27.218885 41.875208 0 41.875207z" fill="#49494A" p-id="12089"></path><path d="M20.937604 746.157996h427.127119c27.114197 0 27.218885-41.875208 0-41.875207H20.937604c-27.114197 0-27.114197 41.875208 0 41.875207zM522.497905 746.157996c27.114197 0 27.114197-41.875208 0-41.875207s-27.218885 41.875208 0 41.875207zM88.880129 700.723396c27.218885 0 27.218885-41.875208 0-41.875208s-27.114197 41.875208 0 41.875208z" fill="#49494A" p-id="12090"></path><path d="M1139.005652 648.902826h521.660401l117.669334 76.10819H1139.005652v-76.10819z" fill="#BBBCBE" p-id="12091"></path><path d="M1211.345073 703.968724h-72.339421l20.937604 20.937604V649.112202l-20.937604 20.937604h521.660401c27.218885 0 27.218885-41.875208 0-41.875208H1139.005652a21.461044 21.461044 0 0 0-20.937604 20.937604v76.10819a21.461044 21.461044 0 0 0 20.937604 20.937604h72.339421c27.114197 0 27.114197-41.875208 0-41.875207z" fill="#49494A" p-id="12092"></path><path d="M1778.335387 703.968724H1402.819461c-27.114197 0-27.218885 41.875208 0 41.875208h375.934678c27.114197 0 27.218885-41.875208 0-41.875208zM1347.020747 746.157996c27.114197 0 27.114197-41.875208 0-41.875207s-27.218885 41.875208 0 41.875207zM1276.356333 746.157996c27.114197 0 27.114197-41.875208 0-41.875207s-27.218885 41.875208 0 41.875207zM1708.299102 699.153076c27.114197 0 27.218885-41.875208 0-41.875208s-27.218885 41.875208 0 41.875208zM229.266763 415.239167H188.438435a20.937604 20.937604 0 0 0-20.937604 20.937604v143.422586a20.937604 20.937604 0 0 0 20.937604 20.937604h369.548709a20.937604 20.937604 0 0 0 20.937604-20.937604V436.386147a20.937604 20.937604 0 0 0-20.937604-20.937604h-167.500831c-27.114197 0-27.114197 41.875208 0 41.875208h167.500831l-20.937604-20.937604v143.422586l20.937604-20.937604H188.438435l20.937604 20.937604v-143.422586l-20.937604 20.937604h40.828328c27.114197 0 27.114197-41.875208 0-41.875208z" fill="#49494A" p-id="12093"></path><path d="M1196.479375 436.386147h369.548708v143.422586h-369.548708z" fill="#F3D24F" p-id="12094"></path><path d="M1312.683076 415.239167h-116.203701a21.461044 21.461044 0 0 0-20.937604 20.937604v143.422586a20.937604 20.937604 0 0 0 20.937604 20.937604h369.44402a20.937604 20.937604 0 0 0 20.937604-20.937604V436.386147a21.461044 21.461044 0 0 0-20.937604-20.937604h-61.556555c-27.114197 0-27.114197 41.875208 0 41.875208h61.556555l-20.937604-20.937604v143.422586l20.937604-20.937604h-369.44402l20.937604 20.937604v-143.422586l-20.937604 20.937604h116.203701c27.114197 0 27.114197-41.875208 0-41.875208z" fill="#49494A" p-id="12095"></path><path d="M1590.734456 356.195124l20.309476 31.72047h-414.564557v-70.350349h314.796874" fill="#BBBCBE" p-id="12096"></path><path d="M1572.518741 366.45455l20.309475 31.406405 18.215716-31.406405h-414.564557l20.937604 20.937604v-69.826909l-20.937604 20.937603h267.059137c27.114197 0 27.218885-41.875208 0-41.875207h-267.059137a20.937604 20.937604 0 0 0-20.937604 20.937604v70.350349a21.461044 21.461044 0 0 0 20.937604 20.937604h414.564557a20.937604 20.937604 0 0 0 18.215715-31.406406l-20.309476-31.406406c-14.656323-22.7173-51.192442-1.675008-36.43143 20.937604z" fill="#49494A" p-id="12097"></path><path d="M1512.113753 338.712224c27.114197 0 27.114197-41.875208 0-41.875207s-27.218885 41.875208 0 41.875207zM1434.225867 415.239167h-28.893894a20.937604 20.937604 0 0 0 0 41.875208H1434.225867a20.937604 20.937604 0 1 0 0-41.875208z" fill="#49494A" p-id="12098"></path></svg>