<?xml version="1.0" standalone="no"?><!DOCTYPE svg PUBLIC "-//W3C//DTD SVG 1.1//EN" "http://www.w3.org/Graphics/SVG/1.1/DTD/svg11.dtd"><svg t="1575526647640" class="icon" viewBox="0 0 1762 1024" version="1.1" xmlns="http://www.w3.org/2000/svg" p-id="11919" xmlns:xlink="http://www.w3.org/1999/xlink" width="344.140625" height="200"><defs><style type="text/css"></style></defs><path d="M711.352343 410.933428C694.74651 318.874845 817.525883 233.043449 892.563488 298.947846c87.284406 76.698188-10.378645 201.968436-110.221212 171.662792-25.946613-7.991557-37.051763 32.692732-11.208937 40.580502 140.630643 42.967591 266.731182-135.545106 151.009288-242.030006C815.657727 170.875364 647.004742 290.64493 670.77184 422.142364c4.774177 26.569332 45.35468 15.256608 40.580503-11.208936z" fill="#49494A" p-id="11920"></path><path d="M841.915699 585.190881c182.664156-21.276223 272.33565-250.12535 123.505878-375.60317-132.327726-111.362863-343.325583-17.124765-366.262389 150.905501-3.632526 26.465545 36.947977 37.985841 40.580503 11.208937 17.124765-126.100539 164.501527-214.630383 277.836332-145.301033 140.734429 86.454115 83.029162 297.867117-75.660324 316.444892-26.569332 3.113594-26.880691 45.147107 0 42.033513zM329.003053 774.393583c16.605832 91.954797-106.17354 177.786192-181.107359 111.881795C60.611288 809.57719 158.793272 684.410729 258.220693 714.716373c25.946613 7.88777 37.051763-32.692732 11.208937-40.580503C128.487628 631.168279 2.802234 809.57719 118.108982 916.06209c106.588686 98.28577 275.137884-21.691368 251.474574-152.877444-4.774177-26.673118-45.35468-15.360395-40.580503 11.208937z" fill="#49494A" p-id="11921"></path><path d="M198.33591 600.032343C15.775541 621.412352-73.99974 850.261479 74.933818 975.635513 207.572904 1087.102163 418.259402 992.864064 441.196208 824.730012c3.632526-26.465545-36.947977-37.882055-40.580503-11.10515-17.228551 125.996753-164.501527 214.526596-277.836332 145.301033-140.838215-86.454115-83.029162-297.867117 75.556537-316.444893 26.673118-3.113594 26.984478-45.250893 0-42.137299zM524.951875 391.525361l249.087485 225.735533c20.030785 18.162629 49.817497-11.520296 29.786711-29.786711l-249.087485-225.735534c-20.030785-18.162629-49.921283 11.520296-29.786711 29.786712zM465.170878 434.285379l249.087485 225.735534c20.030785 18.162629 49.817497-11.520296 29.786712-29.786712L494.95759 404.810027c-20.030785-18.162629-49.921283 11.41651-29.786712 29.682925zM409.748913 474.03559l249.087485 225.735534c20.030785 18.162629 49.921283-11.520296 29.786712-29.786712l-249.087485-225.735533c-20.030785-18.162629-49.817497 11.520296-29.682926 29.786711zM352.043645 515.238812l249.087485 225.735533c20.030785 18.266416 49.921283-11.41651 29.786712-29.682925l-249.087485-225.735533C361.799572 467.081898 332.116647 497.076183 352.043645 515.238812zM292.366436 558.102617l249.087484 225.631746c20.030785 18.162629 49.817497-11.520296 29.682926-29.682925L321.738001 528.315905c-20.030785-18.162629-49.921283 11.520296-29.786711 29.786712zM236.840684 597.749041l249.087485 225.735534c20.030785 18.162629 49.817497-11.520296 29.786711-29.786712l-249.087485-225.631747c-20.030785-18.162629-49.921283 11.520296-29.786711 29.682925z" fill="#49494A" p-id="11922"></path><path d="M887.166592 991.929986l-73.895954-20.134571 5.189323-83.96324 587.431319-402.691434 68.706631 104.097811-587.431319 402.691434z" fill="#ECEBEB" p-id="11923"></path><path d="M1441.905179 540.977852l-36.013899-54.69546-587.535105 402.691434-5.085537 82.821589 628.634541-430.817563z" fill="#BBBCBE" p-id="11924"></path><path d="M897.441451 974.182503l-73.792167-20.030785 15.360395 20.238358 5.189322-83.96324-10.378645 18.162629 587.535105-402.691434-28.852633-7.680197 68.706631 103.786452 7.472624-28.852634-587.431318 402.691434c-22.210301 15.256608-1.141651 51.893226 20.75729 36.325258l587.431319-402.587647a21.380009 21.380009 0 0 0 7.576411-28.852634l-68.706632-103.786452a21.483796 21.483796 0 0 0-28.852633-7.576411L1034.231995 720.320841 838.283173 854.62051c-9.755926 6.642333-27.19205 14.530103-33.315451 25.116322-13.388452 23.455738-6.43476 68.395272-7.991556 94.653244a21.276223 21.276223 0 0 0 15.464181 20.75729l73.792167 20.134572c26.154186 6.642333 37.466909-33.93817 11.208937-41.099435z" fill="#49494A" p-id="11925"></path><path d="M1726.79899 545.648242C1422.912258 85.251541 1129.611744 20.800154 1129.611744 20.800154l83.029162 163.463662 84.689745 60.403715-28.852634 40.788076 72.650517 51.893226-26.569332 36.325258s188.995129 385.566669 219.819706 443.687083c43.175164 82.510229 266.731182-159.104631 192.420082-271.712932z m-238.70884-15.256608a57.290122 57.290122 0 1 1 76.905761-22.936806 56.667403 56.667403 0 0 1-77.424693 22.936806z" fill="#92CAEE" p-id="11926"></path><path d="M1411.495748 563.810871l65.281679-44.005455a57.393908 57.393908 0 0 1-5.604469-64.3476 56.771189 56.771189 0 0 1 76.905761-22.83302A54.69546 54.69546 0 0 1 1570.28902 456.703253l64.036241-43.071378C1367.801652 74.665323 1133.970775 23.291029 1133.970775 23.291029l83.029162 163.463662 84.378386 60.299929-28.852634 40.788075 72.650516 51.893226-26.154186 36.844191s43.278951 88.529844 92.473729 187.230759z" fill="#5DA1D3" p-id="11927"></path><path d="M1409.212446 614.043514c33.523024 67.668767 64.555173 137.517049 101.399364 203.525233 15.152822 27.19205 33.93817 42.552445 66.838475 36.117685 83.029162-16.502046 155.056959-125.78918 177.059687-200.826785a146.338897 146.338897 0 0 0-15.152822-126.308112 1637.231282 1637.231282 0 0 0-166.058323-215.149315c-85.104891-94.860817-182.24901-181.626291-292.574008-246.181464-44.835747-26.154186-94.860817-53.034877-146.027538-64.555173a21.276223 21.276223 0 0 0-23.767098 31.135935c25.220108 49.402351 49.194778 99.73878 75.452751 148.6222 20.030785 37.363123 65.385465 58.327986 99.427421 83.029161l-7.576411-28.852634-28.852634 40.788076a21.483796 21.483796 0 0 0 7.472625 28.852634l72.650516 51.893226-7.472624-28.748847-25.635254 35.910112a20.75729 20.75729 0 0 0 0 20.75729q41.514581 84.793531 83.029162 169.69085c12.039228 24.28603 48.2607 3.009807 36.325258-20.757291q-41.514581-84.897318-83.029162-169.587062v20.75729l26.0504-36.844191a21.380009 21.380009 0 0 0-7.576411-28.748847l-72.650517-51.893226 7.576411 28.748847 28.852634-40.788075a21.380009 21.380009 0 0 0-7.576411-28.748847l-62.271871-44.731961c-6.642333-4.774177-25.116321-23.870884-14.63389-8.718062a212.65844 212.65844 0 0 1-11.831656-23.248166Q1183.165554 80.062218 1147.774374 10.421509l-23.767098 31.135936c109.079561 24.182243 212.9698 103.786452 294.753524 175.399104a1481.136458 1481.136458 0 0 1 284.271092 330.871209c49.090992 79.604209-22.625447 182.041437-83.859453 234.764954-11.727869 10.378645-33.315451 29.579139-50.02507 29.890499s-18.266416-8.821848-25.946613-23.663311c-33.730597-64.65896-65.281678-130.667143-97.663051-196.052608-12.039228-24.28603-48.364487-3.009807-36.325259 20.75729z" fill="#49494A" p-id="11928"></path><path d="M1498.261222 512.229005c-38.297201-23.663311-5.915828-85.520037 34.353316-63.828668s6.227187 83.859453-34.353316 63.828668c-24.493603-11.935442-45.250893 24.389816-21.276222 36.429044a78.358771 78.358771 0 1 0-28.852634-106.17354 79.189063 79.189063 0 0 0 28.852634 106.17354c23.040592 14.218744 44.213029-22.106514 21.276222-36.429044zM1142.481264 922.081704c27.088264 0 27.088264-41.514581 0-41.514581s-27.088264 41.514581 0 41.514581zM1273.355981 785.810092l-86.038969 58.950705c-22.210301 15.256608-1.141651 51.893226 20.75729 36.325258l86.038969-58.950704c22.210301-15.256608 1.141651-51.893226-20.75729-36.325259zM1390.738458 705.790738l-47.430409 32.485159a21.691368 21.691368 0 0 0-7.576411 28.852634 21.380009 21.380009 0 0 0 28.852634 7.472625l46.911476-32.588946a21.483796 21.483796 0 0 0 7.576411-28.748848A20.75729 20.75729 0 0 0 1390.738458 705.790738z" fill="#49494A" p-id="11929"></path></svg>