<?xml version="1.0" standalone="no"?><!DOCTYPE svg PUBLIC "-//W3C//DTD SVG 1.1//EN" "http://www.w3.org/Graphics/SVG/1.1/DTD/svg11.dtd"><svg t="1575526568913" class="icon" viewBox="0 0 1512 1024" version="1.1" xmlns="http://www.w3.org/2000/svg" p-id="9334" xmlns:xlink="http://www.w3.org/1999/xlink" width="295.3125" height="200"><defs><style type="text/css"></style></defs><path d="M1390.575848 857.021817A133.519615 133.519615 0 0 0 1257.056233 723.711974H255.921336a133.414729 133.414729 0 0 0-133.414729 133.309843v10.488579h1268.069241z" fill="#93C8A5" p-id="9335"></path><path d="M359.548499 825.556079H179.879136v-10.488579a132.8903 132.8903 0 0 1 28.948478-82.859777 133.414729 133.414729 0 0 0-86.321007 124.814094v10.488579h1268.069241v-41.954317z" fill="#66C089" p-id="9336"></path><path d="M21.082044 923.834067h1470.708594v79.083889H21.082044z" fill="#92CAEE" p-id="9337"></path><path d="M21.082044 963.376011h1470.708594v39.541945H21.082044z" fill="#5DA1D3" p-id="9338"></path><path d="M283.191642 902.752023H20.977159a20.977159 20.977159 0 0 0-20.977159 20.977159v79.083888a20.977159 20.977159 0 0 0 20.977159 20.977158h1470.918365a20.977159 20.977159 0 0 0 20.977159-20.977158v-78.979003a20.977159 20.977159 0 0 0-20.977159-20.977158H434.017413c-27.270306 0-27.270306 41.954317 0 41.954317h1057.878111l-20.977159-20.977159v79.083889l20.977159-20.977159H20.977159l20.977158 20.977159v-79.083889l-20.977158 20.977159h262.214483c27.16542 0 27.270306-41.954317 0-41.954317z" fill="#49494A" p-id="9339"></path><path d="M352.101608 945.020998c27.270306 0 27.270306-41.954317 0-41.954318s-27.16542 41.954317 0 41.954318zM545.406125 888.592441h845.064837a20.977159 20.977159 0 0 0 20.977158-20.977159c0-91.670183-63.665677-161.838779-156.489603-164.985353-58.526273-2.097716-117.367203 0-175.893476 0-27.16542 0-27.270306 41.954317 0 41.954318 104.885793 0 290.114104-32.829253 290.114105 122.821264l20.977158-20.977159H545.406125c-27.270306 0-27.270306 41.954317 0 41.954317zM490.550855 702.734815c-72.685855 0-145.37171-1.048858-217.847792 0-98.173103 0.943972-171.173615 62.931476-171.173615 164.985353a21.501588 21.501588 0 0 0 20.977159 20.977159h311.510806c27.16542 0 27.16542-41.954317 0-41.954318h-311.510806l20.977158 20.977159c0-67.441565 43.422718-119.360033 112.332685-122.821264 20.977159-0.943972 41.954317 0 62.931476 0h171.802929c27.16542 0 27.16542-41.954317 0-41.954317zM562.397624 744.689132c27.16542 0 27.16542-41.954317 0-41.954317s-27.270306 41.954317 0 41.954317z" fill="#49494A" p-id="9340"></path><path d="M931.385845 702.734815H646.411144c-27.16542 0-27.270306 41.954317 0 41.954317H931.385845c27.16542 0 27.16542-41.954317 0-41.954317z" fill="#49494A" p-id="9341"></path><path d="M989.912117 94.921643c-289.48479 21.921131-323.048243-106.249309-421.326232-64.924306l-20.977158 7.97132-2.202602 89.572468-152.503943 56.952985-64.190106-65.134077c-51.60381 19.298986-42.793404 63.560791-23.599303 115.374372L338.885998 325.145959A255.501792 255.501792 0 0 1 367.100277 312.349892c177.152105-65.973164 293.680221 68.595309 835.625115-133.309843 0 0-27.794735-47.513264-43.422719-59.994674-70.693025-56.113899-114.220629-28.214278-169.390556-24.123732zM400.453959 401.817474a225.294684 225.294684 0 0 0-28.004507 12.586295c1.153744 3.461231 2.307487 6.922462 3.671003 10.48858L413.14514 524.428967c19.928301 53.281983 41.954317 69.224624 80.971832 61.253303L506.493496 618.82618l47.61815-17.725699-11.642323-31.465738c15.837755-5.873604 30.521766-11.432551 43.737376-16.571955l11.747209 31.465738L645.572058 566.383284l-11.747209-31.465738 2.727031-1.048858c85.691693-31.465738 15.627983-68.80508 83.279319-94.397214s145.161938-27.16542 212.708389-43.317833l20.977159 55.484585 47.61815-17.725699-18.4599-49.61098c20.977159-4.929632 41.220117-9.859265 60.938646-14.998669l15.732869 43.317833 47.618151-17.725699-14.47424-38.283315c16.991499-5.139404 33.458568-10.488579 48.981665-16.152412 3.461231-1.25863 6.712691-2.622145 10.48858-3.98566l13.740039 37.024685 47.61815-17.725699-17.620813-46.044863c36.290484-31.465738 24.648161-79.503431 24.648161-79.503432C679.659941 431.500154 577.501178 335.634539 400.453959 401.817474z" fill="#F3D24F" p-id="9342"></path><path d="M411.257196 255.082249a178.305849 178.305849 0 0 0-35.346513 10.48858L346.123118 186.067397a187.430913 187.430913 0 0 1-14.998669-64.504763l-2.622144-2.72703c-51.60381 19.298986-42.793404 63.560791-23.599304 115.374372l33.773226 90.51644A255.501792 255.501792 0 0 1 367.100277 311.825463c177.256991-65.973164 293.680221 68.595309 835.730001-133.519614 0 0-16.362184-26.116563-25.69702-40.171259-492.4388 171.488272-587.884871 74.678685-765.876062 116.947659zM546.664755 567.641913l-1.25863-9.229949c-39.541944 7.97132-71.322339-29.053365-91.145754-82.440234l-30.836423-82.545119c-7.551777 2.307487-15.20844 4.929632-23.074875 7.866434a225.294684 225.294684 0 0 0-28.004507 12.586295c1.153744 3.461231 2.307487 6.922462 3.671003 10.48858L413.14514 524.428967c19.928301 53.281983 41.954317 69.224624 80.971832 61.253303l12.376524 32.934139 47.61815-17.725699-11.642323-31.465738z" fill="#BFAD65" p-id="9343"></path><path d="M423.528833 318.538154a362.590187 362.590187 0 0 1 55.274813-5.349175c27.16542-0.839086 27.270306-43.108061 0-41.954318a456.567858 456.567858 0 0 0-66.497593 6.817577A20.977159 20.977159 0 0 0 397.517157 304.168801a21.711359 21.711359 0 0 0 26.011676 14.788896z" fill="#49494A" p-id="9344"></path><path d="M700.322442 28.633822C640.957083 2.307487 602.988426-5.24429 542.154666 17.411042a22.130902 22.130902 0 0 0-15.523098 20.347844l-1.258629 89.572467 15.418211-20.347844L388.077435 163.936495l20.977159 5.454061-64.81942-65.134077a21.711359 21.711359 0 0 0-25.592134-3.356346C224.875141 144.427737 293.680221 262.214483 319.167469 330.495135a21.501588 21.501588 0 0 0 31.465738 12.586295 220.260166 220.260166 0 0 1 20.138072-9.439722c24.753047-10.488579 3.25146-47.408379-20.977158-36.500256q-10.488579 4.300318-20.138073 9.439722l31.465738 12.586295c-16.46707-44.261805-78.03503-154.706545-19.823415-181.76708L314.65738 134.14893 378.532828 199.283007a20.977159 20.977159 0 0 0 20.977159 5.349176l153.028372-56.952986a21.921131 21.921131 0 0 0 15.418212-20.347844l1.363515-89.572467-15.942641 20.347843c47.408379-17.620813 79.29366-13.425382 125.862952 7.027349 24.648161 10.488579 46.149749-25.487248 20.977159-36.500256zM228.860801 281.303698l18.040356 49.401208a21.606473 21.606473 0 0 0 25.801906 14.684011 20.977159 20.977159 0 0 0 14.684011-25.906791l-17.935471-49.401208a21.816245 21.816245 0 0 0-26.011677-14.788897 20.977159 20.977159 0 0 0-14.788897 26.011677zM129.638841 245.222985c27.16542 0 27.16542-41.954317 0-41.954318s-27.270306 41.954317 0 41.954318zM272.703063 50.345181a123.555465 123.555465 0 0 0-78.874117 103.20762 20.977159 20.977159 0 0 0 41.954317 0 78.244802 78.244802 0 0 1 47.827922-62.931476c24.962819-10.488579 14.054696-50.974496-11.22278-40.800573zM787.587422 59.994674c-15.523097-3.98566-30.731537-8.810407-45.835092-14.264468a20.977159 20.977159 0 1 0-11.22278 40.695688c14.998668 5.558947 30.311994 10.488579 45.730206 14.369353 26.326334 6.922462 37.549114-33.878111 11.327666-40.800573zM849.574926 114.115743c27.16542 0 27.270306-41.954317 0-41.954317s-27.270306 41.954317 0 41.954317z" fill="#49494A" p-id="9345"></path><path d="M564.390454 315.181809C788.426508 325.145959 999.351839 276.583837 1209.018539 199.283007a20.977159 20.977159 0 0 0 12.691181-31.465738c-27.689849-46.779064-59.155587-87.055208-114.745057-101.109904a181.662194 181.662194 0 0 0-73.420056 0A732.941924 732.941924 0 0 1 902.017822 75.727543c-27.16542-0.629315-27.16542 41.954317 0 41.954317 55.379699 1.25863 107.403052-10.488579 161.838779-12.691181 59.365359-2.517259 94.397214 37.654 121.877292 83.908635l12.586295-31.465738C991.59029 234.62952 784.860391 283.191642 564.390454 272.703063c-27.16542-1.25863-27.16542 41.010345 0 41.954317z" fill="#49494A" p-id="9346"></path><path d="M1010.259961 274.591007a1702.401311 1702.401311 0 0 1-357.555669 68.385537c-99.117075 6.817577-198.653693 4.300318-290.323876 48.771894a20.977159 20.977159 0 0 0-9.754379 23.913961c10.488579 29.68268 21.816245 59.050702 32.829253 88.523609 9.334836 25.17259 50.240295 14.264468 40.695688-11.222779-11.013008-29.472908-22.340674-58.84093-32.724367-88.52361l-9.754379 23.809075c93.138584-45.205777 199.807436-36.605142 300.392912-45.520434a1770.891734 1770.891734 0 0 0 337.417597-67.441565c26.116563-7.551777 14.998668-48.352351-11.22278-40.695688zM1131.612824 337.417597l13.844925 37.024685a20.977159 20.977159 0 0 0 26.011676 14.788897l47.618151-17.830585a20.977159 20.977159 0 0 0 14.788896-25.906791L1216.675202 299.763597l-5.349175 20.977159a106.144423 106.144423 0 0 0 30.207108-100.48059 20.977159 20.977159 0 0 0-26.011676-14.684011c-27.480078 10.488579-54.960156 20.033187-82.54512 29.577794-25.487248 8.810407-14.579125 49.715866 11.22278 40.695687 27.584964-9.544607 55.169927-19.403872 82.545119-29.577793l-26.011676-14.788897a62.931476 62.931476 0 0 1-19.1941 59.050701 20.977159 20.977159 0 0 0-5.454062 20.977159l16.991499 45.100891 14.788897-26.011677-47.618151 17.7257 25.906791 14.788896-13.740038-37.024685c-9.439721-25.277476-50.240295-14.369354-40.800574 11.22278zM1023.475571 371.085937l15.942641 42.793403a20.977159 20.977159 0 0 0 26.011676 14.788897l47.618151-17.725699a20.977159 20.977159 0 0 0 14.788896-26.011677l-14.369353-38.807743a21.711359 21.711359 0 0 0-26.011677-14.788897 20.977159 20.977159 0 0 0-14.788897 26.011677l14.47424 38.597972 14.684011-26.011677-47.618151 18.145242 26.011677 14.684011-15.94264-42.793403A21.816245 21.816245 0 0 0 1038.369354 345.07426a20.977159 20.977159 0 0 0-14.788897 26.011677zM878.838062 423.948377c20.138072-3.146574 40.066373-6.712691 59.994674-11.22278L912.506402 397.9367l20.977158 55.484584a20.977159 20.977159 0 0 0 26.011677 14.788897l47.408379-17.830585a20.977159 20.977159 0 0 0 14.788897-25.906791l-18.564786-49.61098c-9.334836-25.277476-50.240295-14.369354-40.695688 11.22278l18.4599 49.61098L996.415036 409.683909l-47.61815 17.725699 25.906791 14.788897-20.977159-55.484585a21.711359 21.711359 0 0 0-25.90679-14.788897c-19.928301 4.614975-39.856601 8.076206-59.994674 11.327666-26.850763 4.195432-15.418212 44.89112 11.22278 40.695688z" fill="#49494A" p-id="9347"></path><path d="M666.549216 556.838677l-11.747208-31.465738L639.803339 551.174844c29.368022-10.488579 57.792072-26.116563 65.029192-58.84093 2.097716-9.020178 0-19.718529 5.97849-27.584964 13.844925-18.564785 61.882618-22.760217 82.859777-27.16542 26.640991-5.454061 15.418212-46.149749-11.22278-40.695688-35.031855 7.23712-90.935983 14.369354-110.44474 50.030523a104.885793 104.885793 0 0 0-7.551777 31.465738C660.780498 497.473318 647.355116 503.451808 629.31476 510.37427a21.606473 21.606473 0 0 0-14.788897 26.011677l11.852095 31.465738c9.334836 25.277476 50.240295 14.264468 40.695687-11.22278zM575.088805 590.926559l-11.537438-31.465738-14.788896 26.011677 43.737375-16.571955L566.383284 554.426303l11.642323 31.465738a21.816245 21.816245 0 0 0 26.011677 14.788897A20.977159 20.977159 0 0 0 618.82618 574.564376l-11.747208-31.465738a20.977159 20.977159 0 0 0-25.906791-14.684011L537.539691 545.406125a20.977159 20.977159 0 0 0-14.788897 25.906791l11.537437 31.465738a21.816245 21.816245 0 0 0 26.011677 14.788897 20.977159 20.977159 0 0 0 14.788897-26.011677zM419.543173 575.19369c20.977159 26.43122 49.715866 32.304824 81.391376 26.43122L474.398443 587.360442l12.271638 32.514596c9.439721 25.277476 50.345181 14.369354 40.800574-11.222779l-12.271638-32.93414a21.921131 21.921131 0 0 0-26.011677-14.788896A36.290484 36.290484 0 0 1 448.911195 545.406125a20.977159 20.977159 0 0 0-29.368022 0 21.711359 21.711359 0 0 0 0 29.892451zM1063.961487 301.44177c27.16542 0 27.16542-41.954317 0-41.954317s-27.270306 41.954317 0 41.954317zM356.611697 426.150978l29.158251 78.03503c9.334836 25.17259 50.240295 14.264468 40.695688-11.222779l-29.053365-78.035031c-9.439721-25.277476-50.240295-14.369354-40.800574 11.22278zM301.756427 448.281881l18.564786 49.715866 40.800573-11.22278c-1.153744-2.831916-2.202602-5.768719-3.251459-8.600635-9.439721-25.17259-50.240295-14.369354-40.695688 11.22278 4.510089 12.376524 9.125064 24.648161 13.740039 36.919799 9.334836 25.277476 50.240295 14.264468 40.695688-11.22278-4.614975-12.271638-9.22995-24.648161-13.740039-36.919799l-40.695688 11.22278 3.146574 8.600635c9.439721 25.277476 50.240295 14.369354 40.800573-11.22278l-18.564785-49.715866c-9.439721-25.277476-50.240295-14.369354-40.800574 11.22278zM372.973881 602.88354c27.270306 0 27.270306-41.954317 0-41.954317s-27.16542 41.954317 0 41.954317z" fill="#49494A" p-id="9348"></path><path d="M877.369661 460.553518l-116.842774 21.082045-101.424562 174.634846h342.347229V547.818498l-124.079893-37.968657v-49.296323z" fill="#8D8E91" p-id="9349"></path><path d="M1022.636485 723.711974V547.818498a21.606473 21.606473 0 0 0-15.732869-20.347843l-123.870122-38.073543 15.523097 20.977158v-49.296323c0-27.270306-41.954317-27.270306-41.954317 0v49.296323a21.606473 21.606473 0 0 0 15.523097 20.347844L996.415036 568.166342l-15.523097-20.347844V723.711974c0 27.16542 41.954317 27.270306 41.954317 0zM659.102325 677.352453h235.993035c27.270306 0 27.270306-41.954317 0-41.954317h-235.993035c-27.16542 0-27.270306 41.954317 0 41.954317zM699.902899 607.078972c27.270306 0 27.270306-41.954317 0-41.954318s-27.16542 41.954317 0 41.954318zM742.276759 470.937212l-22.865103 39.332172c-13.635153 23.599303 22.865103 44.89112 36.500256 20.977159l22.865103-39.227287c13.635153-23.599303-22.865103-44.89112-36.500256-20.977158zM1351.138789 43.527604l-98.277988 56.1139c-23.599303 13.530267-2.307487 50.030523 20.977159 36.500256l98.277988-56.1139c23.599303-13.425382 2.307487-50.030523-20.977159-36.500256z" fill="#49494A" p-id="9350"></path><path d="M1291.563659 20.977159v138.344361c0 27.16542 41.954317 27.270306 41.954317 0V20.977159c0-27.270306-41.954317-27.270306-41.954317 0z" fill="#49494A" p-id="9351"></path><path d="M1372.430605 99.641504l-98.277988-56.1139c-23.599303-13.425382-44.89112 22.969989-20.977159 36.500256l97.963331 56.323671c23.599303 13.530267 44.89112-22.969989 20.977159-36.500256zM717.943255 55.379699l-38.3882 76.147086c-12.271638 24.228618 24.228618 45.62532 36.500256 20.977158l38.283314-76.147085c12.271638-23.913961-24.228618-44.89112-36.39537-20.977159zM831.219912 82.335348l-38.3882 76.147086c-12.166752 24.228618 24.228618 45.62532 36.500256 20.977158l38.3882-76.147086c12.166752-24.228618-24.228618-45.62532-36.500256-20.977158z" fill="#49494A" p-id="9352"></path></svg>