<?xml version="1.0" standalone="no"?><!DOCTYPE svg PUBLIC "-//W3C//DTD SVG 1.1//EN" "http://www.w3.org/Graphics/SVG/1.1/DTD/svg11.dtd"><svg t="1575526559559" class="icon" viewBox="0 0 2013 1024" version="1.1" xmlns="http://www.w3.org/2000/svg" p-id="8995" xmlns:xlink="http://www.w3.org/1999/xlink" width="393.1640625" height="200"><defs><style type="text/css"></style></defs><path d="M298.503872 90.449283h398.568569v286.03529H298.503872zM1124.487568 376.484573H770.615316V90.449283h312.451553l41.420699 286.03529z" fill="#ECEBEB" p-id="8996"></path><path d="M1848.398826 788.789599a219.360644 219.360644 0 1 1-219.360644-219.254979 219.360644 219.360644 0 0 1 219.360644 219.254979z" fill="#49494A" p-id="8997"></path><path d="M1629.038182 613.702611v-37.933753" fill="#F3D24F" p-id="8998"></path><path d="M1650.488187 613.702611v-37.933753a21.13301 21.13301 0 1 0-42.26602 0v37.933753a21.13301 21.13301 0 1 0 42.26602 0z" fill="#49494A" p-id="8999"></path><path d="M1629.038182 1001.916005v-38.039418" fill="#F3D24F" p-id="9000"></path><path d="M1650.488187 1001.916005v-38.039418a21.13301 21.13301 0 1 0-42.26602 0v38.039418a21.13301 21.13301 0 0 0 42.26602 0z" fill="#49494A" p-id="9001"></path><path d="M1804.12517 788.789599h38.039418" fill="#F3D24F" p-id="9002"></path><path d="M1804.12517 810.239604h38.039418a21.13301 21.13301 0 0 0 0-42.900011h-38.039418a21.13301 21.13301 0 0 0 0 42.900011z" fill="#49494A" p-id="9003"></path><path d="M1416.017441 788.789599h38.039418" fill="#F3D24F" p-id="9004"></path><path d="M1415.911776 810.239604h38.039418a21.13301 21.13301 0 0 0 0-42.900011H1415.911776a21.13301 21.13301 0 0 0 0 42.900011z" fill="#49494A" p-id="9005"></path><path d="M1505.304409 665.055825l-26.838923-26.944588" fill="#F3D24F" p-id="9006"></path><path d="M1520.414511 649.840058l-26.838923-26.416263a21.13301 21.13301 0 0 0-30.325869 30.220205l26.627592 26.521927a21.13301 21.13301 0 0 0 30.32587-30.325869z" fill="#49494A" p-id="9007"></path><path d="M1779.716544 939.46796l-26.838923-26.838923" fill="#F3D24F" p-id="9008"></path><path d="M1794.826646 924.357858l-26.838923-26.944588a21.13301 21.13301 0 0 0-30.325869 30.325869l26.944587 26.838923a21.13301 21.13301 0 0 0 30.220205-30.220204z" fill="#49494A" p-id="9009"></path><path d="M1752.877621 665.055825l26.838923-26.944588" fill="#F3D24F" p-id="9010"></path><path d="M1767.987723 680.165927l26.838923-26.944588A21.13301 21.13301 0 1 0 1764.606441 623.423795l-26.944587 26.838923a21.13301 21.13301 0 0 0 30.325869 30.325869z" fill="#49494A" p-id="9011"></path><path d="M1478.465486 939.46796l26.838923-26.838923" fill="#F3D24F" p-id="9012"></path><path d="M1493.575588 954.578062l26.838923-26.838923a21.13301 21.13301 0 0 0-30.5372-30.325869l-26.838922 26.838923a21.13301 21.13301 0 0 0 30.325869 30.325869z" fill="#49494A" p-id="9013"></path><path d="M1696.980809 627.439067l14.793107-34.975131" fill="#F3D24F" p-id="9014"></path><path d="M1717.691159 633.14498l15.215767-34.975132a21.13301 21.13301 0 0 0-14.898772-26.416262 22.189661 22.189661 0 0 0-26.416262 15.004437l-14.687442 34.975131a21.13301 21.13301 0 0 0 14.898772 26.416263 22.189661 22.189661 0 0 0 26.416262-15.004437z" fill="#49494A" p-id="9015"></path><path d="M1546.408113 985.220927l14.687442-35.080797" fill="#F3D24F" p-id="9016"></path><path d="M1567.012798 990.821174l14.793107-34.975131a21.13301 21.13301 0 0 0-15.004437-26.416263 22.083995 22.083995 0 0 0-26.310598 15.004437l-14.793107 35.080797a21.13301 21.13301 0 0 0 15.004437 26.310597 21.97833 21.97833 0 0 0 26.310598-15.004437z" fill="#49494A" p-id="9017"></path><path d="M1790.388714 856.732226l35.080796 14.793107" fill="#F3D24F" p-id="9018"></path><path d="M1784.682801 877.019915l35.080797 14.687442a21.13301 21.13301 0 0 0 26.310597-14.687442 22.083995 22.083995 0 0 0-15.004437-26.416262L1796.305956 836.127541a21.13301 21.13301 0 0 0-26.310597 14.898772A22.189661 22.189661 0 0 0 1784.682801 877.019915z" fill="#49494A" p-id="9019"></path><path d="M1432.712519 706.053864l35.080797 14.793107" fill="#F3D24F" p-id="9020"></path><path d="M1427.006607 726.764214l35.080796 14.687442a21.13301 21.13301 0 0 0 26.310598-14.898772 22.189661 22.189661 0 0 0-15.004437-26.416262l-34.975132-14.687442a21.13301 21.13301 0 0 0-26.416263 14.898772 22.189661 22.189661 0 0 0 15.004438 26.416262z" fill="#49494A" p-id="9021"></path><path d="M1562.997526 626.699412l-14.264782-35.186462" fill="#F3D24F" p-id="9022"></path><path d="M1583.707876 620.993499l-14.370447-35.186462A22.083995 22.083995 0 0 0 1542.709836 570.59127a21.13301 21.13301 0 0 0-15.004437 26.310598l15.004437 35.503457a21.97833 21.97833 0 0 0 26.310598 14.898772 21.13301 21.13301 0 0 0 15.004437-26.310598z" fill="#49494A" p-id="9023"></path><path d="M1709.449285 986.171912l-14.370446-35.292127" fill="#F3D24F" p-id="9024"></path><path d="M1730.05397 980.465999l-14.264782-35.292126a22.083995 22.083995 0 0 0-26.416262-14.898772 21.13301 21.13301 0 0 0-14.898772 26.310597l14.264782 35.292127a22.083995 22.083995 0 0 0 26.416262 14.898772 21.13301 21.13301 0 0 0 14.898772-26.310598z" fill="#49494A" p-id="9025"></path><path d="M1791.234034 722.748942l35.186462-14.370446" fill="#F3D24F" p-id="9026"></path><path d="M1796.939947 743.459292l35.186461-14.370447a21.97833 21.97833 0 0 0 14.898772-26.310597 21.13301 21.13301 0 0 0-26.310597-15.004437L1785.739451 702.144258a21.97833 21.97833 0 0 0-15.004437 26.310597 21.13301 21.13301 0 0 0 26.416263 15.004437z" fill="#49494A" p-id="9027"></path><path d="M1431.761534 869.200702l35.186461-14.370447" fill="#F3D24F" p-id="9028"></path><path d="M1437.044786 889.805386l35.186462-14.264781a22.083995 22.083995 0 0 0 14.898772-26.416263 21.13301 21.13301 0 0 0-26.310597-15.004437L1426.478281 848.490352a22.189661 22.189661 0 0 0-15.004437 26.310597 21.13301 21.13301 0 0 0 26.416263 15.004437z" fill="#49494A" p-id="9029"></path><path d="M1629.038182 790.480239m-78.826127 0a78.826127 78.826127 0 1 0 157.652255 0 78.826127 78.826127 0 1 0-157.652255 0Z" fill="#ECEBEB" p-id="9030"></path><path d="M1733.435252 790.480239c-7.185223 133.666288-208.688474 134.828604-208.688474 0s201.50325-133.771953 208.688474 0c1.479311 27.472913 44.379321 27.578578 42.26602 0-4.226602-79.882778-63.39903-147.191415-147.191415-147.191414a147.08575 147.08575 0 0 0-6.868228 294.065834c86.011351 3.909607 149.621711-64.24435 154.059643-146.87442 2.113301-27.578578-40.786709-27.472913-42.26602 0z" fill="#F3D24F" p-id="9031"></path><path d="M786.570738 788.789599a219.994634 219.994634 0 1 1-219.994634-219.994635 219.994634 219.994634 0 0 1 219.994634 219.994635z" fill="#49494A" p-id="9032"></path><path d="M566.576104 613.174285v-38.145083" fill="#F3D24F" p-id="9033"></path><path d="M588.026109 612.85729v-37.828088a21.13301 21.13301 0 1 0-42.90001 0V612.85729a21.13301 21.13301 0 0 0 42.90001 0z" fill="#49494A" p-id="9034"></path><path d="M566.576104 1002.549995v-38.145083" fill="#F3D24F" p-id="9035"></path><path d="M588.026109 1002.549995v-38.145083a21.13301 21.13301 0 0 0-42.90001 0v38.145083a21.13301 21.13301 0 0 0 42.90001 0z" fill="#49494A" p-id="9036"></path><path d="M742.191417 788.789599h38.145083" fill="#F3D24F" p-id="9037"></path><path d="M742.191417 810.239604h38.145083a21.13301 21.13301 0 0 0 0-42.900011h-38.145083a21.13301 21.13301 0 1 0 0 42.900011z" fill="#49494A" p-id="9038"></path><path d="M352.815708 788.789599H390.960791" fill="#F3D24F" p-id="9039"></path><path d="M352.815708 810.239604H390.960791a21.13301 21.13301 0 0 0 0-42.900011h-38.145083a21.13301 21.13301 0 0 0 0 42.900011z" fill="#49494A" p-id="9040"></path><path d="M442.41967 664.633165l-26.944588-26.944588" fill="#F3D24F" p-id="9041"></path><path d="M457.529772 649.417398l-26.944587-26.944588a21.13301 21.13301 0 1 0-30.32587 30.325869l26.944588 26.944588a21.13301 21.13301 0 0 0 30.325869-30.325869z" fill="#49494A" p-id="9042"></path><path d="M717.677126 939.89062l-26.944588-26.944588" fill="#F3D24F" p-id="9043"></path><path d="M732.892893 924.780518L705.84264 898.152925a21.13301 21.13301 0 0 0-30.220204 0 21.767 21.767 0 0 0 0 30.32587l26.944587 26.944588a21.13301 21.13301 0 0 0 30.32587-30.32587z" fill="#49494A" p-id="9044"></path><path d="M690.732538 664.633165l26.944588-26.944588" fill="#F3D24F" p-id="9045"></path><path d="M705.84264 679.743267l27.050253-26.944588a21.13301 21.13301 0 0 0-30.32587-30.325869l-26.944587 26.944588a21.13301 21.13301 0 0 0 30.220204 30.325869z" fill="#49494A" p-id="9046"></path><path d="M415.369417 939.89062l27.050253-26.944588" fill="#F3D24F" p-id="9047"></path><path d="M430.585185 955.106387l26.944587-26.944587A21.13301 21.13301 0 0 0 427.203903 898.152925l-26.944588 26.944588a21.13301 21.13301 0 1 0 30.32587 30.32587z" fill="#49494A" p-id="9048"></path><path d="M634.730061 626.910742l14.793107-35.080797" fill="#F3D24F" p-id="9049"></path><path d="M655.123416 632.616655l14.793107-35.080797a21.13301 21.13301 0 0 0-14.793107-26.416262 22.189661 22.189661 0 0 0-26.416263 15.004437l-14.793107 35.080796a21.13301 21.13301 0 0 0 15.004438 26.416263A22.083995 22.083995 0 0 0 655.123416 632.616655z" fill="#49494A" p-id="9050"></path><path d="M483.62904 985.749252l14.793107-35.080797" fill="#F3D24F" p-id="9051"></path><path d="M504.233724 991.455165l14.793107-35.080797A21.13301 21.13301 0 0 0 504.128059 929.85244a22.189661 22.189661 0 0 0-26.416262 15.004438l-14.793107 35.186461a21.13301 21.13301 0 0 0 15.004437 26.310598 22.083995 22.083995 0 0 0 26.310597-15.004437z" fill="#49494A" p-id="9052"></path><path d="M728.349296 856.943556l35.186461 14.793107" fill="#F3D24F" p-id="9053"></path><path d="M722.643383 877.653906l35.186462 14.793107a21.13301 21.13301 0 0 0 26.416262-15.427098 22.083995 22.083995 0 0 0-15.004437-26.310597l-35.186462-14.793107A21.13301 21.13301 0 0 0 707.955941 851.237643a22.083995 22.083995 0 0 0 14.898772 26.416263z" fill="#49494A" p-id="9054"></path><path d="M369.616451 705.842534l35.080796 14.793107" fill="#F3D24F" p-id="9055"></path><path d="M363.910538 726.447219l35.080797 14.793107a21.13301 21.13301 0 0 0 26.416262-14.898772 22.189661 22.189661 0 0 0-15.004437-26.416262l-35.186462-14.793107A21.13301 21.13301 0 0 0 348.694771 700.136622a22.083995 22.083995 0 0 0 15.004437 26.310597z" fill="#49494A" p-id="9056"></path><path d="M500.324118 626.171087l-14.370447-35.292127" fill="#F3D24F" p-id="9057"></path><path d="M520.928802 620.465174l-14.370446-35.292127A22.083995 22.083995 0 0 0 480.247758 570.59127 21.13301 21.13301 0 0 0 464.926326 596.479208l14.370447 35.397791a22.295326 22.295326 0 0 0 26.416262 15.004437 21.13301 21.13301 0 0 0 14.898772-26.416262z" fill="#49494A" p-id="9058"></path><path d="M647.198537 986.805902l-14.370447-35.397791" fill="#F3D24F" p-id="9059"></path><path d="M667.803222 981.09999l-14.370447-35.397792a21.97833 21.97833 0 0 0-26.310597-14.898772 21.13301 21.13301 0 0 0-15.004437 26.310597l14.370446 35.397792a22.083995 22.083995 0 0 0 26.416263 14.898772 21.13301 21.13301 0 0 0 14.898772-26.310597z" fill="#49494A" p-id="9060"></path><path d="M729.194616 722.537612l35.292127-14.370447" fill="#F3D24F" p-id="9061"></path><path d="M734.900529 743.247962L770.192655 729.088845a22.083995 22.083995 0 0 0 15.004438-26.310597 21.767 21.767 0 0 0-26.416263-15.004437l-35.292127 14.476112a22.189661 22.189661 0 0 0-15.004437 26.310597 21.767 21.767 0 0 0 26.416263 15.004437z" fill="#49494A" p-id="9062"></path><path d="M368.665465 869.412032l35.292127-14.370447" fill="#F3D24F" p-id="9063"></path><path d="M374.265713 890.016717l35.397792-14.264782a22.083995 22.083995 0 0 0 14.898772-26.416263A21.13301 21.13301 0 0 0 398.251679 834.753895l-35.292126 14.370447a22.189661 22.189661 0 0 0-15.004438 26.416263 21.13301 21.13301 0 0 0 26.310598 14.898772z" fill="#49494A" p-id="9064"></path><path d="M670.973173 790.480239c-7.290888 133.666288-208.794139 134.828604-208.794138 0s201.50325-133.666288 208.794138 0c1.479311 27.472913 44.273656 27.578578 42.26602 0-4.332267-79.882778-63.39903-147.191415-147.191414-147.191414A147.08575 147.08575 0 0 0 560.024871 937.354659c86.011351 3.909607 149.621711-64.24435 154.059643-146.87442 1.162316-27.578578-41.63203-27.472913-43.111341 0z" fill="#F3D24F" p-id="9065"></path><path d="M566.576104 790.480239m-78.826127 0a78.826127 78.826127 0 1 0 157.652254 0 78.826127 78.826127 0 1 0-157.652254 0Z" fill="#ECEBEB" p-id="9066"></path><path d="M1779.505213 264.05696l-548.401609-58.644103 14.053451 110.736973h534.348158v-52.09287z" fill="#92CAEE" p-id="9067"></path><path d="M1800.955219 316.14983V264.162625a22.083995 22.083995 0 0 0-21.13301-21.13301l-548.40161-58.644103a21.13301 21.13301 0 0 0-21.13301 21.13301l5.494582 43.322671c3.486947 26.944588 46.386957 27.261583 42.900011 0l-5.600248-43.322671-21.13301 21.13301L1779.505213 285.295635l-21.13301-21.13301v52.09287c0 27.578578 42.90001 27.578578 42.900011 0zM1484.488394 155.644619L1373.645756 143.810133c-27.367248-2.958621-27.155918 39.941389 0 42.794345l111.265298 11.940151c27.472913 2.958621 27.261583-39.941389 0-42.90001z" fill="#49494A" p-id="9068"></path><path d="M1713.147562 180.15891l-174.452998-18.702714c-27.472913-2.958621-27.261583 39.941389 0 42.900011l174.452998 18.597049c27.472913 2.958621 27.261583-39.941389 0-42.794346zM1779.505213 230.032814c27.578578 0 27.578578-42.794345 0-42.794345s-27.578578 42.794345 0 42.794345zM1902.921992 476.972036c-86.328346 0-172.656692-1.267981-258.985038 0-72.486224 1.056651-141.591167 18.280054-195.269012 69.316273-59.383758 56.319472-103.551749 140.217521-143.070478 211.3301l18.491384-10.566505H877.865341l18.491384 10.566505c-46.703952-86.117016-95.098545-190.19709-181.321226-244.614591-76.395831-48.077598-168.113095-39.730059-254.44144-39.730059-69.316273 0-91.188938 21.13301-125.213084 74.599525l-95.098546 150.467032 18.491384-10.566505h-76.290166a21.767 21.767 0 0 0-21.13301 21.13301v58.961098a21.767 21.767 0 0 0 21.13301 21.13301h75.339181c27.578578 0 27.578578-42.26602 0-42.26602h-75.339181l21.13301 21.13301V709.012486l-21.13301 21.13301c22.400991 0 57.481787 7.185223 78.720462 0 16.695078-5.811578 22.929316-21.13301 31.699515-36.243112 31.699515-50.190899 60.440409-114.435249 100.593128-158.497575 26.627593-29.057889 78.297802-19.442369 115.386235-19.44237 42.26602 0 85.37736-2.958621 126.164069 8.241874 115.386235 31.699515 171.388711 157.652255 223.904241 254.441441a21.13301 21.13301 0 0 0 18.491384 10.566505h446.223507a21.13301 21.13301 0 0 0 18.597048-10.566505c36.771437-65.934991 77.980807-144.761119 132.081313-198.121969 48.817253-48.183263 110.948303-60.546074 177.622949-60.968734h250.531834c27.578578 0 27.684243-42.26602 0-42.26602z" fill="#49494A" p-id="9069"></path><path d="M1841.530598 376.484573h-646.247446L1148.5792 70.584253a45.118976 45.118976 0 0 0-45.118977-45.118976h-824.18739a45.224641 45.224641 0 0 0-45.224641 45.118976v551.571562S313.191314 499.267361 338.128266 460.276958c14.476112-22.295326 42.26602-25.782272 57.904447-25.676607h170.543391a319.848106 319.848106 0 0 1 264.162625 139.794861c23.985966 35.186462 62.55371 101.332783 85.377361 142.859148h365.601073c21.13301-38.990403 53.994841-97.740171 72.274894-127.960376a317.62914 317.62914 0 0 1 273.989475-154.693633h269.868538c0-27.050253-33.284491-58.115778-56.319472-58.115778z m-1542.709731 0V92.773914a2.324631 2.324631 0 0 1 2.324631-2.324631H697.389436v286.03529z m471.266123 0V90.449283h312.979879a2.324631 2.324631 0 0 1 2.324631 2.324631l42.26602 283.710659z" fill="#92CAEE" p-id="9070"></path><path d="M122.782894 118.450521h-63.39903A59.806418 59.806418 0 0 0 0.000106 178.256939V507.19224a59.700753 59.700753 0 0 0 59.700753 59.806419h63.39903A59.700753 59.700753 0 0 0 182.483647 507.19224V178.256939a59.806418 59.806418 0 0 0-59.700753-59.806418z" fill="#49494A" p-id="9071"></path><path d="M34.658242 530.755546l-1.479311 35.714787a21.13301 21.13301 0 0 0 21.13301 21.13301 21.872665 21.872665 0 0 0 21.13301-21.13301l1.373646-35.714787a21.13301 21.13301 0 0 0-21.13301-21.13301 21.767 21.767 0 0 0-21.13301 21.13301zM104.608505 530.755546l-1.47931 35.714787a21.13301 21.13301 0 0 0 42.90001 0l1.901971-35.714787a21.13301 21.13301 0 0 0-21.13301-21.13301 21.767 21.767 0 0 0-21.13301 21.13301zM34.658242 121.409143l-1.479311 35.714786a21.661335 21.661335 0 0 0 21.13301 21.13301 21.872665 21.872665 0 0 0 21.13301-21.13301l1.373646-35.714786a21.13301 21.13301 0 0 0-21.13301-21.133011 21.767 21.767 0 0 0-21.13301 21.133011zM104.608505 121.409143l-1.47931 35.714786a21.13301 21.13301 0 0 0 42.90001 0l1.901971-35.714786a21.13301 21.13301 0 0 0-21.13301-21.133011 21.767 21.767 0 0 0-21.13301 21.133011z" fill="#49494A" p-id="9072"></path><path d="M1850.512127 375.744918a49.662574 49.662574 0 0 1 4.332267 3.169951h-226.862862c-122.148798 0-262.154989 62.448045-325.448354 167.056445-16.378083 27.050253-43.956661 76.184501-65.512331 115.597564H965.567333c-21.13301-38.779073-55.896811-97.423176-79.248788-131.552987-64.455681-95.098545-205.412857-151.101022-319.742441-151.101022H396.349708c-35.714787 0-63.39903 13.208131-79.460117 37.405428-11.834486 18.174389-82.524404 113.695594-82.524404 113.695594v92.139924S313.191314 499.267361 338.128266 460.276958c14.476112-22.295326 42.26602-25.782272 57.904447-25.676607h170.543391a319.848106 319.848106 0 0 1 264.162625 139.794861c23.985966 35.186462 62.55371 101.332783 85.377361 142.859148h365.601073c21.13301-38.990403 53.994841-97.740171 72.274894-127.960376a317.62914 317.62914 0 0 1 273.989475-154.693633h269.868538c0-9.61552-4.226602-49.768239-10.566505-58.855433z" fill="#5DA1D3" p-id="9073"></path><path d="M1300.208546 728.032195c40.681044-73.965535 77.769477-158.497575 146.66309-211.3301 57.587452-44.167991 124.367764-60.863069 195.797338-61.074399h255.181096a21.872665 21.872665 0 0 0 21.13301-27.155918c-11.200495-68.576617-71.535239-73.965535-126.79806-73.965535-27.578578 0-27.684243 42.26602 0 42.26602 36.137447 0 78.192137-5.600248 86.01135 42.26602l21.13301-27.155918c-89.498297 0-179.630585-1.584976-268.600557 0a348.694665 348.694665 0 0 0-210.801775 71.640904c-72.486224 56.636467-112.110618 142.647818-155.327623 221.896605-13.208131 24.197296 23.774636 45.858632 37.088432 21.13301zM212.915182 419.384584v202.771231a21.13301 21.13301 0 0 0 39.941388 10.566505q39.307399-61.285729 78.720463-122.571458c21.13301-33.178826 33.812816-52.832525 76.078836-54.417501 36.877102-1.796306 73.965535 0 111.265297 0 81.679084 0 157.54659 8.136209 225.594882 58.644103C815.100302 566.998659 855.887011 652.904344 898.153031 728.032195a21.13301 21.13301 0 0 0 18.491384 10.566505h257.717057c27.578578 0 27.578578-42.90001 0-42.90001H916.433085l18.491383 10.566505c-45.752967-82.418739-90.766278-172.234032-169.06408-228.764834-74.810855-54.206171-157.75792-64.561346-247.256217-64.561345-63.39903 0-158.497575-20.49902-200.763595 39.413063-36.454442 50.930554-68.259622 105.66505-102.072438 158.497575l39.941389 10.566505V419.384584c0-27.578578-42.90001-27.578578-42.900011 0zM1267.980706 355.140233h-73.120214l20.604684 15.638428c-15.427097-101.227118-24.514292-205.835517-46.598287-305.794655-19.019709-88.335982-148.77639-60.968734-216.613352-60.968734H343.517183c-25.148282 0-56.847797-4.860592-81.679083 2.430296-62.34238 18.068724-48.922918 94.35889-48.922918 143.810133v191.253741c0 27.578578 42.90001 27.578578 42.90001 0V114.963574c0-17.434733-6.022908-52.832525 11.72882-64.87834s58.010112-3.169952 75.973171-3.169952h701.827263c34.235476 0 68.893613-10.566505 82.630069 29.374884 15.321432 44.801981 15.427097 101.227118 22.506656 147.93107l24.091631 158.497575a21.13301 21.13301 0 0 0 21.13301 15.744093H1267.980706c27.578578 0 27.684243-42.26602 0-42.26602z" fill="#49494A" p-id="9074"></path><path d="M1658.941391 355.140233h-293.326179c-27.578578 0-27.684243 42.26602 0 42.26602H1658.941391c27.578578 0 27.578578-42.26602 0-42.26602zM375.639359 355.140233h-74.810856l21.13301 21.13301c0-77.769477-0.528325-155.644619 0-233.51976 0-27.578578-42.26602-27.578578-42.794345 0-0.528325 77.875142 0 155.750284 0 233.51976a21.13301 21.13301 0 0 0 21.13301 21.13301h74.810855c27.578578 0 27.684243-42.26602 0-42.26602z" fill="#49494A" p-id="9075"></path><path d="M300.828503 111.899288H697.389436l-21.13301-21.13301v285.718295l21.13301-21.13301H493.138894c-27.578578 0-27.684243 42.26602 0 42.26602H697.389436a21.767 21.767 0 0 0 21.13301-21.13301V90.449283a21.767 21.767 0 0 0-21.13301-21.13301H300.828503c-27.578578 0-27.578578 42.90001 0 42.90001zM913.474463 355.140233h-143.704468l21.13301 21.13301V146.557424c0-27.578578-42.794345-27.684243-42.794345 0v229.927149a21.767 21.767 0 0 0 21.13301 21.13301h143.704468c27.578578 0 27.578578-42.26602 0-42.26602z" fill="#49494A" p-id="9076"></path><path d="M769.769995 111.899288h250.003509c6.973893 0 56.108142 5.600248 60.440408 0 2.641626-3.486947-9.932515-17.540398-14.581777-7.502219-2.430296 5.388918 3.486947 23.246311 4.437932 29.057889l14.476112 96.577856 22.823651 152.157672 21.13301-27.050253h-105.66505c-27.578578 0-27.578578 42.26602 0 42.26602h105.66505a21.767 21.767 0 0 0 20.604685-27.155918l-25.148282-167.690434C1118.992986 173.290682 1123.325253 84.53204 1088.350121 69.844598c-11.940151-5.071922-32.861831-0.84532-45.224641-0.84532H769.769995c-27.578578 0-27.684243 42.90001 0 42.90001zM1881.577652 549.45826v159.659891a21.767 21.767 0 0 0 21.13301 21.13301h89.286967a21.767 21.767 0 0 0 21.13301-21.13301v-54.206171a21.767 21.767 0 0 0-21.13301-21.13301h-35.397792c-27.578578 0-27.578578 42.26602 0 42.26602h35.397792l-21.13301-21.13301v54.206171l21.13301-21.13301h-89.286967l21.13301 21.13301V549.45826c0-27.578578-42.794345-27.684243-42.794345 0zM1324.088848 850.709318c27.578578 0 27.684243-42.794345 0-42.794345s-27.578578 42.794345 0 42.794345zM1114.132393 850.709318h152.897328c27.578578 0 27.578578-42.794345 0-42.794345h-152.897328c-27.578578 0-27.578578 42.794345 0 42.794345zM891.284803 850.709318h147.191415c27.578578 0 27.578578-42.794345 0-42.794345H891.284803c-27.578578 0-27.578578 42.794345 0 42.794345z" fill="#49494A" p-id="9077"></path></svg>