<?xml version="1.0" standalone="no"?><!DOCTYPE svg PUBLIC "-//W3C//DTD SVG 1.1//EN" "http://www.w3.org/Graphics/SVG/1.1/DTD/svg11.dtd"><svg t="1575526587391" class="icon" viewBox="0 0 2004 1024" version="1.1" xmlns="http://www.w3.org/2000/svg" p-id="9918" xmlns:xlink="http://www.w3.org/1999/xlink" width="391.40625" height="200"><defs><style type="text/css"></style></defs><path d="M1753.778229 874.755565l219.079175 145.705864a20.815123 20.815123 0 0 0 31.743064-18.213233v-93.668056c0-27.163736-42.150625-27.267812-42.150626 0v93.668056l31.743064-18.213233-219.079175-145.705865c-22.688485-15.090965-43.815835 21.439577-21.335502 36.426467zM229.486736 838.329098l-218.558796 145.705865 31.847139 18.213233v-93.668056c0-27.163736-42.254701-27.267812-42.254701 0v93.668056a20.815123 20.815123 0 0 0 31.222685 17.692855L250.822238 874.235187c22.480333-14.882813 1.457059-52.037809-21.335502-36.426467z" fill="#49494A" p-id="9919"></path><path d="M1787.186503 1002.976725c-54.223397-496.544771-385.079785-883.289765-786.187214-883.289765S268.931395 506.431954 214.707999 1002.976725z" fill="#F3D24F" p-id="9920"></path><path d="M1088.006505 125.723346a634.861266 634.861266 0 0 0-87.007216-6.036386c-400.899278 0-732.067893 386.744994-786.29129 883.289765h174.222583c50.164448-460.118305 338.245757-826.048176 699.075923-877.253379z" fill="#BFAD65" p-id="9921"></path><path d="M1447.587763 679.926009L1001.623742 313.787987 555.659722 679.926009 427.334485 1002.976725h1148.578514l-128.325236-323.050716z" fill="#92CAEE" p-id="9922"></path><path d="M1462.574652 664.93912L1239.540604 481.870109l-150.285192-123.329607-52.037809-42.462852c-4.058949-3.33042-9.470881-10.407562-14.46651-11.86462-11.448318-4.371176 0-15.715418 0 9.574957a21.439577 21.439577 0 0 0-20.815124-20.815124 21.439577 21.439577 0 0 0-20.815123 20.815124c0-17.588779 12.176847-14.466511-1.457059-8.638277a125.515195 125.515195 0 0 0-23.208863 19.045838L881.52048 385.079785 674.410001 555.139343c-41.630247 34.136803-95.333266 66.816546-130.718975 107.406038-27.475963 31.222685-38.71613 88.047972-53.91117 126.347799l-83.260494 208.151235a20.815123 20.815123 0 0 0 20.815123 26.643358h1148.578514a20.815123 20.815123 0 0 0 20.815124-26.643358l-128.325237-322.634414c-10.407562-24.978148-50.788901-14.154284-40.693566 11.136091l128.325236 323.154792 20.294746-26.747433H427.334485l20.815124 26.747433L517.568046 832.60494 562.008334 720.931802c3.954873-9.783108 7.389369-20.19067 11.864621-29.765627 6.140461-13.009452-8.117898 8.013823 0 1.248908 110.112003-95.22919 225.323712-185.046448 337.829454-277.361521l82.323813-67.649151c10.407562-8.326049 29.037097-18.52546 29.037097-33.616424l-20.815123 20.815123-20.815124-20.815123c0 22.168107 44.64844 46.521801 58.802724 58.17827l154.448217 126.660026 239.37392 196.182539c19.46214 17.068401 49.539994-12.59315 28.516719-29.869702z" fill="#49494A" p-id="9923"></path><path d="M1405.85344 246.555138c-251.862994-177.657079-574.809635-175.471491-820.636243 10.407561C352.087814 433.579022 226.988922 718.12176 193.684724 1002.976725a20.815123 20.815123 0 0 0 20.815124 20.815124h1574.039638a20.815123 20.815123 0 0 0 20.815123-20.815124C1779.693058 748.095538 1679.364163 499.562964 1492.652505 318.575465c-19.566216-18.941762-49.435918 10.92794-29.869702 29.869702C1641.064336 520.378087 1738.687265 759.752007 1767.412135 1002.976725l20.815124-20.815123H214.707999l20.815123 20.815123c31.222685-266.953959 148.932209-536.093505 364.264661-704.696005 233.961988-182.964935 541.193211-186.399431 784.105702-15.195041 22.272182 15.611343 43.399532-20.815123 21.335502-36.530541z" fill="#49494A" p-id="9924"></path><path d="M555.243419 657.133449a84.405326 84.405326 0 0 1-83.260494-83.260494c-0.728529-27.163736-42.879154-27.267812-42.150625 0A127.492631 127.492631 0 0 0 555.243419 699.388149c27.163736 0.728529 27.163736-41.630247 0-42.2547zM1448.108141 699.388149a127.492631 127.492631 0 0 0 125.411119-125.411119c0.728529-27.163736-41.630247-27.163736-42.254701 0a84.30125 84.30125 0 0 1-83.260494 83.260494c-27.163736 0.728529-27.267812 42.98323 0 42.254701zM1022.751093 326.901514V221.368838c0-27.163736-41.630247-27.163736-41.630247 0v105.532676c0 27.163736 41.630247 27.163736 41.630247 0zM1022.751093 133.008639V20.815123c0-27.163736-41.630247-27.267812-41.630247 0v112.193516c0 27.163736 41.630247 27.163736 41.630247 0z" fill="#49494A" p-id="9925"></path><path d="M1066.566928 778.069316a528.183759 528.183759 0 0 1-145.705865-366.6584v-20.815124L569.189552 690.437646v126.972253A109.383474 109.383474 0 0 0 676.491513 928.77081h670.663279a503.101535 503.101535 0 0 1-280.587864-150.701494z" fill="#5DA1D3" p-id="9926"></path><path d="M1011.510926 411.410916c0 236.980181 184.213843 429.415998 412.97205 433.370871a104.075617 104.075617 0 0 0 12.697225-49.852221V676.491513L1018.483992 333.041976a455.226751 455.226751 0 0 0-6.973066 78.36894z" fill="#ECEBEB" p-id="9927"></path><path d="M1111.527594 734.669784a467.611749 467.611749 0 0 0 322.634414 142.999898 20.815123 20.815123 0 0 0 18.213233-10.407562c18.421384-41.630247 16.131721-80.554528 16.131721-124.890741 0-22.480333 7.285293-57.449741-6.348613-77.120032-7.805671-11.240167-25.810753-20.815123-36.114239-29.661551l-82.011586-67.336925-320.1366-262.270556c-10.407562-8.846427-32.471593-7.909747-35.281634 9.26273a504.87082 504.87082 0 0 0 57.449741 332.105295c13.217603 23.729241 49.748145 2.497815 36.426466-21.335501a456.996036 456.996036 0 0 1-53.078565-299.529627l-35.281634 9.366805 289.850594 238.020938c43.399532 35.593861 89.400955 87.423519 139.045025 114.483179a72.852932 72.852932 0 0 1 8.846428 7.285293c-17.380628-13.321679-1.66521-18.109157-6.036386-5.620083a100.016668 100.016668 0 0 0 0 23.000711c0 42.254701 7.389369 93.668056-10.407562 133.320866l18.213233-10.407562a424.004065 424.004065 0 0 1-292.348409-130.510824c-19.045838-19.46214-48.91554 10.407562-29.869702 29.765627z" fill="#49494A" p-id="9928"></path><path d="M1022.751093 326.901514a21.439577 21.439577 0 0 0-20.815124-20.815123 21.439577 21.439577 0 0 0-20.815123 20.815123c0-20.19067 10.407562-15.090965-5.099706-5.620083a323.362943 323.362943 0 0 0-36.010163 29.557475l-113.130196 92.315073-240.622828 197.743673c-12.905377 10.407562-35.489786 22.79256-44.856591 36.842769-19.149914 28.620795-6.556764 90.23356-6.140462 123.329606 0.936681 94.604736 63.069824 145.705864 153.927839 145.705865h581.57455c74.414066 0 155.280821 1.352983 188.168716-82.531965 16.964326-43.295457 9.158654-98.351458 9.158655-143.728427 0-25.394451 0-35.38571-17.58878-52.037809C1374.630755 597.081817 1287.935766 534.740522 1207.277162 468.340278L1016.610631 312.226852c-20.815123-17.068401-50.892977 12.59315-29.869702 29.869703L1356.417522 645.268828c19.982519 16.443948 44.232137 45.272894 67.961378 55.784531 15.090965 6.764915 0 1.66521 1.457059-4.371176-5.099705 19.878443 0 47.562557 0 68.065454 0 64.11058-5.620083 134.361622-87.735746 139.461327-16.131721 1.040756-32.679744 0-48.91554 0H735.918691c-22.376258 0-45.064742 1.144832-67.336925 0-64.422807-3.226344-90.337636-48.811465-91.17024-107.197886v-72.852932a86.486838 86.486838 0 0 0 0-25.394451c-4.683403-10.407562-4.371176 6.764915-4.475252 6.764916 18.213233-10.407562 34.865332-28.620795 50.892977-41.630247L879.438967 454.394146l104.075618-85.550158c11.552394-9.470881 39.132432-24.249619 39.132432-41.630247l-20.815124 20.815124-20.815123-20.815124c-0.416302 26.643358 41.734323 26.643358 41.734323-0.312227zM415.261714 324.820002q-33.7205 37.779449-63.798354 78.473016a21.335502 21.335502 0 0 0 7.493445 28.933021 21.751804 21.751804 0 0 0 28.933021-7.59752c18.005082-24.249619 37.05092-47.458482 57.24159-69.938815 18.005082-20.19067-11.656469-50.164448-29.869702-29.869702zM486.241285 254.152658c-8.221974 7.285293-16.235796 14.674662-24.145544 22.272182a20.815123 20.815123 0 0 0 0 29.869702 21.543653 21.543653 0 0 0 29.869703 0c7.59752-7.59752 15.923569-14.882813 24.041467-22.376258a20.815123 20.815123 0 0 0 0-29.765626 21.439577 21.439577 0 0 0-29.765626 0zM1000.999289 48.395162a779.63045 779.63045 0 0 0-134.673849 12.801301c-26.643358 4.787478-15.299116 45.481045 11.240166 40.693566A722.180709 722.180709 0 0 1 1000.999289 90.545787c27.059661 0 27.163736-42.358776 0-41.630247z" fill="#49494A" p-id="9929"></path></svg>