<?xml version="1.0" standalone="no"?><!DOCTYPE svg PUBLIC "-//W3C//DTD SVG 1.1//EN" "http://www.w3.org/Graphics/SVG/1.1/DTD/svg11.dtd"><svg t="1575526573403" class="icon" viewBox="0 0 2006 1024" version="1.1" xmlns="http://www.w3.org/2000/svg" p-id="9473" xmlns:xlink="http://www.w3.org/1999/xlink" width="391.796875" height="200"><defs><style type="text/css"></style></defs><path d="M1493.269626 511.328618m-486.832339 59.948001a490.509419 490.509419 0 1 0 973.664679-119.896002 490.509419 490.509419 0 1 0-973.664679 119.896002Z" fill="#49494A" p-id="9474"></path><path d="M981.64783 511.371007a511.580672 511.580672 0 1 0 948.625716-266.063882A516.822277 516.822277 0 0 0 1400.976249 8.176904c-242.686323 43.190827-415.764128 259.878788-419.328419 503.194103 0 27.151515 41.932842 27.151515 41.932842 0 2.830467-197.189189 125.798526-377.395577 313.343161-442.81081a469.542998 469.542998 0 0 1 556.553644 687.593775 473.63145 473.63145 0 0 1-495.541359 215.010647C1180.4095 925.87715 1027.354627 731.832924 1023.895168 511.371007c-0.419328-27.151515-42.666667-27.256347-42.247338 0z" fill="#49494A" p-id="9475"></path><path d="M1652.782965 345.212121a85.542998 85.542998 0 1 1 48.3276-155.990172 119.298935 119.298935 0 1 0 0 140.999181 85.123669 85.123669 0 0 1-48.3276 14.990991z" fill="#F3D24F" p-id="9476"></path><path d="M1776.06552 653.208845a40.570025 40.570025 0 1 1-40.570025-40.570024 40.570025 40.570025 0 0 1 40.570025 40.570024z" fill="#ECEBEB" p-id="9477"></path><path d="M1754.994267 653.208845c-1.362817 25.054873-38.997543 25.159705-38.997543 0s37.634726-24.950041 38.997543 0c1.467649 27.046683 43.714988 27.151515 41.932842 0a61.74611 61.74611 0 1 0-63.947584 61.536446 62.899263 62.899263 0 0 0 63.947584-61.536446c1.782146-27.151515-40.465192-27.046683-41.932842 0z" fill="#49494A" p-id="9478"></path><path d="M1883.099099 475.099099a40.570025 40.570025 0 1 1-40.570024-40.674857 40.570025 40.570025 0 0 1 40.570024 40.674857z" fill="#ECEBEB" p-id="9479"></path><path d="M1862.027846 475.099099c-1.362817 24.950041-38.997543 25.159705-38.997543 0s37.634726-25.054873 38.997543 0c1.467649 26.941851 43.714988 27.151515 41.932842 0a61.74611 61.74611 0 1 0-63.947584 61.536446 62.899263 62.899263 0 0 0 63.947584-61.536446c1.782146-27.151515-40.465192-27.151515-41.932842 0z" fill="#49494A" p-id="9480"></path><path d="M1574.473382 515.669124a40.674857 40.674857 0 1 1-40.674856-40.570025 40.674857 40.674857 0 0 1 40.674856 40.570025z" fill="#ECEBEB" p-id="9481"></path><path d="M1553.297297 515.669124c-1.362817 25.054873-38.997543 25.159705-38.997543 0s37.634726-25.054873 38.997543 0c1.467649 27.046683 43.714988 27.151515 41.932842 0a61.74611 61.74611 0 1 0-63.947584 61.536445 62.899263 62.899263 0 0 0 63.947584-61.536445c1.782146-27.151515-40.465192-27.046683-41.932842 0z" fill="#49494A" p-id="9482"></path><path d="M1366.905815 148.861589a40.674857 40.674857 0 1 1-40.674857-40.570025 40.674857 40.674857 0 0 1 40.674857 40.570025z" fill="#ECEBEB" p-id="9483"></path><path d="M1345.72973 148.861589c-1.362817 24.950041-38.997543 25.159705-38.997543 0s37.634726-25.054873 38.997543 0c1.467649 27.046683 43.714988 27.151515 41.932842 0a61.74611 61.74611 0 1 0-123.387388 0 61.74611 61.74611 0 0 0 123.387388 0c1.782146-27.151515-40.465192-27.046683-41.932842 0z" fill="#49494A" p-id="9484"></path><path d="M1921.048321 793.89353l-70.656839 50.214578v44.134316l-41.723177-25.159705h-55.456184l-43.505323 41.618346v-24.425881l-60.278461-50.214578-57.972154 50.214578v23.37756l-56.399672-40.570025h-41.82801l-41.408681 22.853399V413.562654l-78.624079-44.239149v-1.886978H1187.747748v460.212941h-88.373465V95.292383l-78.624078-71.495495v-2.725635H708.874693v806.578215H603.832924v-448.681409L481.389025 272.668305V272.563473L361.041769 378.968059v448.681409h-47.279279v-84.809173l-56.819001-56.714169-56.714169 56.714169v84.809173h-32.183456v-32.393121l-56.714169-28.304668-56.819 28.304668v32.393121H21.071253v175.174447l1963.295659-0.209664V844.108108l-63.318591-50.214578z" fill="#92CAEE" p-id="9485"></path><path d="M1910.460278 775.757576c-21.805078 15.410319-51.577396 29.772318-69.503685 49.375921s-11.636364 38.997543-11.636364 62.899263l31.449632-18.240786c-35.85258-21.595414-52.416052-30.610975-94.348895-27.990172-32.917281 1.99181-47.908272 25.159705-71.495495 47.80344l36.062244 14.886158c0-46.964783-31.449631-60.592957-66.463554-89.631449a21.90991 21.90991 0 0 0-29.87715 0c-33.126945 28.828829-64.157248 42.876331-64.157249 88.583128l31.449632-18.240786c-23.377559-16.773137-45.392301-39.626536-74.116298-43.400491-35.85258-4.717445-56.504505 9.015561-86.905815 25.683865l31.449631 18.240787V413.562654a20.966421 20.966421 0 0 0-10.48321-18.135955l-39.312039-22.224406a175.279279 175.279279 0 0 0-25.159706-14.152334c-20.966421-7.233415-3.669124-13.733006-3.669123 8.386568a21.490581 21.490581 0 0 0-20.966421-20.966421H1187.747748a20.966421 20.966421 0 0 0-20.966421 20.966421V828.173628l20.966421-20.966421h-88.373465l20.966421 20.966421V121.710074c0-15.200655 1.99181-28.199836-6.185094-41.408682s-27.780508-25.264537-39.312039-35.747747A270.781327 270.781327 0 0 0 1048.321048 20.022932C1033.539722 10.48321 1041.92629 4.927109 1041.92629 20.966421a21.490581 21.490581 0 0 0-20.966421-20.966421H708.874693a20.966421 20.966421 0 0 0-20.966421 20.966421v807.207207l20.966421-20.966421h-104.832105l20.966421 20.966421V471.744472c0-29.87715 10.48321-81.873874-6.814087-108.0819-12.999181-19.708436-42.981163-37.320229-60.592956-52.416053l-41.932842-36.586404c-3.144963-2.725635-10.48321-11.636364-13.837838-12.055692-9.539722-1.048321 0.943489-23.063063 0.943489 10.48321a20.966421 20.966421 0 0 0-36.062244-14.886159l-60.173628 53.149877c-17.402129 15.410319-47.908272 33.336609-60.173629 53.25471-16.982801 27.675676-6.185094 81.035217-6.185094 111.855855V828.173628l20.966421-20.966421h-47.488943l20.966421 20.966421c0-26.103194 8.281736-65.834562-0.733825-90.470106s-43.924652-47.80344-62.165438-66.044226a20.966421 20.966421 0 0 0-29.87715 0c-18.555283 18.555283-52.940213 41.094185-62.165438 66.044226s-0.733825 64.786241-0.733825 90.470106l20.966421-20.966421H167.731368l20.966421 20.966421v-32.917281a20.966421 20.966421 0 0 0-10.483211-18.240786c-18.974611-9.434889-45.706798-31.449631-67.302211-31.449631s-49.166257 22.119574-67.407043 31.449631a20.966421 20.966421 0 0 0-10.483211 18.240786V828.173628l20.966421-20.966421H20.966421a20.966421 20.966421 0 0 0-20.966421 20.966421v174.650287a20.966421 20.966421 0 0 0 20.966421 20.966421h1963.400491a21.490581 21.490581 0 0 0 20.966421-20.966421c0-48.432432 2.201474-97.389025 0-145.716626-1.782146-38.263718-41.199017-55.456183-69.503685-77.995086-20.966421-16.668305-51.158067 12.999181-29.87715 29.87715a549.215397 549.215397 0 0 0 50.109746 39.8362c15.410319 9.434889 7.96724 10.48321 7.023751-2.306306 0.628993 7.96724 0 16.45864 0 24.530712v131.564292l20.966421-20.966421H20.966421l20.966421 20.966421V828.173628l-20.966421 20.966421h33.546274a21.490581 21.490581 0 0 0 20.96642-20.966421c0-7.128583 3.144963-22.958231 0-29.038493 6.49959 12.370188-23.063063 12.789517 1.782146 8.805897 14.257166-2.411138 31.449631-15.829648 44.448813-22.329238h-20.966421A248.452088 248.452088 0 0 0 145.087633 807.207207c23.796888 5.870598-7.862408 8.4914 1.782146-8.805897-3.249795 5.870598 0 22.119574 0 29.038493a21.490581 21.490581 0 0 0 20.966421 20.966421h32.39312a20.966421 20.966421 0 0 0 20.966421-20.966421c0-26.837019-4.088452-56.923833 0-83.865683-2.096642 13.523342-9.854218 11.95086 2.725635 4.612612a122.548731 122.548731 0 0 0 19.498771-19.498771l28.409501-28.409501h-29.772318l28.304668 28.409501a143.515152 143.515152 0 0 0 19.603604 19.498771c11.007371 6.394758 4.822277 15.515152 2.620803-4.612612a789.280917 789.280917 0 0 1 0 83.865683 20.966421 20.966421 0 0 0 20.966421 20.966421h47.384111a20.966421 20.966421 0 0 0 20.966421-20.966421V413.248157a95.502048 95.502048 0 0 0 0-25.054873c-4.298116-13.733006 11.426699-6.918919-5.45127 5.136773 42.561835-30.40131 80.406224-71.076167 119.718264-105.775593L460.317772 272.563473c0 16.773137 23.796888 30.296478 34.594595 39.731367 26.208026 22.748567 51.682228 50.214578 80.301392 69.71335 17.402129 11.846028 6.394758 14.990991 7.547912-1.782146v15.41032a735.187551 735.187551 0 0 0 0 76.003276V828.173628a20.966421 20.966421 0 0 0 20.966421 20.966421h104.832105a21.490581 21.490581 0 0 0 20.966421-20.966421V20.966421l-20.966421 20.966421h312.190008l-20.966421-20.966421c0 26.208026 53.149877 65.624898 72.438984 77.995086 14.361998 9.120393 7.443079 17.611794 6.185094-3.669124a35.433251 35.433251 0 0 1 0 4.717445 135.023751 135.023751 0 0 0 0 21.595414V828.173628a20.966421 20.966421 0 0 0 20.966421 20.966421h88.373465a21.490581 21.490581 0 0 0 20.966421-20.966421V367.436527l-20.966421 20.966421H1373.300573l-20.966421-20.966421v1.886978a20.966421 20.966421 0 0 0 10.483211 18.555283c20.232596 11.531532 45.497133 32.917281 67.931204 38.36855s-3.878788-7.338247 0-9.539721a75.583948 75.583948 0 0 0 0 15.410319c-6.185094 50.424242 0 105.461097 0 156.199836v297.618346a20.966421 20.966421 0 0 0 31.449631 18.240786c30.296478-16.773137 34.280098-25.998362 65.520066-19.9181 12.894349 2.411138-12.789517-6.49959 2.201474 1.257986a157.248157 157.248157 0 0 1 18.240786 13.104013l32.393121 23.272727c13.313677 9.539722 31.449631-3.459459 31.449631-18.240786 0-12.894349 6.918919-25.054873-4.822277-9.539722A107.033579 107.033579 0 0 1 1623.849304 880.589681l40.570024-35.223588h-29.877149l41.094185 34.280099a108.501229 108.501229 0 0 1 17.92629 15.095823c-12.055692-16.248976-4.927109-2.201474-4.927109 10.48321a20.966421 20.966421 0 0 0 36.062244 14.990991c9.434889-9.120393 20.022932-17.821458 28.723996-27.570843a79.567568 79.567568 0 0 1 13.208846-12.684685c-15.829648 10.48321-9.015561 3.040131 4.088452 4.822277 7.338247 0.943489 41.303849 2.096642 29.562653-1.572482a215.115479 215.115479 0 0 1 39.521704 23.796888 20.966421 20.966421 0 0 0 31.449631-18.240786 133.556102 133.556102 0 0 0 0-31.449632c-5.346437-18.660115 3.040131-1.99181-9.225225 4.298117 4.088452-2.096642 7.443079-5.97543 11.531532-8.176905a651.426699 651.426699 0 0 0 57.867321-41.199017c22.224406-15.515152 1.153153-52.416052-20.966421-36.481572z" fill="#49494A" p-id="9486"></path><path d="M777.95905 112.275184h82.398034v82.398035h-82.398034zM777.95905 258.725635h82.398034v82.398034h-82.398034zM777.95905 405.071253h82.398034v82.398034h-82.398034zM777.95905 551.521704h82.398034v82.398034h-82.398034zM777.95905 697.867322h82.398034v82.398034h-82.398034zM918.224406 112.275184h82.398035v82.398035h-82.398035zM918.224406 258.725635h82.398035v82.398034h-82.398035zM918.224406 405.071253h82.398035v82.398034h-82.398035zM918.224406 551.521704h82.398035v82.398034h-82.398035zM918.224406 697.867322h82.398035v82.398034h-82.398035z" fill="#F3D24F" p-id="9487"></path><path d="M1000.622441 759.194103h-82.398035l20.966421 20.966421v-82.293202c0-27.151515-41.932842-27.151515-41.932842 0v82.398034a20.966421 20.966421 0 0 0 20.966421 20.966421h82.398035c27.151515 0 27.151515-41.932842 0-41.932842zM1000.622441 612.743653h-82.398035l20.966421 20.966421v-82.18837c0-27.151515-41.932842-27.256347-41.932842 0v82.293202a20.966421 20.966421 0 0 0 20.966421 20.966421h82.398035c27.151515 0 27.151515-41.932842 0-41.932842zM1000.622441 466.398034h-82.398035l20.966421 20.966421v-82.293202c0-27.151515-41.932842-27.151515-41.932842 0v82.398034a20.966421 20.966421 0 0 0 20.966421 20.966421h82.398035c27.151515 0 27.151515-41.932842 0-41.932841zM1000.622441 319.947584h-82.398035l20.966421 20.966421v-82.18837c0-27.151515-41.932842-27.256347-41.932842 0v82.293202a20.966421 20.966421 0 0 0 20.966421 20.966421h82.398035c27.151515 0 27.151515-41.932842 0-41.932842zM1000.622441 173.601966h-82.398035l20.966421 20.966421v-82.293203c0-27.151515-41.932842-27.151515-41.932842 0v82.398035a20.966421 20.966421 0 0 0 20.966421 20.966421h82.398035c27.151515 0 27.151515-41.932842 0-41.932842zM860.252252 759.194103h-82.293202l20.966421 20.966421v-82.293202c0-27.151515-41.932842-27.151515-41.932842 0v82.398034a20.966421 20.966421 0 0 0 20.966421 20.966421h82.293202c27.256347 0 27.256347-41.932842 0-41.932842zM860.252252 612.743653h-82.293202l20.966421 20.966421v-82.18837c0-27.151515-41.932842-27.256347-41.932842 0v82.293202a21.490581 21.490581 0 0 0 20.966421 20.966421h82.293202c27.256347 0 27.256347-41.932842 0-41.932842zM860.252252 466.398034h-82.293202l20.966421 20.966421v-82.293202c0-27.151515-41.932842-27.151515-41.932842 0v82.398034a20.966421 20.966421 0 0 0 20.966421 20.966421h82.293202c27.256347 0 27.256347-41.932842 0-41.932841zM860.252252 319.947584h-82.293202l20.966421 20.966421v-82.18837c0-27.151515-41.932842-27.256347-41.932842 0v82.293202a21.490581 21.490581 0 0 0 20.966421 20.966421h82.293202c27.256347 0 27.256347-41.932842 0-41.932842zM860.252252 173.601966h-82.293202l20.966421 20.966421v-82.293203c0-27.151515-41.932842-27.151515-41.932842 0v82.398035a20.966421 20.966421 0 0 0 20.966421 20.966421h82.293202c27.256347 0 27.256347-41.932842 0-41.932842z" fill="#49494A" p-id="9488"></path><path d="M441.657658 405.071253h82.398034v82.398034h-82.398034zM441.657658 551.521704h82.398034v82.398034h-82.398034zM441.657658 697.867322h82.398034v82.398034h-82.398034z" fill="#F3D24F" p-id="9489"></path><path d="M524.160524 759.194103h-82.502866l20.966421 20.966421v-82.293202c0-27.151515-41.932842-27.151515-41.932842 0v82.398034a20.966421 20.966421 0 0 0 20.966421 20.966421H524.160524c27.256347 0 27.256347-41.932842 0-41.932842zM524.160524 612.743653h-82.502866l20.966421 20.966421v-82.18837c0-27.151515-41.932842-27.256347-41.932842 0v82.293202a21.490581 21.490581 0 0 0 20.966421 20.966421H524.160524c27.256347 0 27.256347-41.932842 0-41.932842zM524.160524 466.398034h-82.502866l20.966421 20.966421v-82.293202c0-27.151515-41.932842-27.151515-41.932842 0v82.398034a20.966421 20.966421 0 0 0 20.966421 20.966421H524.160524c27.256347 0 27.256347-41.932842 0-41.932841z" fill="#49494A" p-id="9490"></path><path d="M1250.856675 455.70516h109.759214v47.908272h-109.759214zM1250.856675 551.521704h109.759214v47.908271h-109.759214zM1250.856675 687.908272h109.759214v47.908272h-109.759214zM1250.856675 783.724816h109.759214v47.908272h-109.759214z" fill="#F3D24F" p-id="9491"></path><path d="M1360.615889 482.227682h-109.759214l20.966421 20.966421v-47.488943c0-27.256347-41.932842-27.256347-41.932842 0V503.194103a21.490581 21.490581 0 0 0 20.966421 20.966421h109.759214c27.151515 0 27.256347-41.932842 0-41.932842zM1360.615889 578.25389h-109.759214l20.966421 20.966421v-47.698607c0-27.151515-41.932842-27.256347-41.932842 0v47.803439a21.490581 21.490581 0 0 0 20.966421 20.966421h109.759214c27.151515 0 27.256347-41.932842 0-41.932842zM1360.615889 714.640459h-109.759214l20.966421 20.966421v-47.698608c0-27.151515-41.932842-27.151515-41.932842 0v47.908272a20.966421 20.966421 0 0 0 20.966421 20.966421h109.759214c27.151515 0 27.256347-41.932842 0-41.932842z" fill="#49494A" p-id="9492"></path><path d="M1360.615889 810.561835h-109.759214l20.966421 20.966421v-47.80344c0-27.151515-41.932842-27.151515-41.932842 0v47.908272a20.966421 20.966421 0 0 0 20.966421 20.966421h109.759214c27.151515 0 27.256347-41.932842 0-41.932842z" fill="#49494A" p-id="9493"></path></svg>