<?xml version="1.0" standalone="no"?><!DOCTYPE svg PUBLIC "-//W3C//DTD SVG 1.1//EN" "http://www.w3.org/Graphics/SVG/1.1/DTD/svg11.dtd"><svg t="1575526658293" class="icon" viewBox="0 0 2008 1024" version="1.1" xmlns="http://www.w3.org/2000/svg" p-id="12357" xmlns:xlink="http://www.w3.org/1999/xlink" width="392.1875" height="200"><defs><style type="text/css"></style></defs><path d="M1007.71455 128.569548C636.215033 128.569548 294.702023 88.587538 28.155284 21.742613l978.726308 628.571353 976.643911-627.426035c-266.02614 66.011966-605.769112 105.681617-975.810953 105.681617z" fill="#92CAEE" p-id="12358"></path><path d="M1007.71455 220.611469a4532.439882 4532.439882 0 0 0 766.842474-62.471892L1983.525503 24.449728C1717.499363 90.461694 1377.75639 130.027226 1007.71455 130.027226 636.215033 130.027226 294.702023 90.149335 28.155284 23.51265L237.748482 158.139577a4519.529025 4519.529025 0 0 0 769.966068 62.471892z" fill="#5DA1D3" p-id="12359"></path><path d="M1006.569232 465.605406L456.295984 297.035417l550.273248 353.486789 550.273249-353.590909-550.273249 168.674109z" fill="#F3D24F" p-id="12360"></path><path d="M195.059356 1024c27.175273 0 27.175273-42.168527 0-42.168527s-27.175273 42.168527 0 42.168527z" fill="#49494A" p-id="12361"></path><path d="M69.907332 873.234501s359.733978 0.937078 424.704746 0a50.810472 50.810472 0 0 0-3.435954-101.100345h-185.33328a49.352795 49.352795 0 0 0-48.103357-50.706353H198.911789a49.352795 49.352795 0 0 0-48.103357 50.706353H69.907332a50.706352 50.706352 0 0 0 0 101.308584z" fill="#ECEBEB" p-id="12362"></path><path d="M69.907332 894.370824c141.602955 0 283.20591 1.770037 424.704746 0a21.448683 21.448683 0 0 0 20.823964-20.823964l-15.513854 20.303365C585.092201 875.525137 573.743141 756.203823 488.260769 750.581353c-60.285376-3.852433-121.924309 0-182.417925 0l20.823964 20.823964c-12.910858-101.100345-184.81268-100.996225-197.827658 0l20.823964-20.823964c-38.940813 0-92.56252-10.411982-124.943784 17.07565-48.207477 40.814969-20.823964 117.238917 38.420214 125.672623 26.654674 3.748314 38.107854-36.858416 11.24494-40.71085-60.285376-8.537825-26.550554-53.101108 0-59.764776a130.878614 130.878614 0 0 1 29.25767 0h45.188002a21.761042 21.761042 0 0 0 20.823964-20.823964c1.145318-8.850185 27.279393-27.487632 34.56778-29.570029a87.044169 87.044169 0 0 1 22.073402 0c20.823964 0 52.05991-5.414231 56.745302 29.570029a21.656923 21.656923 0 0 0 20.823963 20.823964h163.884597a77.985745 77.985745 0 0 1 17.075651 0c26.238195 6.455429 59.868896 47.790997 4.164792 59.556537a21.448683 21.448683 0 0 0-15.513853 20.823964l20.823964-20.823964c-141.498835 1.770037-283.10179 0-424.704745 0C42.732059 851.994057 42.732059 894.266704 69.907332 894.370824zM100.830919 958.820993h309.652344c27.071153 0 27.175273-42.272647 0-42.272647H100.830919C73.968005 917.173065 73.968005 958.820993 100.830919 958.820993zM265.548474 1024h101.308585c27.175273 0 27.175273-42.168527 0-42.168527H265.548474c-27.175273 0-27.175273 42.168527 0 42.168527zM1497.181824 701.749157c27.175273 0 27.279393-42.272647 0-42.272647s-27.175273 42.272647 0 42.272647zM1915.327021 659.68475h-349.842595c-27.175273 0-27.175273 41.647928 0 41.647928h349.842595c27.175273 0 27.175273-41.647928 0-41.647928zM1983.525503 701.853277c27.175273 0 27.175273-41.647928 0-41.647928s-27.175273 41.647928 0 41.647928zM1915.327021 737.566375h-492.694988c-27.175273 0-27.175273 41.647928 0 41.647928h492.694988c27.175273 0 27.175273-41.647928 0-41.647928zM1007.71455 107.433225C681.090675 106.808506 351.655565 80.049712 33.777755 1.647488a20.823964 20.823964 0 0 0-16.242692 38.524333l856.906118 550.585608 121.40371 77.985745a20.823964 20.823964 0 0 0 20.823964 0l855.65668-549.752649 121.29959-77.881625a20.823964 20.823964 0 0 0-15.722092-38.628454c-316.732492 77.673386-644.814045 104.11982-970.188483 104.952779-27.175273 0-27.175273 42.272647 0 42.272647 329.018631-0.728839 661.160857-27.904112 981.433423-106.514576l-16.242692-38.524333-855.7608 549.752649-121.29959 77.881625h20.823964L160.283336 81.819749 38.879626 3.729884 22.636934 42.566577C343.950698 121.59352 677.862961 148.977033 1007.71455 149.705872c27.175273 0 27.175273-42.168527 0-42.272647z" fill="#49494A" p-id="12363"></path><path d="M1027.705556 650.522206V128.569548c0-27.175273-42.272647-27.279393-42.272647 0v521.952658c0 27.175273 42.272647 27.279393 42.272647 0z" fill="#49494A" p-id="12364"></path><path d="M1021.458367 665.51546c170.131786-146.808946 305.071072-346.719 406.796136-544.754898 12.390259-24.051678-24.051678-45.500361-36.441937-20.823964-100.371506 194.912303-232.395438 390.865804-400.236588 536.112953-20.823964 17.804489 9.370784 47.478638 29.882389 29.882388zM717.116133 259.344042c-31.235946-48.623956-64.033689-96.935552-90.584243-148.266623-12.494378-24.155798-48.936315-2.811235-36.441937 20.823964 26.550554 51.435191 59.452417 99.642668 90.584243 148.266623 14.576775 22.802241 51.122832 1.665917 36.441937-20.823964zM735.753581 357.424913c27.175273 0 27.279393-42.272647 0-42.272647s-27.175273 42.272647 0 42.272647z" fill="#49494A" p-id="12365"></path><path d="M1020.833648 636.049551c-84.232934-72.883874-157.012688-161.593961-223.337014-249.887568-16.138572-21.552803-52.788749-0.520599-36.441937 20.823964 68.614961 91.833681 142.852393 183.667362 229.896562 258.945992 20.823964 17.700369 50.393993-12.077899 29.882389-29.882388zM370.293013 306.82268l-125.880863-80.79698c-22.90636-14.680895-44.146804 21.865162-20.823964 36.441937l125.776743 80.9011c22.90636 14.680895 44.146804-21.865162 21.344563-36.546057zM422.040563 386.161983c26.758794 0 26.758794-41.647928 0-41.647928s-27.175273 41.647928 0 41.647928z" fill="#49494A" p-id="12366"></path><path d="M1558.196038 361.173226l-562.247027 361.295775h20.823964L574.784339 438.221893c-22.90636-14.785014-44.042684 21.761042-20.823964 36.441937l442.300995 284.247108a20.823964 20.823964 0 0 0 20.823964 0l562.247028-361.295775c22.802241-14.680895 1.665917-51.226951-20.823964-36.546057zM1668.979527 332.852635c27.175273 0 27.175273-42.272647 0-42.272647s-27.175273 42.272647 0 42.272647z" fill="#49494A" p-id="12367"></path><path d="M690.773818 672.075009V524.328984c0-27.175273-41.647928-27.175273-41.647928 0v147.746025c0 27.175273 41.647928 27.175273 41.647928 0zM669.637495 756.203823c27.175273 0 27.279393-42.168527 0-42.168527s-27.175273 42.168527 0 42.168527zM854.033696 915.611267H669.637495l20.823964 20.823964V797.435272c0-27.175273-41.647928-27.175273-41.647928 0v139.208199a21.448683 21.448683 0 0 0 20.823964 20.823964h184.396201c27.175273 0 27.175273-42.168527 0-42.168527zM1307.891991 533.595648v403.047823l20.823964-20.823964h-170.652385c-27.175273 0-27.175273 42.168527 0 42.168527h170.964745a21.448683 21.448683 0 0 0 20.823964-20.823964V533.595648c0-27.175273-42.272647-27.279393-42.272647 0z" fill="#49494A" p-id="12368"></path><path d="M1104.754223 865.113155a96.831433 96.831433 0 1 1-123.069628-59.764777A96.727313 96.727313 0 0 1 1104.754223 865.113155z" fill="#92CAEE" p-id="12369"></path><path d="M1083.930259 870.839745c26.862914 92.56252-108.701092 144.72655-142.123555 52.05991s105.889857-142.019434 142.123555-52.05991c10.411982 24.884637 50.914592 14.056176 40.710849-11.244941-24.051678-59.556537-85.378252-95.477875-148.995462-74.549791a117.863636 117.863636 0 1 0 148.995462 74.549791c-7.600747-25.717596-48.415716-15.305614-40.710849 11.244941z" fill="#49494A" p-id="12370"></path></svg>