<?xml version="1.0" standalone="no"?><!DOCTYPE svg PUBLIC "-//W3C//DTD SVG 1.1//EN" "http://www.w3.org/Graphics/SVG/1.1/DTD/svg11.dtd"><svg t="1575526620439" class="icon" viewBox="0 0 2004 1024" version="1.1" xmlns="http://www.w3.org/2000/svg" p-id="11041" xmlns:xlink="http://www.w3.org/1999/xlink" width="391.40625" height="200"><defs><style type="text/css"></style></defs><path d="M1145.297407 510.177936v-100.473818c0-88.812608 84.335536-166.588714 187.412303-160.862227 39.148348 2.290595 44.770717-31.235384 38.211286-46.748958C1324.796746 96.3091 1205.894052 20.823589 1066.271886 20.823589 886.772547 20.823589 741.215658 145.765125 741.215658 299.234977c0 40.814235 17.283579 171.065785 54.76604 170.649314 98.183223-0.937062 177.625216 95.476157 177.625216 96.100864 9.891205 17.595933 60.492527 11.036502 92.664972 11.557092 65.698424 1.041179 79.025521-47.581901 79.025521-67.364311z" fill="#92CAEE" p-id="11042"></path><path d="M810.037621 330.782715C806.914082 146.806304 942.996238 47.373665 1116.664972 24.571835a390.650534 390.650534 0 0 0-52.058973-3.54001C885.002542 20.823589 739.237417 145.765125 739.237417 299.234977c0 40.814235 17.283579 171.065785 54.76604 170.649314a162.73635 162.73635 0 0 1 39.877173 4.789425 559.321607 559.321607 0 0 1-23.843009-143.891001z" fill="#5DA1D3" p-id="11043"></path><path d="M1166.120996 510.177936c0-50.70544-9.266497-112.759736 14.992985-159.092222a157.322217 157.322217 0 0 1 112.239146-79.025521c32.901271-5.726487 74.236096 5.726487 93.706151-29.465379 29.361261-52.058973-37.794814-121.193289-72.882562-152.428673A372.846365 372.846365 0 0 0 1090.219014 0.728826c-151.59573-9.474733-318.496797 74.756685-360.768684 229.059481-16.450635 60.180173-9.058261 127.336248 7.600611 187.412303 6.038841 21.656533 14.368277 50.18485 33.317742 64.449009 27.487138 20.823589 70.800203 13.847687 102.556177 30.194204 62.470768 32.380681 79.546111 87.667311 152.532791 87.979665 64.969598 0 136.290391-10.411795 140.45511-89.22908 1.457651-27.174784-40.814235-27.070666-41.647179 0-2.915302 54.974276-102.972649 61.429588-137.539807 38.00305-36.857753-24.988307-61.533706-59.347229-104.117946-79.129639-25.196543-11.66121-55.286629-10.411795-79.129639-20.823589s-27.070666-47.269548-31.755973-71.008439c-11.452974-57.368988-13.431215-114.529741 11.036502-169.399899C843.875953 71.216675 1015.254093 17.491815 1153.314489 52.891917a301.1091 301.1091 0 0 1 180.540519 124.941535c4.789426 7.496492 22.073005 32.068327 17.70005 41.022471-6.351195 13.222979-41.647178 9.266497-52.058973 10.411794a205.945297 205.945297 0 0 0-82.253177 26.758312c-98.599695 57.78546-93.706151 155.13574-93.706152 254.568379 0.208236 26.758312 42.58424 26.758312 42.58424-0.416472zM1026.082359 669.894865v105.887951c0 27.174784 42.271886 27.278902 42.271886 0V669.894865c0-27.174784-42.271886-27.278902-42.271886 0z" fill="#49494A" p-id="11044"></path><path d="M882.087239 504.555567c6.975902 93.706151 63.928419 183.872293 165.131063 186.475241 27.174784 0.624708 27.174784-41.647178 0-42.271886-77.255516-1.978241-117.861515-76.110219-122.963294-144.203355-1.978241-26.966548-44.250127-27.174784-41.647179 0z" fill="#49494A" p-id="11045"></path><path d="M1069.811896 578.375191a72.153737 72.153737 0 0 1-33.317742 72.882562c-23.84301 12.910625-2.602949 49.351906 20.823589 36.441281a110.989731 110.989731 0 0 0 54.141332-109.740315c-3.123538-26.654194-45.395425-26.966548-41.647179 0zM864.178953 244.677173c27.174784 0 27.174784-42.167768 0-42.167768s-27.070666 42.167768 0 42.167768zM1006.716421 153.469853c27.174784 0 27.174784-42.167768 0-42.167769s-27.278902 42.167768 0 42.167769zM1141.340925 153.469853c27.174784 0 27.278902-42.167768 0-42.167769s-27.174784 42.167768 0 42.167769zM864.178953 362.018099c27.174784 0 27.174784-42.271886 0-42.271886s-27.174784 42.271886 0 42.271886zM743.193899 120.985053a371.284596 371.284596 0 0 1 70.696086-72.153736 20.823589 20.823589 0 0 0 0-29.881851 21.552415 21.552415 0 0 0-29.777733 0 409.391764 409.391764 0 0 0-77.463752 80.691408c-16.034164 21.968887 20.823589 43.000712 36.545399 20.82359zM692.384342 188.661718c27.174784 0 27.174784-42.271886 0-42.271886s-27.278902 42.271886 0 42.271886zM683.84667 299.234977a314.644433 314.644433 0 0 1 7.184138-64.657244c5.830605-26.445958-34.775394-37.690696-40.710117-11.140621a364.412811 364.412811 0 0 0-8.641789 75.797865c0 27.174784 41.647178 27.278902 42.167768 0zM1563.018607 995.263447c27.174784 0 27.278902-41.647178 0-41.647179s-27.174784 41.647178 0 41.647179zM1901.818404 889.271378c-36.233045-20.094764-56.640163-55.286629-99.640875-65.38607a110.885613 110.885613 0 0 0-100.265582 24.051245c-20.823589 17.804169 9.370615 47.477783 29.881851 29.777733 56.744281-49.143671 104.117946 23.114184 148.784545 47.998373 23.738892 13.118861 45.083071-23.32242 20.823589-36.441281zM1960.540925 937.790341c27.174784 0 27.278902-42.271886 0-42.271887s-27.174784 42.271886 0 42.271887z" fill="#49494A" p-id="11046"></path><path d="M1586.965735 883.753127l71.008439-71.112558c62.470768-62.470768 177.000508-58.201932 246.551296 19.157702 26.133604 29.257143 54.141332 9.162379 60.076055-6.03884 42.271886-107.345602 11.452974-244.781291-87.250839-343.589223-126.919776-126.919776-317.976207-141.704525-426.883579-33.005388-28.840671 28.736553-108.699136 133.062735-81.940823 159.300457 70.175496 68.717844 58.201932 193.13879 57.681342 193.65938-5.414133 19.365938 34.98363 50.497204 57.368988 73.611388 46.020132 47.269548 89.333198 21.968887 103.389121 8.017082z" fill="#F3D24F" p-id="11047"></path><path d="M1477.121301 520.589731c127.856838-132.33391 294.445552-106.408541 433.234774 0a379.405796 379.405796 0 0 0-34.254804-39.460702C1749.181495 354.001017 1558.125064 339.320386 1449.425928 447.707168c-28.840671 28.840671-108.699136 133.166853-81.836706 159.404576a159.716929 159.716929 0 0 1 24.780071 31.235384A555.052771 555.052771 0 0 1 1477.121301 520.589731z" fill="#BFAD65" p-id="11048"></path><path d="M1601.854601 898.641993c34.358922-34.358922 70.279614-83.294357 117.028571-100.057346a156.176919 156.176919 0 0 1 135.35333 17.595933c29.257143 18.845348 50.809558 58.930757 90.999085 49.976614 61.221352-13.639451 62.470768-116.820336 58.30605-164.818709A376.074021 376.074021 0 0 0 1903.796645 478.942552c-102.035587-111.302084-279.869039-166.588714-416.471785-84.960244-53.412506 31.964209-96.517336 85.793188-125.566243 140.350991-10.411795 19.053584-22.80183 43.521301-18.74123 65.90666 6.247077 34.046568 40.814235 59.347229 52.058973 93.706152 18.324759 58.722522-5.205897 112.447382 35.087748 157.63457 45.60366 51.121912 109.323843 101.514997 172.106965 46.12425 20.823589-18.012405-9.474733-47.790137-29.777733-29.88185-35.295984 31.235384-71.633147-5.934723-97.662633-31.235384-17.700051-17.179461-24.363599-25.404779-26.029487-47.790137-3.435892-46.332486-4.0606-89.124962-22.905948-133.062735-7.912964-18.324759-39.252466-49.66426-40.501881-67.884901-1.561769-20.823589 24.467717-52.058973 35.712455-68.821963 34.775394-50.393086 76.734926-91.727911 136.498628-110.885612 141.912761-45.291307 296.527911 43.729537 364.933401 167.629893 34.98363 63.303711 49.976614 139.518048 32.588917 210.422369a67.780783 67.780783 0 0 1-5.726487 20.094764c-27.591256 34.150686-26.237722 6.142959-40.189527-1.353534a337.13391 337.13391 0 0 1-27.487138-22.177122 204.8 204.8 0 0 0-83.294357-32.901271c-102.764413-15.825928-160.862227 52.787799-226.040061 118.069751-19.574174 20.094764 10.203559 49.976614 29.465379 30.714794zM1390.078699 912.697916l-74.860804 74.964921c-19.26182 19.157702 10.411795 49.039553 29.777733 29.777732l74.964921-74.860803c19.26182-19.26182-10.411795-49.143671-29.88185-29.88185z" fill="#49494A" p-id="11049"></path><path d="M1405.592272 693.946111c-61.741942 72.153737-83.294357 173.772852-15.097102 248.633655 18.428876 20.094764 48.206609-10.411795 29.881851-29.88185-52.058973-56.640163-31.235384-135.35333 14.992984-188.869955 17.595933-20.823589-12.077682-50.601322-29.777733-29.88185z" fill="#49494A" p-id="11050"></path><path d="M1485.658973 878.859583a71.945501 71.945501 0 0 1-75.069039 28.424199c-26.029487-7.808846-37.170107 33.005389-11.14062 40.710117a110.989731 110.989731 0 0 0 116.09151-39.252465c16.762989-20.823589-12.910625-51.121912-29.881851-29.881851zM1591.23457 503.826741c27.174784 0 27.278902-42.271886 0-42.271886s-27.174784 42.271886 0 42.271886zM1756.469751 540.059786c27.174784 0 27.174784-42.271886 0-42.271886s-27.278902 42.271886 0 42.271886zM1851.633554 635.119471c27.174784 0 27.278902-42.271886 0-42.271886s-27.174784 42.271886 0 42.271886zM1508.356685 586.704626c27.174784 0 27.174784-42.167768 0-42.167768s-27.278902 42.167768 0 42.167768zM45.811896 739.237417a379.822267 379.822267 0 0 1-0.937061-100.786171c3.123538-26.966548-39.148348-26.758312-41.647179 0a416.471784 416.471784 0 0 0 1.874123 112.135028C9.058261 777.344586 49.768378 765.99573 45.811896 739.237417zM42.896594 829.611795c27.174784 0 27.174784-42.271886 0-42.271887s-27.278902 42.271886 0 42.271887zM130.043315 907.596136a311.208541 311.208541 0 0 1-40.814235-51.017793c-14.472395-22.80183-51.121912-1.665887-36.441281 20.823589A362.95516 362.95516 0 0 0 100.161464 937.061515c19.157702 19.365938 49.039553-10.411795 29.881851-29.881851z" fill="#49494A" p-id="11051"></path><path d="M608.152923 746.005084l-71.112557-71.112557c-62.470768-62.470768-58.201932-177.000508 19.157702-246.447179 29.257143-26.133604 9.162379-54.141332-6.038841-60.180173-107.345602-41.647178-244.781291-11.348856-343.589222 87.354957C79.754347 583.060498 64.969598 773.59634 173.668734 882.191357 202.509405 911.032028 306.731469 990.994611 333.177428 964.132181c68.717844-70.071378 193.13879-58.097814 193.659379-57.577224 19.365938 5.414133 50.497204-34.98363 73.611388-57.368989 46.957194-45.811896 21.760651-89.124962 7.704728-103.180884z" fill="#ECEBEB" p-id="11052"></path><path d="M623.04179 731.0121c-34.358922-34.358922-83.294357-70.175496-99.953229-117.028572a155.239858 155.239858 0 0 1 17.491815-135.35333c18.949466-29.361261 58.930757-50.913676 49.976614-90.999085-13.639451-61.221352-116.820336-62.470768-164.818708-58.306049a375.449314 375.449314 0 0 0-221.979461 99.432638c-111.197966 102.035587-166.588714 279.869039-84.960244 416.471785 31.964209 53.412506 85.897306 96.517336 140.350991 125.566243 19.053584 10.411795 43.625419 22.80183 66.010778 18.637112 33.94245-6.247077 59.347229-40.814235 93.706151-52.058973 58.722522-18.324759 112.447382 5.205897 157.634571-35.087748 51.226029-45.60366 101.514997-109.323843 46.12425-172.211083-18.012405-20.823589-47.790137 9.578851-29.881851 29.881851 31.235384 35.295984-5.934723 71.529029-31.235384 97.662633-17.283579 17.700051-25.508897 24.363599-47.790137 25.925369-46.332486 3.435892-89.22908 4.164718-133.166853 23.010066-18.324759 7.912964-49.66426 39.252466-67.884901 40.501881-20.823589 1.457651-52.579563-24.467717-68.821962-35.712456-50.393086-34.775394-91.727911-76.734926-110.781495-136.602745C88.083782 633.765938 177.000508 478.942552 301.004982 410.849415c63.303711-34.98363 139.518048-49.976614 210.422369-32.588917a64.86548 64.86548 0 0 1 20.094764 5.726487c34.150686 27.591256 6.142959 26.237722-1.353533 40.189527-4.997661 9.474733-15.930046 18.324759-22.073005 27.38302a203.758821 203.758821 0 0 0-32.901271 83.294357C459.26426 637.618302 527.982105 695.611998 593.472293 760.89395c18.949466 19.26182 48.831317-10.620031 29.569497-29.88185z" fill="#49494A" p-id="11053"></path><path d="M244.573055 855.849517c-132.33391-127.856838-106.408541-294.445552 0-433.338892a393.3576 393.3576 0 0 0-39.460701 34.358923c-126.919776 126.919776-141.704525 317.976207-33.005389 426.883579 28.736553 28.736553 133.062735 108.699136 159.300457 81.836705a162.73635 162.73635 0 0 1 31.235384-24.780071 555.052771 555.052771 0 0 1-118.069751-84.960244z" fill="#BBBCBE" p-id="11054"></path><path d="M623.04179 731.0121c-34.358922-34.358922-83.294357-70.175496-99.953229-117.028572a155.239858 155.239858 0 0 1 17.491815-135.35333c18.949466-29.361261 58.930757-50.913676 49.976614-90.999085-13.639451-61.221352-116.820336-62.470768-164.818708-58.306049a375.449314 375.449314 0 0 0-221.979461 99.432638c-111.197966 102.035587-166.588714 279.869039-84.960244 416.471785 31.964209 53.412506 85.897306 96.517336 140.350991 125.566243 19.053584 10.411795 43.625419 22.80183 66.010778 18.637112 33.94245-6.247077 59.347229-40.814235 93.706151-52.058973 58.722522-18.324759 112.447382 5.205897 157.634571-35.087748 51.226029-45.60366 101.514997-109.323843 46.12425-172.211083-18.012405-20.823589-47.790137 9.578851-29.881851 29.881851 31.235384 35.295984-5.934723 71.529029-31.235384 97.662633-17.283579 17.700051-25.508897 24.363599-47.790137 25.925369-46.332486 3.435892-89.22908 4.164718-133.166853 23.010066-18.324759 7.912964-49.66426 39.252466-67.884901 40.501881-20.823589 1.457651-52.579563-24.467717-68.821962-35.712456-50.393086-34.775394-91.727911-76.734926-110.781495-136.602745C88.083782 633.765938 177.000508 478.942552 301.004982 410.849415c63.303711-34.98363 139.518048-49.976614 210.422369-32.588917a64.86548 64.86548 0 0 1 20.094764 5.726487c34.150686 27.591256 6.142959 26.237722-1.353533 40.189527-4.997661 9.474733-15.930046 18.324759-22.073005 27.38302a203.758821 203.758821 0 0 0-32.901271 83.294357C459.26426 637.618302 527.982105 695.611998 593.472293 760.89395c18.949466 19.26182 48.831317-10.620031 29.569497-29.88185zM637.097712 942.89212l74.964921 74.860803c19.26182 19.26182 49.039553-10.411795 29.881851-29.777732l-74.964921-74.964922c-19.26182-19.26182-49.143671 10.411795-29.881851 29.881851z" fill="#49494A" p-id="11055"></path><path d="M418.345907 927.795018c72.153737 61.637824 173.772852 83.294357 248.633656 15.097102 20.094764-18.428876-10.411795-48.206609-29.881851-29.881851-56.640163 52.058973-135.35333 31.235384-188.869954-15.097102-20.823589-17.491815-50.497204 12.1818-29.881851 29.881851z" fill="#49494A" p-id="11056"></path><path d="M603.25938 847.207728a72.049619 72.049619 0 0 1 28.424199 75.069039c-7.704728 26.133604 33.005389 37.274225 40.710117 11.244738a110.885613 110.885613 0 0 0-39.252466-116.09151c-20.823589-16.762989-51.121912 12.910625-29.88185 29.777733zM207.090595 762.768073c27.174784 0 27.278902-42.167768 0-42.167768s-27.174784 42.167768 0 42.167768zM243.32364 597.637011c27.174784 0 27.278902-41.647178 0-41.647179s-27.174784 41.647178 0 41.647179zM338.591561 502.36909c27.174784 0 27.174784-41.647178 0-41.647178s-27.174784 41.647178 0 41.647178zM290.072598 845.750076c27.174784 0 27.174784-42.271886 0-42.271886s-27.278902 42.271886 0 42.271886z" fill="#49494A" p-id="11057"></path></svg>