<?xml version="1.0" standalone="no"?><!DOCTYPE svg PUBLIC "-//W3C//DTD SVG 1.1//EN" "http://www.w3.org/Graphics/SVG/1.1/DTD/svg11.dtd"><svg t="1575526583465" class="icon" viewBox="0 0 2017 1024" version="1.1" xmlns="http://www.w3.org/2000/svg" p-id="9781" xmlns:xlink="http://www.w3.org/1999/xlink" width="393.9453125" height="200"><defs><style type="text/css"></style></defs><path d="M332.828992 269.046433a283.700607 283.700607 0 1 0 283.595182 283.595181 283.595182 283.595182 0 0 0-283.595182-283.595181z m2.21394 400.617728A118.076804 118.076804 0 1 1 453.330588 551.903634a117.971379 117.971379 0 0 1-118.287656 117.971379z" fill="#5DA1D3" p-id="9782"></path><path d="M1013.879131 19.820035a283.700607 283.700607 0 1 0 283.700607 283.700607A283.700607 283.700607 0 0 0 1013.879131 19.820035z m2.21394 400.617729a118.076804 118.076804 0 1 1 118.076804-118.076804 117.971379 117.971379 0 0 1-118.076804 118.393081z" fill="#BFAD65" p-id="9783"></path><path d="M1676.268918 265.567384a283.700607 283.700607 0 1 0 283.595182 283.700607A283.700607 283.700607 0 0 0 1676.268918 265.567384z m2.21394 400.617729A118.076804 118.076804 0 1 1 1796.875939 548.213734a118.076804 118.076804 0 0 1-117.971378 118.287656z" fill="#5DA1D3" p-id="9784"></path><path d="M1676.268918 788.37352a241.214043 241.214043 0 1 1 241.53032-241.214043A241.424894 241.424894 0 0 1 1676.268918 788.37352z m2.21394-402.515392a160.563369 160.563369 0 1 0 160.457943 160.563369 160.668794 160.668794 0 0 0-160.03624-160.563369zM332.828992 788.37352A241.214043 241.214043 0 1 1 573.937609 547.159477a241.424894 241.424894 0 0 1-241.108617 241.214043z m2.21394-402.515392A160.563369 160.563369 0 1 0 495.500875 546.421497 160.668794 160.668794 0 0 0 335.042932 385.858128z" fill="#92CAEE" p-id="9785"></path><path d="M1013.879131 550.849377a241.214043 241.214043 0 1 1 241.214043-241.214043 241.424894 241.424894 0 0 1-241.214043 241.214043z m2.21394-402.515392a160.563369 160.563369 0 1 0 160.563369 160.457943 160.668794 160.668794 0 0 0-160.563369-160.457943z" fill="#F3D24F" p-id="9786"></path><path d="M21.085144 1023.894574a229.511788 229.511788 0 0 0 146.647174-58.405848H137.053434a217.914959 217.914959 0 0 0 293.294347 0H400.617729a218.020385 218.020385 0 0 0 293.399773 0H664.182024a218.020385 218.020385 0 0 0 293.399774 0h-30.468033a217.914959 217.914959 0 0 0 293.294348 0h-30.04633a229.511788 229.511788 0 0 0 146.647174 58.405848c27.410687 1.265109 27.305261-41.221456 0-42.170287a182.913621 182.913621 0 0 1-116.600844-46.071039 21.928549 21.928549 0 0 0-30.04633 0 173.952435 173.952435 0 0 1-233.201688 0 21.928549 21.928549 0 0 0-30.04633 0 173.952435 173.952435 0 0 1-233.307114 0 21.928549 21.928549 0 0 0-30.04633 0 173.952435 173.952435 0 0 1-233.307114 0 21.928549 21.928549 0 0 0-30.04633 0 173.847009 173.847009 0 0 1-233.201688 0 21.928549 21.928549 0 0 0-30.04633 0A182.491918 182.491918 0 0 1 21.085144 981.513436c-27.305261 1.159683-27.410687 43.646247 0 42.170287z" fill="#49494A" p-id="9787"></path><path d="M1337.008957 1023.894574a229.933491 229.933491 0 0 0 146.7526-58.405848h-30.04633a217.914959 217.914959 0 0 0 293.294348 0h-30.04633a218.020385 218.020385 0 0 0 293.399774 0c21.085144-17.922372-9.488315-47.863276-30.04633-30.046329a174.057861 174.057861 0 0 1-233.307114 0 21.928549 21.928549 0 0 0-30.04633 0 173.952435 173.952435 0 0 1-233.201688 0 21.928549 21.928549 0 0 0-30.04633 0 182.491918 182.491918 0 0 1-116.70627 46.071039c-27.199835 1.159683-27.305261 43.646247 0 42.170287zM205.053022 319.3345c27.410687 0 27.410687-42.170287 0-42.170287s-27.305261 42.170287 0 42.170287z" fill="#49494A" p-id="9788"></path><path d="M337.362298 286.757953c121.661279 3.162772 228.141254 84.340574 255.868218 204.104191a265.040255 265.040255 0 0 1-143.906105 295.719139 265.145681 265.145681 0 0 1-316.277155-71.90034c-88.663029-109.010193-71.267785-264.618552 27.83239-360.028827 19.714609-18.976629-10.542572-49.022959-30.04633-30.04633-175.639246 169.313703-96.253681 479.37074 150.4425 524.282096C511.420159 890.741892 706.352311 658.910738 622.011737 439.625245c-46.176465-118.498507-159.614537-192.085658-284.649439-195.24843-27.305261-0.73798-27.305261 42.170287 0 42.170287z" fill="#49494A" p-id="9789"></path><path d="M628.126428 720.373932a274.739421 274.739421 0 0 1-119.341912 124.402347c-24.037064 12.861938-2.635643 49.550088 21.085143 36.582724a312.060126 312.060126 0 0 0 134.944919-139.58365c11.913106-24.458767-24.669618-46.071039-36.68815-21.085144zM676.305982 796.807577A269.889838 269.889838 0 0 1 599.239782 875.03346c-22.561104 15.075878-1.370534 51.869453 21.085143 36.582724a321.970143 321.970143 0 0 0 92.352929-93.723463c14.865026-23.088232-21.928549-44.384227-36.688149-21.085144zM722.693298 770.661999c27.305261 0 27.410687-42.170287 0-42.170287s-27.410687 42.170287 0 42.170287zM1778.742716 224.662205A276.531659 276.531659 0 0 1 1930.766601 305.734583c19.082055 19.609184 49.128385-10.542572 30.04633-30.04633a315.6446 315.6446 0 0 0-170.789663-91.931226c-26.778132-5.060434-38.16411 35.844744-11.280552 40.905178zM1866.035211 167.099763a269.889838 269.889838 0 0 1 69.580973 43.224545c21.085144 17.711521 50.815196-12.229383 30.04633-30.04633a332.301863 332.301863 0 0 0-88.1359-53.767116 21.085144 21.085144 0 0 0-26.145578 14.7596 21.823124 21.823124 0 0 0 14.654175 25.829301zM1781.694636 147.596005c27.305261 0 27.410687-42.170287 0-42.170287s-27.410687 42.170287 0 42.170287zM433.82683 549.267991c-6.64182 123.875219-193.561618 125.034902-193.561618 0s186.919798-124.08607 193.561618 0c1.47596 27.09441 43.962524 27.305261 42.170287 0-3.6899-75.59024-60.092659-139.267374-138.634819-139.267373a139.161948 139.161948 0 0 0-6.430969 278.113044c81.388654 3.6899 141.481314-60.725214 145.698343-138.845671 1.159683-27.305261-41.326881-27.305261-42.802842 0zM1905.148152 413.374241c126.510862 224.873057-107.217955 481.58468-342.211881 370.571399-24.564192-11.596829-46.176465 24.985895-21.085144 36.68815 121.13415 57.246165 265.356532 37.953259 359.396273-60.725214s108.272212-248.804695 41.010605-367.935756c-13.494492-23.826212-50.182642-2.424792-36.68815 21.085144zM1887.120354 375.842685c27.305261 0 27.410687-42.170287 0-42.170287s-27.410687 42.170287 0 42.170287zM1492.406466 732.181612c-89.084732-96.464532-100.049006-244.798517-15.708432-347.904869 82.759189-101.841244 225.189334-123.031813 338.100278-60.198086 23.826212 13.28364 45.333059-23.404509 21.085143-36.688149-133.890662-74.535983-303.731494-46.176465-397.982086 77.487902-92.142078 121.028724-77.487903 287.706785 24.14249 397.771235 18.554926 20.030886 48.601256-10.542572 30.046329-30.04633z" fill="#49494A" p-id="9790"></path><path d="M1777.372182 549.267991c-6.64182 123.875219-193.667044 125.034902-193.667045 0s187.025224-124.08607 193.667045 0c1.47596 27.09441 43.962524 27.305261 42.170287 0-4.111603-75.59024-60.514362-139.267374-139.267374-139.267373a139.161948 139.161948 0 0 0-6.430969 278.113044c81.283229 3.6899 141.481314-60.725214 145.698343-138.845671 1.792237-27.305261-40.694327-27.305261-42.170287 0zM1013.141151 607.568413c27.305261 0 27.410687-42.170287 0-42.170287s-27.305261 42.170287 0 42.170287z" fill="#49494A" p-id="9791"></path><path d="M919.417688 548.213734C798.072686 496.449707 725.434366 368.990013 759.06517 237.418717a262.510038 262.510038 0 0 1 515.742613 43.540822c10.542572 130.938742-77.171626 244.798517-202.206527 277.48049-26.461855 6.852672-15.181303 47.863276 11.280552 40.905178 232.990837-60.830639 316.277154-363.824153 129.98991-526.074333C1035.0697-82.442912 744.832698 24.247915 711.518172 259.558118a308.159374 308.159374 0 0 0 186.498095 325.343766c24.880469 10.542572 46.492742-26.040152 21.085143-36.68815z" fill="#49494A" p-id="9792"></path><path d="M1109.92196 303.520642c-6.64182 123.980644-193.561618 125.034902-193.561618 0s186.919798-123.980644 193.561618 0c1.47596 27.199835 43.962524 27.410687 42.170288 0-4.006177-75.484814-60.408936-139.267374-139.267374-139.267373a140.743334 140.743334 0 0 0-138.951097 139.267373A140.743334 140.743334 0 0 0 1006.710182 442.788016c81.388654 3.6899 141.481314-60.725214 145.698343-138.951096 1.47596-27.621538-41.010604-27.516112-42.486565-0.316278zM358.447442 305.734583v-69.791826c0-27.305261-42.170287-27.305261-42.170288 0V305.734583c0 27.305261 42.170287 27.410687 42.170288 0z" fill="#49494A" p-id="9793"></path><path d="M358.447442 461.764645v-104.582312c0-27.410687-42.170287-27.410687-42.170288 0v104.582312c0 27.305261 42.170287 27.305261 42.170288 0zM358.447442 869.12962V643.09688c0-27.305261-42.170287-27.410687-42.170288 0v226.03274c0 27.305261 42.170287 27.305261 42.170288 0zM427.817564 573.726758H653.639452c27.305261 0 27.410687-42.170287 0-42.170287H427.817564c-27.305261 0-27.305261 42.170287 0 42.170287zM21.085144 573.726758h225.189334c27.305261 0 27.410687-42.170287 0-42.170287H21.085144c-27.410687 0-27.410687 42.170287 0 42.170287zM1701.781942 461.764645V235.942757c0-27.305261-42.170287-27.305261-42.170288 0V461.764645c0 27.305261 42.170287 27.305261 42.170288 0zM1701.781942 869.12962V643.09688c0-27.305261-42.170287-27.410687-42.170288 0v226.03274c0 27.305261 42.170287 27.305261 42.170288 0zM1771.152064 573.726758h225.716463c27.410687 0 27.410687-42.170287 0-42.170287H1771.152064c-27.305261 0-27.410687 42.170287 0 42.170287zM1518.130341 573.726758h71.373211c27.305261 0 27.305261-42.170287 0-42.170287H1518.130341c-27.305261 0-27.305261 42.170287 0 42.170287zM1363.997941 573.726758h81.704931c27.305261 0 27.410687-42.170287 0-42.170287h-81.704931c-27.305261 0-27.410687 42.170287 0 42.170287zM1092.421291 243.74426L1252.035828 84.340574c19.398332-19.398332-10.542572-49.444662-30.046329-30.046329l-159.614538 159.509111c-19.398332 19.292906 10.542572 49.339236 30.04633 29.940904zM898.121693 438.043859l65.891073-65.891074c19.292906-19.292906-10.542572-49.339236-30.046329-30.04633l-65.785648 65.891074c-19.398332 19.292906 10.542572 49.339236 29.940904 30.04633zM804.292803 531.872748l40.061773-40.061773c19.398332-19.398332-10.542572-49.444662-30.046329-30.04633l-39.956347 40.061773c-19.398332 19.292906 10.542572 49.339236 29.940903 30.04633zM1062.374961 372.152785l159.614538 159.719963c19.398332 19.292906 49.444662-10.542572 30.046329-30.04633l-159.614537-159.719963c-19.398332-19.292906-49.444662 10.542572-30.04633 30.04633zM884.943478 194.721301l49.022959 49.022959c19.398332 19.398332 49.339236-10.542572 30.046329-29.940904l-49.022959-49.128384c-19.398332-19.292906-49.444662 10.542572-30.046329 30.046329zM774.3519 84.340574l62.201173 62.3066c19.398332 19.292906 49.444662-10.542572 30.04633-30.04633l-62.3066-62.517451c-19.292906-19.292906-49.339236 10.542572-29.940903 30.04633zM514.793782 404.940183l32.681972-32.787398a21.085144 21.085144 0 0 0-30.04633-30.04633L484.958303 374.893854a21.085144 21.085144 0 0 0 30.04633 30.046329z" fill="#49494A" p-id="9794"></path><path d="M437.200453 482.533512l43.540822-43.646248c19.398332-19.292906-10.542572-49.339236-30.04633-29.940903l-43.540822 43.540821c-19.292906 19.398332 10.542572 49.339236 30.04633 30.04633zM220.761454 701.291877L268.097601 653.639452c19.292906-19.398332-10.542572-49.444662-30.04633-30.046329l-47.230721 47.652424c-19.398332 19.398332 10.542572 49.444662 29.940904 30.04633z" fill="#49494A" p-id="9795"></path><path d="M127.881396 794.27736l55.664779-55.664779c19.292906-19.292906-10.542572-49.339236-30.046329-30.04633l-55.66478 55.66478c-19.292906 19.398332 10.542572 49.444662 30.04633 30.046329zM61.252342 853.948317c27.305261 0 27.305261-42.170287 0-42.170288s-27.410687 42.170287 0 42.170288zM1530.46515 364.667559l-30.78431-30.78431a21.085144 21.085144 0 1 0-30.04633 29.940904l30.78431 30.889736a21.085144 21.085144 0 1 0 30.04633-30.04633z" fill="#49494A" p-id="9796"></path><path d="M1610.799547 445.107382l-45.860187-45.965613c-19.398332-19.292906-49.444662 10.542572-30.04633 30.046329l45.860187 45.860188c19.398332 19.398332 49.444662-10.542572 30.04633-29.940904zM1855.492639 693.912077l-75.801092-77.277052c-19.082055-19.609184-49.128385 10.542572-29.940904 30.04633l75.695666 77.277051c19.082055 19.609184 49.128385-10.542572 30.04633-30.046329zM1920.118604 756.85123l-24.985895-24.985895a21.085144 21.085144 0 1 0-30.04633 30.04633l24.985895 24.985895a21.085144 21.085144 0 0 0 30.04633-30.04633zM1956.806754 846.673942c27.305261 0 27.305261-42.170287 0-42.170287s-27.410687 42.170287 0 42.170287zM733.235869 323.973232h80.966952c27.305261 0 27.410687-42.170287 0-42.170287h-80.966952c-27.305261 0-27.305261 42.170287 0 42.170287zM1134.169875 323.973232h22.982807a21.085144 21.085144 0 1 0 0-42.170287h-22.982807a21.085144 21.085144 0 1 0 0 42.170287zM600.926593 328.928241c1.47596-1.686811-5.060434 2.635643-1.054257 0.632554 1.370534-0.632554 2.635643-1.581386 4.006177-2.21394a82.021209 82.021209 0 0 1 12.334809-4.533306 153.499846 153.499846 0 0 1 52.712859-4.322455c27.305261 1.581386 27.199835-40.905179 0-42.170287s-76.32822-0.948831-97.624215 22.877381c-18.238649 20.347164 11.702255 50.393493 30.04633 30.04633zM626.439617 383.85504c27.410687 0 27.410687-42.170287 0-42.170288s-27.305261 42.170287 0 42.170288zM1464.784927 290.237002c27.305261 0 27.410687-42.170287 0-42.170287s-27.305261 42.170287 0 42.170287zM1357.145269 319.018223A90.982395 90.982395 0 0 1 1423.247194 335.253784c23.088232 14.759601 44.384227-21.928549 21.085144-36.68815a136.315454 136.315454 0 0 0-98.889323-20.45259 21.085144 21.085144 0 0 0-14.759601 26.040153 21.612272 21.612272 0 0 0 26.040152 14.865026zM1262.5784 323.973232h33.103676a21.085144 21.085144 0 0 0 0-42.170287h-33.103676a21.085144 21.085144 0 0 0-21.085144 21.085143 21.717698 21.717698 0 0 0 21.085144 21.085144zM1209.970967 323.973232c27.305261 0 27.410687-42.170287 0-42.170287s-27.305261 42.170287 0 42.170287z" fill="#49494A" p-id="9797"></path></svg>