<?xml version="1.0" standalone="no"?><!DOCTYPE svg PUBLIC "-//W3C//DTD SVG 1.1//EN" "http://www.w3.org/Graphics/SVG/1.1/DTD/svg11.dtd"><svg t="1575526605104" class="icon" viewBox="0 0 2016 1024" version="1.1" xmlns="http://www.w3.org/2000/svg" p-id="10484" xmlns:xlink="http://www.w3.org/1999/xlink" width="393.75" height="200"><defs><style type="text/css"></style></defs><path d="M88.961505 83.178462A62.118817 62.118817 0 1 0 151.080321 21.059645a62.223925 62.223925 0 0 0-62.118816 62.118817z" fill="#F3D24F" p-id="10485"></path><path d="M67.8348 83.178462a84.717033 84.717033 0 0 0 83.245521 83.245521 84.086385 84.086385 0 0 0 83.245521-83.245521A84.086385 84.086385 0 0 0 154.443777 0.038049a84.086385 84.086385 0 0 0-86.608977 83.035305c-1.471512 27.222967 40.887005 27.117859 42.043193 0 2.732808-52.553991 81.774009-52.553991 81.774009 0s-79.041202 52.553991-81.774009 0c-1.156188-27.012751-43.514704-27.117859-42.043193 0.105108z" fill="#49494A" p-id="10486"></path><path d="M1992.361933 735.793916a1554.757255 1554.757255 0 0 0-1970.038888-2.732807v269.812187h1970.038888z" fill="#93C8A5" p-id="10487"></path><path d="M1520.637314 447.798048a1602.055846 1602.055846 0 0 0-1017.76058-4.309427c-25.751455 8.513746-14.715117 49.400751 11.246554 40.781897a1563.376109 1563.376109 0 0 1 995.267472 4.309427c25.856563 8.82907 36.998009-31.532394 11.246554-40.781897z" fill="#49494A" p-id="10488"></path><path d="M1385.363342 208.362067V494.04556c0 27.222967 42.043192 27.328075 42.043193 0V208.362067c0-27.222967-42.043192-27.222967-42.043193 0zM1108.403812 24.633317V494.04556c0 27.222967 42.043192 27.328075 42.043193 0V24.633317c0-27.328075-42.043192-27.328075-42.043193 0z" fill="#49494A" p-id="10489"></path><path d="M1369.912469 501.928658v75.362423h-207.588262v-75.362423h-61.593277V643.298893h330.774816V501.928658h-61.593277z" fill="#92CAEE" p-id="10490"></path><path d="M1348.785765 501.928658v75.362423l21.021596-21.021596h-207.378046l21.021596 21.021596v-75.362423a21.021596 21.021596 0 0 0-21.021596-21.021596h-61.698385a21.021596 21.021596 0 0 0-21.021596 21.021596V643.298893a21.021596 21.021596 0 0 0 21.021596 21.021596h330.774816a21.021596 21.021596 0 0 0 21.021596-21.021596V501.928658a21.547136 21.547136 0 0 0-21.021596-21.021596h-61.593277c-27.222967 0-27.222967 42.043192 0 42.043193h61.593277l-21.021596-21.021597V643.298893l21.021596-21.021596h-330.774816l21.021596 21.021596V501.928658l-21.021596 21.021597h61.698385l-21.021597-21.021597v75.362423a21.021596 21.021596 0 0 0 21.021597 21.021596h207.483154a21.021596 21.021596 0 0 0 21.021596-21.021596v-75.362423c0.210216-27.222967-42.1483-27.222967-42.1483 0zM1427.721859 81.391626v-56.758309c0-27.328075-42.043192-27.328075-42.043193 0v56.758309c0 27.222967 42.043192 27.328075 42.043193 0zM1427.721859 151.393542V136.678424a21.021596 21.021596 0 1 0-42.043193 0v14.715118a21.021596 21.021596 0 0 0 42.043193 0zM860.559193 24.633317V494.04556c0 27.222967 42.043192 27.328075 42.043193 0V24.633317c0-27.328075-42.043192-27.328075-42.043193 0zM591.06233 237.582086V494.04556c0 27.222967 42.043192 27.328075 42.043192 0V237.582086c0-27.328075-42.043192-27.328075-42.043192 0zM591.06233 24.633317v105.107981c0 27.328075 42.043192 27.328075 42.043192 0v-105.107981c0-27.328075-42.043192-27.328075-42.043192 0z" fill="#49494A" p-id="10491"></path><path d="M852.360771 501.928658v75.362423H644.772508v-75.362423h-61.593277V643.298893h330.774817V501.928658h-61.593277z" fill="#92CAEE" p-id="10492"></path><path d="M831.128959 501.928658v75.362423l21.021596-21.021596H644.772508l21.021596 21.021596v-75.362423a21.021596 21.021596 0 0 0-21.021596-21.021596h-61.593277a21.021596 21.021596 0 0 0-21.021596 21.021596V643.298893a21.547136 21.547136 0 0 0 21.021596 21.021596H914.479587a21.021596 21.021596 0 0 0 21.021597-21.021596V501.928658a21.021596 21.021596 0 0 0-21.021597-21.021596h-62.118816c-27.328075 0-27.328075 42.043192 0 42.043193H914.479587l-21.021596-21.021597V643.298893l21.021596-21.021596H583.179231l21.021597 21.021596V501.928658l-21.021597 21.021597h61.593277l-21.021596-21.021597v75.362423a21.021596 21.021596 0 0 0 21.021596 21.021596h207.588263a21.021596 21.021596 0 0 0 21.021596-21.021596v-75.362423c0.105108-27.222967-42.253408-27.222967-42.253408 0zM612.189034 205.839476c27.222967 0 27.328075-42.043192 0-42.043193s-27.222967 42.043192 0 42.043193z" fill="#49494A" p-id="10493"></path><path d="M1775.208844 770.164226H239.265917l20.390949 26.802535 281.058741-768.339341L520.324659 44.183401h970.041556l-20.390948-15.555981L1755.343435 796.966761c9.459718 25.331023 50.346723 14.399793 40.887005-11.246554l-285.473276-768.339341a21.967568 21.967568 0 0 0-20.390949-15.555981H520.324659a21.967568 21.967568 0 0 0-21.021597 15.555981l-280.428093 768.339341a21.021596 21.021596 0 0 0 20.390948 26.802535h1535.942927c27.328075 0 27.328075-42.358516 0-42.358516z" fill="#49494A" p-id="10494"></path><path d="M1469.975267 28.62742l94.597183 478.977069c5.255399 26.697427 46.142404 15.450873 40.781897-11.246554l-94.597183-478.977069c-5.255399-26.697427-46.142404-15.345765-40.781897 11.246554z" fill="#49494A" p-id="10495"></path><path d="M1577.185408 569.092658L1608.192262 724.547362l20.390948-26.802535H385.681335l20.390948 26.802535L540.715607 28.62742c5.150291-26.592319-35.631606-37.943981-40.887005-11.246554q-67.164 348.012525-134.538215 695.919942a21.021596 21.021596 0 0 0 20.390948 26.802535h1242.796767a21.021596 21.021596 0 0 0 20.390949-26.802535l-30.901747-155.454704c-5.255399-26.697427-46.037296-15.450873-40.781896 11.246554z" fill="#49494A" p-id="10496"></path><path d="M380.110612 698.585691L339.223607 714.77232a21.86246 21.86246 0 0 0-14.820225 26.066779 21.021596 21.021596 0 0 0 26.066779 14.715118l40.887005-16.607061a21.86246 21.86246 0 0 0 14.715117-26.06678 21.021596 21.021596 0 0 0-25.961671-14.715117zM1617.757088 737.265428l39.100169 19.550084a21.757352 21.757352 0 0 0 29.009803-7.567774 21.021596 21.021596 0 0 0-7.672883-29.009803l-39.100169-19.234761a21.652244 21.652244 0 0 0-28.904694 7.567775 21.021596 21.021596 0 0 0 7.567774 29.009803zM309.898481 414.794142c27.222967 0 27.328075-42.043192 0-42.043192s-27.222967 42.043192 0 42.043192zM372.753053 160.32772l-61.9086 169.434065c-9.35461 25.541239 31.532394 36.682685 40.781896 11.246554l61.908601-169.434065c9.459718-25.646347-31.532394-36.682685-40.781897-11.246554zM425.096828 17.380866l-29.325127 80.092281c-9.35461 25.646347 31.532394 36.682685 40.887005 11.246554l29.220019-80.092281c9.35461-25.541239-31.532394-36.682685-40.781897-11.246554zM1673.779642 361.083964c27.222967 0 27.328075-42.043192 0-42.043193s-27.328075 42.043192 0 42.043193zM1761.965238 505.50233l-44.776-113.306404c-10.510798-25.015699-50.872263-14.084469-40.887004 11.246554l44.881108 113.306404c9.88015 25.015699 50.872263 14.084469 40.781896-11.246554z" fill="#49494A" p-id="10497"></path><path d="M124.277786 920.468639V662.218329c-17.763249 13.243606-84.717033 57.599174-101.954741 71.683643v269.70708h1970.038888l-2.312376-83.140413z" fill="#66C089" p-id="10498"></path><path d="M210.256115 576.450217c-37.103117 22.703324-73.575587 45.616864-109.522516 70.737671-23.333972 16.396845-78.09523 44.881108-93.440996 70.947887C-3.848843 737.16032 1.091233 763.752639 1.091233 785.299775v217.573521a21.021596 21.021596 0 0 0 21.021596 21.021596h1970.249104a21.021596 21.021596 0 0 0 21.021596-21.021596V800.750648c0-19.129653 5.780939-48.770103 0-67.479323-7.042235-21.757352-38.364413-38.364413-56.442986-52.553991-36.682685-27.853615-74.626667-53.815286-113.516619-78.62077-23.018648-14.715117-44.25046 21.967568-21.021597 36.577578 33.214122 21.021596 66.007812 43.304488 97.750423 66.848676 15.871305 11.772094 47.824131 26.171887 51.608018 38.049089 7.252451 23.123756 0 61.067737 0 85.032356v174.269033l21.021597-21.021596H22.323045l21.021596 21.021596V812.417634c0-16.396845-8.618854-63.064789 0-77.254366a196.657032 196.657032 0 0 0 33.424338-18.393896q22.388-16.817277 45.196432-33.003906c35.736714-25.120807 72.524507-48.454779 110.048056-70.737672 23.333972-13.874253 2.10216-50.556939-21.021596-36.577577z" fill="#49494A" p-id="10499"></path></svg>