<?xml version="1.0" standalone="no"?><!DOCTYPE svg PUBLIC "-//W3C//DTD SVG 1.1//EN" "http://www.w3.org/Graphics/SVG/1.1/DTD/svg11.dtd"><svg t="1575526624445" class="icon" viewBox="0 0 2013 1024" version="1.1" xmlns="http://www.w3.org/2000/svg" p-id="11178" xmlns:xlink="http://www.w3.org/1999/xlink" width="393.1640625" height="200"><defs><style type="text/css"></style></defs><path d="M1651.633296 429.555304h249.704702v439.248482h-249.704702z" fill="#BBBCBE" p-id="11179"></path><path d="M1651.633296 429.555304h51.310628v439.248482h-51.310628z" fill="#98999C" p-id="11180"></path><path d="M1788.60212 450.732791h112.735878l-21.072127-21.072126v439.143121c0 27.288404 42.144254 27.393765 42.144253 0V429.555304a21.072127 21.072127 0 0 0-21.072126-21.072127h-112.735878c-27.288404 0-27.288404 42.144254 0 42.144254z" fill="#49494A" p-id="11181"></path><path d="M1739.187982 450.732791c27.288404 0 27.288404-42.144254 0-42.144253s-27.393765 42.144254 0 42.144253zM1672.916144 534.389135v-104.833831l-21.072127 21.072127h37.297664c27.288404 0 27.288404-42.144254 0-42.144254h-37.297664a21.072127 21.072127 0 0 0-21.072127 21.072127v104.833831c0 27.393765 42.144254 27.393765 42.144254 0zM1672.916144 868.803786V604.453956c0-27.288404-42.144254-27.393765-42.144254 0v264.34983c0 27.288404 42.144254 27.393765 42.144254 0z" fill="#49494A" p-id="11182"></path><path d="M1818.419179 539.762527a42.144254 42.144254 0 1 1-42.144254-42.144254 42.144254 42.144254 0 0 1 42.144254 42.144254z" fill="#98999C" p-id="11183"></path><path d="M1797.136331 539.762527c-1.369688 26.55088-41.301368 26.761601-41.301369 0s39.93168-26.55088 41.301369 0 43.935384 27.288404 42.144253 0a63.21638 63.21638 0 1 0-65.428953 63.21638 64.164626 64.164626 0 0 0 65.428953-63.21638c1.791131-27.288404-40.669205-27.183044-42.144253 0z" fill="#49494A" p-id="11184"></path><path d="M1850.027369 730.043832a73.752444 73.752444 0 1 1-73.752444-73.752444 73.752444 73.752444 0 0 1 73.752444 73.752444z" fill="#98999C" p-id="11185"></path><path d="M1828.849882 730.043832c-3.687622 67.009363-104.72847 67.641527-104.72847 0s101.040848-67.114724 104.72847 0c1.369688 27.183044 43.830024 27.288404 42.144253 0-2.739376-51.415989-41.090647-94.82457-94.82457-94.824571a94.82457 94.82457 0 0 0-4.003704 189.649141c55.103611 2.317934 95.878177-41.51209 98.722914-94.82457 1.791131-27.288404-40.563844-27.183044-42.038893 0z" fill="#49494A" p-id="11186"></path><path d="M1755.308159 705.916247v47.728367c0 27.288404 42.144254 27.393765 42.144254 0V705.916247c0-27.288404-42.144254-27.288404-42.144254 0z" fill="#49494A" p-id="11187"></path><path d="M1800.29715 708.760984h-47.623007c-27.393765 0-27.393765 42.144254 0 42.144253h47.623007c27.393765 0 27.393765-42.144254 0-42.144253zM1754.992077 347.690092c10.536063-26.761601 42.144254-18.22739 51.099908 3.37154 10.536063 24.97047 47.517646 3.37154 36.6655-21.072127a69.011215 69.011215 0 0 0-65.639675-41.196008 70.802346 70.802346 0 0 0-63.21638 47.939089c-10.536063 25.391913 30.976026 36.454779 40.985287 11.273587zM1703.470727 269.091059a89.135096 89.135096 0 0 1 152.772919 0.526803c14.750489 22.968618 51.415989 1.68577 36.665501-21.072127a132.227595 132.227595 0 0 0-225.998559 0c-14.855849 22.968618 21.809651 44.356827 36.560139 21.072127zM1666.699866 150.138903a188.068731 188.068731 0 0 1 219.255479-9.061014c23.179339 14.645128 44.462187-22.125733 21.072127-36.665501a229.159379 229.159379 0 0 0-262.347978 9.061015c-21.704291 16.014816 0 52.680317 21.072127 36.6655z" fill="#49494A" p-id="11188"></path><path d="M112.419796 429.555304h249.704702v439.248482h-249.704702z" fill="#BBBCBE" p-id="11189"></path><path d="M112.419796 429.555304h51.310629v439.248482h-51.310629z" fill="#98999C" p-id="11190"></path><path d="M309.549542 450.732791h52.680317l-21.072127-21.072126v137.706348c0 27.288404 42.144254 27.288404 42.144254 0V429.555304a21.072127 21.072127 0 0 0-21.072127-21.072127h-52.680317c-27.393765 0-27.393765 42.144254 0 42.144254zM133.597284 868.803786V429.555304l-21.072127 21.072127h130.647186c27.288404 0 27.288404-42.144254 0-42.144254H112.419796a21.59893 21.59893 0 0 0-21.072126 21.072127v439.248482c0 27.288404 42.144254 27.393765 42.144253 0zM340.84165 695.380183v173.423603c0 27.288404 42.144254 27.393765 42.144254 0V695.380183c0-27.288404-42.144254-27.393765-42.144254 0zM362.019138 642.699866c27.393765 0 27.393765-42.144254 0-42.144253s-27.288404 42.144254 0 42.144253z" fill="#49494A" p-id="11191"></path><path d="M279.100319 539.762527a42.144254 42.144254 0 1 1-42.144254-42.144254 42.144254 42.144254 0 0 1 42.144254 42.144254z" fill="#98999C" p-id="11192"></path><path d="M257.922832 539.762527c-1.475049 26.55088-41.406729 26.761601-41.40673 0s39.93168-26.55088 41.40673 0 43.935384 27.288404 42.144253 0a63.21638 63.21638 0 1 0-65.428954 63.21638 64.269987 64.269987 0 0 0 65.428954-63.21638c1.791131-27.288404-40.669205-27.183044-42.144253 0z" fill="#49494A" p-id="11193"></path><path d="M310.81387 730.043832a73.752444 73.752444 0 1 1-73.752444-73.752444 73.752444 73.752444 0 0 1 73.752444 73.752444z" fill="#98999C" p-id="11194"></path><path d="M289.531022 730.043832c-3.582262 67.009363-104.623109 67.641527-104.62311 0s101.040848-67.114724 104.62311 0c1.475049 27.183044 43.935384 27.288404 42.144253 0-2.739376-51.415989-41.196008-94.82457-94.82457-94.824571a94.82457 94.82457 0 0 0-4.109065 189.649141c55.208972 2.317934 95.983537-41.51209 98.828275-94.82457 1.896491-27.288404-40.563844-27.183044-42.038893 0z" fill="#49494A" p-id="11195"></path><path d="M215.989299 705.916247v47.728367c0 27.288404 42.144254 27.393765 42.144254 0V705.916247c0-27.288404-42.144254-27.288404-42.144254 0z" fill="#49494A" p-id="11196"></path><path d="M261.083651 708.760984h-47.728368c-27.288404 0-27.288404 42.144254 0 42.144253h47.728368c27.288404 0 27.288404-42.144254 0-42.144253zM215.673217 347.690092c10.536063-26.761601 42.144254-18.22739 51.205268 3.37154 10.536063 24.97047 47.412285 3.37154 36.56014-21.072127a68.800494 68.800494 0 0 0-65.534314-41.196008 70.802346 70.802346 0 0 0-63.21638 47.939089c-10.536063 25.391913 30.976026 36.454779 40.879926 11.273587zM164.257228 269.091059a89.135096 89.135096 0 0 1 152.772919 0.526803c14.645128 22.968618 51.415989 1.68577 36.665501-21.072127a132.332956 132.332956 0 0 0-226.10392 0c-14.855849 22.968618 21.915012 44.356827 36.6655 21.072127zM127.486367 150.138903a187.963371 187.963371 0 0 1 219.4662-9.061014c23.179339 14.645128 44.462187-22.125733 21.072127-36.665501a228.948657 228.948657 0 0 0-262.242618 9.061015c-21.809651 16.014816-0.632164 52.680317 21.072127 36.6655z" fill="#49494A" p-id="11197"></path><path d="M1225.976335 333.571767H1175.19251l-113.262682 237.69359-25.075831-237.69359H977.641321l-23.811503 226.20928-107.889289-226.20928H786.727853l136.652742 514.370614H1097.752444l136.758102-514.370614h-8.534211z" fill="#F3D24F" p-id="11198"></path><path d="M871.01636 747.217615l12.748636 47.833728c6.953802 26.340158 47.939088 15.171931 40.879926-11.273588l-12.643276-47.833728c-7.059162-26.445519-48.044449-15.277292-40.985286 11.273588zM879.866653 710.236033c27.288404 0 27.393765-42.144254 0-42.144254s-27.393765 42.144254 0 42.144254zM766.28789 352.852763L842.88507 642.699866c7.059162 26.340158 47.939088 15.171931 40.985287-11.273588l-76.913263-289.3203c-6.953802-26.340158-47.939088-15.171931-40.879926 11.273588zM911.158761 434.823336L863.957197 336.521864c-11.69503-24.654388-48.360531-3.160819-36.56014 21.072127L874.493261 456.316905c11.800391 24.654388 48.360531 3.055458 36.6655-21.072127zM956.358473 347.690092q-11.800391 112.735878-23.811503 225.787838c-2.844737 27.183044 39.615598 26.972322 42.144253 0Q986.913057 460.320609 998.818809 347.690092c2.844737-27.183044-39.615598-26.972322-42.144254 0zM1068.988991 450.311349l-10.536064-103.0427c-2.844737-26.866962-45.305073-27.183044-42.144253 0l10.536063 103.0427c2.844737 26.866962 45.305073 27.183044 42.144254 0zM1091.009363 474.755016l-47.412285 99.565799 39.510238 10.536063-6.953802-65.955756c-2.739376-26.866962-45.305073-27.183044-42.144254 0l6.848441 65.955756c2.001852 18.648832 29.606338 31.60819 39.615599 10.536064l47.412285-99.565799c11.69503-24.549028-24.86511-46.042597-36.665501-21.072127zM1132.205371 458.634839c27.288404 0 27.393765-42.144254 0-42.144254s-27.288404 42.144254 0 42.144254zM1156.859759 336.521864l-21.072127 43.935385a21.915012 21.915012 0 0 0 7.691327 29.079535 21.072127 21.072127 0 0 0 28.974174-7.585966l21.072127-44.040745a21.704291 21.704291 0 0 0-7.585966-28.974174 21.072127 21.072127 0 0 0-29.079535 7.585965zM1178.142607 642.067702l76.807902-289.214939c6.953802-26.445519-33.926124-37.719107-40.985286-11.273588l-76.807902 289.21494c-7.059162 26.445519 33.926124 37.719107 40.985286 11.273587zM1130.624961 759.439449c27.288404 0 27.288404-42.144254 0-42.144254s-27.393765 42.144254 0 42.144254zM1118.192407 867.328738l12.959358-48.465892c6.953802-26.445519-33.926124-37.719107-40.985287-11.273588l-12.853997 48.465892c-7.059162 26.445519 33.926124 37.719107 40.879926 11.273588z" fill="#49494A" p-id="11199"></path><path d="M1157.386562 258.554995h101.778373v75.016772h-101.778373z" fill="#BBBCBE" p-id="11200"></path><path d="M1259.164935 312.288919h-101.778373l21.072127 21.072126v-74.80605l-21.072127 21.072127h101.778373l-21.072127-21.072127v75.016772c0 27.288404 42.144254 27.288404 42.144253 0v-75.016772a21.072127 21.072127 0 0 0-21.072126-21.072126h-101.778373a21.072127 21.072127 0 0 0-21.072126 21.072126v75.016772a21.072127 21.072127 0 0 0 21.072126 21.072126h101.778373c27.288404 0.105361 27.288404-42.354975 0-42.354974z" fill="#49494A" p-id="11201"></path><path d="M765.445005 258.554995h101.778372v75.016772h-101.778372z" fill="#BBBCBE" p-id="11202"></path><path d="M867.223377 312.288919h-101.778372l21.072126 21.072126v-74.80605l-21.072126 21.072127h101.778372l-21.072127-21.072127v75.016772c0 27.288404 42.144254 27.288404 42.144254 0v-75.016772a21.072127 21.072127 0 0 0-21.072127-21.072126h-101.778372a21.072127 21.072127 0 0 0-21.072127 21.072126v75.016772a21.072127 21.072127 0 0 0 21.072127 21.072126h101.778372c27.288404 0.105361 27.393765-42.354975 0-42.354974zM631.215557 837.82776H481.076654l21.072127 21.072127V108.416092l-21.072127 21.072127h150.138903l-21.072127-21.072127v750.589155c0 27.288404 42.144254 27.393765 42.144254 0V108.416092a21.072127 21.072127 0 0 0-21.072127-21.072127H481.076654a21.072127 21.072127 0 0 0-21.072127 21.072127v750.589155a21.072127 21.072127 0 0 0 21.072127 21.072127h150.138903c27.288404 0.105361 27.288404-42.249614 0-42.249614z" fill="#49494A" p-id="11203"></path><path d="M496.037864 273.937648l150.138903-150.454985c19.386357-19.386357-10.536063-49.414137-30.02778-30.027781L466.115444 243.593785C446.729087 263.401585 476.756868 292.902562 496.037864 273.937648z" fill="#49494A" p-id="11204"></path><path d="M466.115444 123.482663L616.148987 273.937648c19.386357 19.386357 49.414137-10.536063 30.02778-29.92242L496.037864 93.454882c-19.280996-19.386357-49.308777 10.536063-29.92242 30.027781z" fill="#49494A" p-id="11205"></path><path d="M496.037864 423.655109L646.176767 273.937648c19.386357-19.280996-10.536063-49.308777-30.02778-29.92242l-150.033543 149.6121c-19.386357 19.386357 10.536063 49.414137 29.92242 30.027781z" fill="#49494A" p-id="11206"></path><path d="M466.115444 273.937648l150.033543 149.717461c19.386357 19.386357 49.414137-10.536063 30.02778-30.027781L496.037864 243.593785c-19.280996-19.386357-49.308777 10.536063-29.92242 29.92242z" fill="#49494A" p-id="11207"></path><path d="M496.037864 573.794012l150.138903-150.138903c19.386357-19.280996-10.536063-49.308777-30.02778-30.027781L466.115444 543.766231c-19.386357 19.386357 10.536063 49.414137 29.92242 30.027781z" fill="#49494A" p-id="11208"></path><path d="M466.115444 423.655109l150.033543 150.138903c19.386357 19.280996 49.414137-10.536063 30.02778-30.027781L496.037864 393.627328c-19.280996-19.280996-49.308777 10.536063-29.92242 30.027781z" fill="#49494A" p-id="11209"></path><path d="M496.037864 723.932915l150.138903-150.138903c19.386357-19.386357-10.536063-49.414137-30.02778-30.027781L466.115444 693.905134c-19.386357 19.280996 10.536063 49.308777 29.92242 30.027781z" fill="#49494A" p-id="11210"></path><path d="M466.115444 573.794012l150.033543 150.138903c19.386357 19.280996 49.414137-10.536063 30.02778-30.027781L496.037864 543.766231c-19.280996-19.280996-49.308777 10.536063-29.92242 30.027781z" fill="#49494A" p-id="11211"></path><path d="M496.037864 874.493261l150.138903-150.560346c19.386357-19.386357-10.536063-49.414137-30.02778-30.027781L466.115444 844.044037c-19.386357 19.280996 10.536063 49.308777 29.92242 29.92242z" fill="#49494A" p-id="11212"></path><path d="M466.115444 723.932915L616.148987 874.493261c19.386357 19.386357 49.414137-10.536063 30.02778-29.92242l-150.138903-150.665707c-19.280996-19.386357-49.308777 10.536063-29.92242 30.027781zM1531.838255 837.82776h-150.138903l21.072127 21.072127V108.416092l-21.072127 21.072127h150.138903l-21.072127-21.072127v750.589155c0 27.288404 42.144254 27.393765 42.144254 0V108.416092a21.072127 21.072127 0 0 0-21.072127-21.072127h-150.138903a21.072127 21.072127 0 0 0-21.072127 21.072127v750.589155a21.072127 21.072127 0 0 0 21.072127 21.072127h150.138903c27.499125 0.105361 27.499125-42.249614 0-42.249614z" fill="#49494A" p-id="11213"></path><path d="M1396.765922 273.937648l150.033543-150.033543c19.386357-19.386357-10.536063-49.414137-29.92242-30.02778l-150.138903 149.71746c-19.386357 19.280996 10.536063 49.308777 30.02778 29.92242z" fill="#49494A" p-id="11214"></path><path d="M1366.738142 123.482663L1517.193127 273.937648c19.280996 19.386357 49.308777-10.536063 29.92242-29.92242L1396.765922 93.454882c-19.386357-19.386357-49.414137 10.536063-30.02778 30.027781z" fill="#49494A" p-id="11215"></path><path d="M1396.765922 423.655109L1546.799465 273.937648c19.386357-19.280996-10.536063-49.308777-29.92242-29.92242l-150.138903 149.6121c-19.386357 19.386357 10.536063 49.414137 30.02778 30.027781z" fill="#49494A" p-id="11216"></path><path d="M1366.738142 273.937648L1517.193127 423.655109c19.280996 19.386357 49.308777-10.536063 29.92242-30.027781l-150.349625-150.033543c-19.386357-19.386357-49.414137 10.536063-30.02778 29.92242z" fill="#49494A" p-id="11217"></path><path d="M1396.765922 573.794012l150.033543-150.138903c19.386357-19.280996-10.536063-49.308777-29.92242-30.027781l-150.138903 150.138903c-19.386357 19.386357 10.536063 49.414137 30.02778 30.027781z" fill="#49494A" p-id="11218"></path><path d="M1366.738142 423.655109L1517.193127 573.794012c19.280996 19.280996 49.308777-10.536063 29.92242-30.027781l-150.349625-150.138903c-19.386357-19.280996-49.414137 10.536063-30.02778 30.027781z" fill="#49494A" p-id="11219"></path><path d="M1396.765922 723.932915l150.033543-150.138903c19.386357-19.386357-10.536063-49.414137-29.92242-30.027781l-150.138903 150.138903c-19.386357 19.280996 10.536063 49.308777 30.02778 30.027781z" fill="#49494A" p-id="11220"></path><path d="M1366.738142 573.794012L1517.193127 723.932915c19.280996 19.280996 49.308777-10.536063 29.92242-30.027781l-150.349625-150.138903c-19.386357-19.280996-49.414137 10.536063-30.02778 30.027781z" fill="#49494A" p-id="11221"></path><path d="M1396.765922 874.493261l150.033543-150.033543c19.386357-19.386357-10.536063-49.414137-29.92242-30.027781l-150.138903 149.6121c-19.386357 19.280996 10.536063 49.308777 30.02778 29.92242z" fill="#49494A" p-id="11222"></path><path d="M1366.738142 723.932915L1517.193127 874.493261c19.280996 19.386357 49.308777-10.536063 29.92242-29.92242l-150.349625-150.665707c-19.386357-19.386357-49.414137 10.536063-30.02778 30.027781zM652.393045 258.554995V108.416092l-21.072127 21.072127h750.483794l-21.072126-21.072127v150.138903l21.072126-21.072126H631.215557c-27.393765 0-27.393765 42.144254 0 42.144253h750.483795a21.072127 21.072127 0 0 0 21.072127-21.072127V108.416092a21.072127 21.072127 0 0 0-21.072127-21.072127H631.215557a21.072127 21.072127 0 0 0-21.072127 21.072127v150.138903c-0.210721 27.288404 42.249614 27.393765 42.249615 0z" fill="#49494A" p-id="11223"></path><path d="M1216.599239 123.482663L1366.738142 273.937648c19.386357 19.386357 49.308777-10.536063 30.02778-29.92242L1246.627019 93.454882c-19.280996-19.386357-49.308777 10.536063-30.02778 30.027781z" fill="#49494A" p-id="11224"></path><path d="M1366.738142 93.454882l-150.138903 150.138903c-19.280996 19.280996 10.536063 49.308777 30.02778 29.92242l150.138903-150.033542c19.280996-19.386357-10.536063-49.414137-30.02778-30.027781z" fill="#49494A" p-id="11225"></path><path d="M1066.460335 123.482663L1216.599239 273.937648c19.386357 19.386357 49.414137-10.536063 30.02778-29.92242L1096.488116 93.454882c-19.280996-19.386357-49.308777 10.536063-30.027781 30.027781z" fill="#49494A" p-id="11226"></path><path d="M1216.599239 93.454882l-150.138904 150.138903c-19.280996 19.280996 10.536063 49.308777 30.027781 29.92242l150.138903-150.033542c19.386357-19.386357-10.536063-49.414137-30.02778-30.027781z" fill="#49494A" p-id="11227"></path><path d="M916.637514 123.482663L1066.460335 273.937648c19.386357 19.386357 49.414137-10.536063 30.027781-29.92242L946.454574 93.454882C927.173578 73.752444 897.040436 104.096306 916.637514 123.482663z" fill="#49494A" p-id="11228"></path><path d="M1066.460335 93.454882L916.637514 243.593785C897.040436 263.401585 927.173578 292.902562 946.454574 273.937648l150.033542-150.033543c19.386357-19.386357-10.536063-49.414137-30.027781-30.02778z" fill="#49494A" p-id="11229"></path><path d="M766.28789 123.482663L916.637514 273.937648c19.280996 19.386357 49.308777-10.536063 30.027781-29.92242L796.31567 93.454882c-19.386357-19.386357-49.414137 10.536063-30.02778 30.027781z" fill="#49494A" p-id="11230"></path><path d="M916.637514 93.454882L766.28789 243.593785c-19.386357 19.280996 10.536063 49.308777 30.02778 29.92242l150.138904-150.033542C965.73557 104.096306 935.707789 73.752444 916.637514 93.454882z" fill="#49494A" p-id="11231"></path><path d="M616.148987 123.482663L766.28789 273.937648c19.386357 19.386357 49.308777-10.536063 30.02778-29.92242L646.176767 93.454882c-19.280996-19.386357-49.308777 10.536063-30.02778 30.027781z" fill="#49494A" p-id="11232"></path><path d="M766.28789 93.454882L616.148987 243.593785c-19.280996 19.280996 10.536063 49.308777 30.02778 29.92242l150.138903-150.033542c19.280996-19.386357-10.536063-49.414137-30.02778-30.027781z" fill="#49494A" p-id="11233"></path><path d="M956.358473 258.554995h101.778372v75.016772h-101.778372z" fill="#BBBCBE" p-id="11234"></path><path d="M1058.136845 312.288919h-101.778372l21.072127 21.072126v-74.80605l-21.072127 21.072127h101.778372l-21.072126-21.072127v75.016772c0 27.288404 42.144254 27.288404 42.144253 0v-75.016772a21.072127 21.072127 0 0 0-21.072127-21.072126h-101.778372a21.072127 21.072127 0 0 0-21.072127 21.072126v75.016772a21.072127 21.072127 0 0 0 21.072127 21.072126h101.778372c27.077683 0.105361 27.077683-42.354975 0-42.354974zM481.814178 42.144254h1050.761601c27.393765 0 27.393765-42.144254 0-42.144254H481.814178c-27.288404 0-27.288404 42.144254 0 42.144254z" fill="#49494A" p-id="11235"></path><path d="M460.636691 21.072127v33.715403a21.072127 21.072127 0 1 0 42.144254 0V21.072127a21.072127 21.072127 0 1 0-42.144254 0zM547.875296 21.072127v33.715403a21.072127 21.072127 0 1 0 42.144253 0V21.072127a21.072127 21.072127 0 1 0-42.144253 0zM635.746064 21.072127v33.715403a21.072127 21.072127 0 1 0 42.144254 0V21.072127a21.072127 21.072127 0 1 0-42.144254 0zM723.300751 21.072127v33.715403a21.072127 21.072127 0 1 0 42.144254 0V21.072127a21.072127 21.072127 0 0 0-21.072127-21.072127 21.704291 21.704291 0 0 0-21.072127 21.072127zM811.27688 21.072127v33.715403a21.072127 21.072127 0 1 0 42.144254 0V21.072127a21.072127 21.072127 0 0 0-21.072127-21.072127 21.704291 21.704291 0 0 0-21.072127 21.072127zM898.410124 21.072127v33.715403a21.072127 21.072127 0 1 0 42.144254 0V21.072127a21.072127 21.072127 0 0 0-21.072127-21.072127 21.704291 21.704291 0 0 0-21.072127 21.072127zM986.070172 21.072127v33.715403a21.072127 21.072127 0 1 0 42.144253 0V21.072127a21.072127 21.072127 0 1 0-42.144253 0zM1073.624859 21.072127v33.715403a21.072127 21.072127 0 1 0 42.144253 0V21.072127a21.072127 21.072127 0 1 0-42.144253 0zM1161.179545 21.072127v33.715403a21.072127 21.072127 0 0 0 21.072127 21.072126 21.704291 21.704291 0 0 0 21.072127-21.072126V21.072127a21.072127 21.072127 0 1 0-42.144254 0zM1248.734232 21.072127v33.715403a21.072127 21.072127 0 0 0 21.072127 21.072126 21.704291 21.704291 0 0 0 21.072126-21.072126V21.072127a21.072127 21.072127 0 1 0-42.144253 0zM1336.288919 21.072127v33.715403a21.072127 21.072127 0 0 0 21.072126 21.072126 21.704291 21.704291 0 0 0 21.072127-21.072126V21.072127a21.072127 21.072127 0 1 0-42.144253 0zM1423.843605 21.072127v33.715403a21.072127 21.072127 0 1 0 42.144254 0V21.072127a21.072127 21.072127 0 1 0-42.144254 0zM1511.398292 21.072127v33.715403a21.072127 21.072127 0 1 0 42.144254 0V21.072127a21.072127 21.072127 0 1 0-42.144254 0z" fill="#49494A" p-id="11236"></path><path d="M689.269266 868.803786H21.177487v134.018727h1971.297459V868.803786H1270.122441" fill="#5DA1D3" p-id="11237"></path><path d="M689.269266 847.626299H21.072127a21.072127 21.072127 0 0 0-21.072127 21.072127v134.124087a21.072127 21.072127 0 0 0 21.072127 21.072126h1971.297458a21.072127 21.072127 0 0 0 21.072127-21.072126V868.803786a21.072127 21.072127 0 0 0-21.072127-21.072126h-722.247144c-27.393765 0-27.393765 42.144254 0 42.144253h722.352505l-21.072127-21.072127v134.018727l21.072127-21.072127H21.072127l21.072127 21.072127V868.803786l-21.072127 21.072127h668.197139c27.393765 0 27.393765-42.144254 0-42.144253z" fill="#49494A" p-id="11238"></path><path d="M1046.231094 753.855335a39.404877 39.404877 0 1 1-39.404877-39.299517 39.404877 39.404877 0 0 1 39.404877 39.299517z" fill="#92CAEE" p-id="11239"></path><path d="M1024.948246 753.855335c-1.264328 23.2847-36.244058 23.495421-36.244058 0s35.085091-23.2847 36.244058 0c1.475049 27.183044 43.935384 27.393765 42.144253 0a60.582364 60.582364 0 1 0-63.21638 60.477004 61.741331 61.741331 0 0 0 63.21638-60.477004c1.791131-26.866962-40.669205-26.866962-42.144253 0z" fill="#49494A" p-id="11240"></path><path d="M1203.113077 868.803786H810.539356" fill="#5DA1D3" p-id="11241"></path><path d="M1203.113077 847.626299H810.539356c-27.288404 0-27.288404 42.144254 0 42.144254h392.573721c27.393765 0 27.393765-42.144254 0-42.144254z" fill="#49494A" p-id="11242"></path></svg>