<?xml version="1.0" standalone="no"?><!DOCTYPE svg PUBLIC "-//W3C//DTD SVG 1.1//EN" "http://www.w3.org/Graphics/SVG/1.1/DTD/svg11.dtd"><svg t="1575526612640" class="icon" viewBox="0 0 2003 1024" version="1.1" xmlns="http://www.w3.org/2000/svg" p-id="10760" xmlns:xlink="http://www.w3.org/1999/xlink" width="391.2109375" height="200"><defs><style type="text/css"></style></defs><path d="M1361.704324 109.522681l-169.203989 160.712338-394.389966 0.314506L583.722415 74.92707 266.38631 186.262036 193.316186 68.636959 20.547801 21.14662v981.676673H1982.014114V131.95741l-96.658041-40.780887-266.386205 85.964852-257.265544-67.618694z" fill="#F3D24F" p-id="10761"></path><path d="M1219.233307 999.783072h763.304983V392.36801l-154.841569 87.95672-25.370115 88.061556h-71.812101l-104.206174 78.836059-225.814989-104.835185-181.260035 83.658477v373.737435z" fill="#BFAD65" p-id="10762"></path><path d="M394.599741 568.386286l-167.526625 25.47495L70.134844 455.059451V87.612127l89.529248 24.636269 84.077818 135.342223 327.190613-114.794527L803.247293 334.498988v668.324305h63.005946V321.080084l345.431935-0.20967 163.333218-155.260909 244.370817 64.263968 262.507303-84.706829 98.964415 45.917811v-59.127045l-96.553206-40.780887-266.386205 85.964852-257.265544-67.618694-169.203989 160.712338-394.389966 0.314506L582.674063 74.92707 265.337958 186.262036 192.267834 68.636959 19.499449 21.14662v981.676673h783.747844l9.435166-372.374578-244.05631 62.167265-174.026408-124.229694z" fill="#BFAD65" p-id="10763"></path><path d="M363.463691 130.070377l-102.10947 35.853633 23.797587 9.644837-47.280668-76.215179c-11.53187-18.555828-20.967037-41.934074-40.151876-51.578911C172.034644 34.565523 136.285845 30.791457 108.190016 23.138488L26.733077 0.808594A20.967037 20.967037 0 0 0 0.000105 21.041784v981.781509a20.967037 20.967037 0 0 0 20.967037 20.967037h1961.466312a21.491213 21.491213 0 0 0 20.967037-20.967037V131.95741a20.967037 20.967037 0 0 0-10.483518-18.241322c-29.773193-12.580222-59.44155-27.676489-90.053424-38.055172-20.967037-7.128793-31.450556-2.096704-52.417593 4.717583-72.755618 23.483081-154.107722 40.047041-223.508614 72.126608-11.636706 5.346594-14.572091 2.516044-3.878902 3.669231a222.145757 222.145757 0 0 1-32.813413-8.596485l-128.108596-33.652095c-28.724841-7.548133-61.643089-22.015389-91.311446-24.007257-20.967037-1.362857-27.571654 8.386815-41.934074 22.225059L1226.57177 209.745118c-12.370552 11.741541-32.708578 25.26528-41.934074 39.732535-3.145056 4.927254-11.427035 6.290111 0 2.935385 14.047915-4.403078-15.620443-2.935385-20.967037-2.935385-27.152313 0-27.257148 41.934074 0 41.934074 19.080004 0 31.450556 1.782198 47.490339-8.806156 19.080004-12.999563 35.853633-34.071435 52.417592-49.901548l113.955847-108.189911-20.967037 5.45143 153.05937 40.151876c34.805281 9.120661 80.723092 31.450556 117.100901 26.732972 53.99012-6.290111 113.43167-36.58748 165.115417-53.256274l78.731224-25.370115c6.290111-2.096704 12.685057-3.878902 18.870333-6.080441s-20.967037-7.338463-10.483518-1.048352a134.293872 134.293872 0 0 0 18.241322 7.757804l47.700009 20.128356a59.65122 59.65122 0 0 0 17.612311 7.443298c25.68462 0-28.620006 18.346157-1.572528-14.257585-2.306374 2.725715 0 19.184839 0 22.329894v848.326318l20.967037-20.967037H20.967142l20.967037 20.967037V21.041784L15.515712 42.008822l66.570343 17.821981c27.781324 7.652969 68.771881 27.781324 97.496722 26.732972 14.886596-0.524176-2.516044-12.160881 0.524176 0s17.19297 27.676489 24.007257 38.579348l44.659789 71.916937a20.967037 20.967037 0 0 0 23.797587 9.540002l102.10947-35.748798c25.47495-9.015826 14.572091-49.796713-11.217365-40.780887z" fill="#49494A" p-id="10764"></path><path d="M760.998713 207.648414L599.342858 60.040473a20.967037 20.967037 0 0 0-20.967037-5.451429L454.565467 98.200481c-25.47495 8.910991-14.572091 49.691878 11.217365 40.676052l124.229694-43.506602-20.967037-5.45143 162.180032 147.607941c20.02352 18.241322 49.901548-11.53187 29.773192-29.878028z" fill="#49494A" p-id="10765"></path><path d="M1079.802511 90.233007a61.957594 61.957594 0 1 0 61.957594-61.957595A62.06243 62.06243 0 0 0 1079.802511 90.233007z" fill="#F3D24F" p-id="10766"></path><path d="M1058.206463 90.233007a83.029467 83.029467 0 1 0 166.058933 0 83.029467 83.029467 0 0 0-166.058933 0c-1.467693 27.152313 40.780887 27.047478 41.934074 0 2.83055-52.417593 81.666609-52.417593 81.666609 0s-78.836059 52.417593-81.666609 0c-1.153187-27.257148-43.401767-27.257148-41.934074 0z" fill="#49494A" p-id="10767"></path><path d="M1038.811954 265.412601h-241.120926v2.306374a91.730787 91.730787 0 0 1 66.360672 90.78727V996.009006h262.087963V358.506245a91.730787 91.730787 0 0 1 66.360672-90.78727v-2.306374z" fill="#5DA1D3" p-id="10768"></path><path d="M1038.811954 248.534136h-241.120926a20.967037 20.967037 0 0 0-20.967037 20.967037v2.306374a21.700883 21.700883 0 0 0 15.410772 20.338026c62.901111 20.967037 50.845065 95.295183 50.845065 147.712776v559.924723a20.967037 20.967037 0 0 0 20.967037 20.967037h262.087963a21.491213 21.491213 0 0 0 20.967037-20.967037V469.841212c0-27.152313-41.934074-27.152313-41.934074 0v529.94186l20.967037-20.967037h-262.087963l20.967037 20.967037V397.400099c0-63.949463-12.999563-122.657167-81.771444-145.720907l15.410772 20.338026v-2.306375l-20.967037 20.967037h241.120925c27.257148 0 27.257148-41.934074 0-41.934074z" fill="#49494A" p-id="10769"></path><path d="M1147.31637 362.804488a71.707267 71.707267 0 0 1 50.74023-70.449245 21.491213 21.491213 0 0 0 15.515607-20.338025v-2.306375a20.967037 20.967037 0 0 0-20.967037-20.967037h-83.868148c-27.152313 0-27.257148 41.934074 0 41.934074h83.868148l-20.967037-20.967037v2.306375l15.201102-20.338026c-50.425724 14.047915-80.408587 60.175396-81.771444 111.125296-0.733846 27.257148 41.934074 27.152313 41.934074 0z" fill="#49494A" p-id="10770"></path><path d="M403.615567 999.783072a83.868148 83.868148 0 0 1 83.868148-83.868148h69.715398a83.868148 83.868148 0 0 1 83.868149 83.868148z" fill="#92CAEE" p-id="10771"></path><path d="M424.68744 999.783072c4.298243-58.183528 52.417593-62.901111 98.020898-62.901111s93.61782 4.612748 97.916062 62.901111l20.967037-20.967037H403.615567c-27.257148 0-27.257148 41.934074 0 41.934074h238.185541a20.967037 20.967037 0 0 0 20.967037-20.967037c-5.975606-81.981115-68.247705-104.835185-140.164643-104.835185s-134.189037 23.273411-140.269477 104.835185c-1.887033 27.047478 40.361546 26.942643 42.353415 0z" fill="#49494A" p-id="10772"></path><path d="M901.582696 899.4558h-15.410772v-5.451429a81.037598 81.037598 0 0 0-161.970361 0v5.451429h-40.04704a100.327272 100.327272 0 0 0-100.432108 100.327272h418.082718A100.222437 100.222437 0 0 0 901.582696 899.4558z" fill="#92CAEE" p-id="10773"></path><path d="M901.582696 878.279093h-15.410772l20.967037 20.967037c6.919122-138.172774-210.509052-138.277609-203.589929 0l20.967037-20.967037c-82.924631 0-155.785085 26.732972-162.180031 121.503979a20.967037 20.967037 0 0 0 20.967037 20.967037h418.502058a20.967037 20.967037 0 0 0 20.967037-20.967037A124.858705 124.858705 0 0 0 901.582696 878.279093c-27.047478-1.782198-26.942643 40.466381 0 41.934074a81.561774 81.561774 0 0 1 79.2554 79.2554l20.967037-20.967037H583.722415l20.967037 20.967037c4.717583-70.55408 62.901111-79.2554 119.931452-79.2554a20.967037 20.967037 0 0 0 20.967037-20.967037c-4.088572-83.029467 123.286178-83.868148 119.197605 0a20.967037 20.967037 0 0 0 20.967037 20.967037H901.582696c27.152313 0.314506 27.152313-41.934074 0-41.934074z" fill="#49494A" p-id="10774"></path><path d="M1419.573346 943.591413h-8.596485a29.458687 29.458687 0 0 0 0-3.04022 45.183965 45.183965 0 1 0-90.263095 0 29.668357 29.668357 0 0 0 0 3.04022h-22.749235a55.981989 55.981989 0 0 0-55.981989 55.981989h233.153452a55.981989 55.981989 0 0 0-55.562648-55.981989z" fill="#92CAEE" p-id="10775"></path><path d="M1419.573346 922.624376h-8.596485l20.967037 20.967037c4.612748-88.795402-136.285741-89.005072-132.197169 0l20.967037-20.967037c-53.046604 0-94.351667 19.184839-99.803096 77.053861a20.967037 20.967037 0 0 0 20.967037 20.967037h233.153452a20.967037 20.967037 0 0 0 20.967037-20.967037 79.884411 79.884411 0 0 0-76.42485-77.053861c-27.047478-2.725715-26.837807 39.522865 0 41.934074a34.910117 34.910117 0 0 1 34.805281 34.910117l20.967037-20.967037H1242.297048l20.967037 20.967037c3.354726-33.442424 32.184402-34.910117 57.554516-34.910117a20.967037 20.967037 0 0 0 20.967037-20.967037c-1.572528-30.507039 49.377372-30.507039 47.70001 0a20.967037 20.967037 0 0 0 20.967037 20.967037h8.596485c27.676489 0 27.676489-41.934074 0.524176-41.934074z" fill="#49494A" p-id="10776"></path><path d="M1345.350035 999.887907a141.212994 141.212994 0 0 0-141.108159-141.212994h-4.927254a106.198042 106.198042 0 0 0-198.1385 5.45143 141.212994 141.212994 0 0 0-102.528811 136.28574z" fill="#92CAEE" p-id="10777"></path><path d="M1366.526742 999.887907c-3.354726-65.10265-37.635831-123.391013-99.27892-149.390138a192.582235 192.582235 0 0 0-45.812976-11.741541c-4.822419-0.733846-14.467256 1.153187-18.450993-1.048352 1.153187 0.629011 11.11253 1.572528 4.717584-7.652968a131.672992 131.672992 0 0 0-72.441113-53.151439 129.156948 129.156948 0 0 0-87.95672 7.443298c-32.184402 15.305937-40.571217 42.772756-65.10265 64.054298s-52.417593 27.257148-72.650784 55.248143a172.453879 172.453879 0 0 0-32.079566 96.343535 20.967037 20.967037 0 0 0 20.967037 20.967037h446.702723c27.257148 0 27.257148-41.934074 0-41.934074H898.647311l20.967037 20.967037a124.858705 124.858705 0 0 1 36.692315-86.279358c18.555828-17.821981 43.401767-20.967037 61.328583-36.692314 27.886159-25.160444 25.579785-54.094955 71.497596-60.804408 41.934074-5.975606 73.38463 16.9833 91.940458 53.256274a20.967037 20.967037 0 0 0 18.136487 10.483519 122.762002 122.762002 0 0 1 124.96354 120.141122c1.467693 27.361983 43.716272 27.361983 42.353415-0.209671zM903.993906 362.804488v230.637407c0 27.152313 41.934074 27.257148 41.934074 0v-230.637407c0-27.152313-41.934074-27.152313-41.934074 0z" fill="#49494A" p-id="10778"></path><path d="M1026.651072 578.240793v230.637407c0 27.257148 41.934074 27.257148 41.934074 0v-230.637407c0-27.152313-41.934074-27.257148-41.934074 0zM1048.351955 543.750017c27.152313 0 27.152313-41.934074 0-41.934074s-27.257148 41.934074 0 41.934074zM959.451719 474.768465v230.637408c0 27.152313 41.934074 27.152313 41.934074 0v-230.637408c0-27.152313-41.934074-27.257148-41.934074 0z" fill="#49494A" p-id="10779"></path><path d="M1390.219494 738.533791a44.869459 44.869459 0 1 1-44.869459-44.764624 44.869459 44.869459 0 0 1 44.869459 44.764624z" fill="#ECEBEB" p-id="10780"></path><path d="M1369.042787 738.533791c-1.572528 30.402204-47.385504 30.611874-47.385504 0s45.812976-30.402204 47.385504 0c1.467693 27.047478 43.716272 27.257148 41.934074 0a65.941331 65.941331 0 1 0-68.352541 65.836496 67.094518 67.094518 0 0 0 68.352541-65.836496c1.782198-27.152313-40.466381-27.047478-41.934074 0z" fill="#49494A" p-id="10781"></path><path d="M583.722415 793.362593a44.869459 44.869459 0 1 1-44.764624-44.869459 44.764624 44.764624 0 0 1 44.764624 44.869459z" fill="#ECEBEB" p-id="10782"></path><path d="M562.650543 793.362593c-1.677363 30.402204-47.385504 30.611874-47.385504 0s45.708141-30.402204 47.385504 0c1.467693 26.942643 43.716272 27.152313 41.934074 0a65.941331 65.941331 0 1 0-68.352541 65.731661 67.199354 67.199354 0 0 0 68.352541-65.731661c1.782198-27.152313-40.466381-27.152313-41.934074 0z" fill="#49494A" p-id="10783"></path><path d="M790.876741 675.318174a44.869459 44.869459 0 1 1-44.764624-44.869459 44.764624 44.764624 0 0 1 44.764624 44.869459z" fill="#ECEBEB" p-id="10784"></path><path d="M769.804869 675.318174c-1.677363 30.402204-47.385504 30.611874-47.385504 0s45.708141-30.402204 47.385504 0c1.467693 27.047478 43.716272 27.152313 41.934074 0a65.941331 65.941331 0 1 0-68.352541 65.731662 67.199354 67.199354 0 0 0 68.352541-65.731662c1.782198-27.152313-40.466381-27.152313-41.934074 0z" fill="#49494A" p-id="10785"></path><path d="M601.544397 593.861236a44.869459 44.869459 0 1 1-44.764624-44.764624 44.869459 44.869459 0 0 1 44.764624 44.764624z" fill="#ECEBEB" p-id="10786"></path><path d="M580.472525 593.861236c-1.677363 30.402204-47.385504 30.611874-47.385504 0s45.708141-30.402204 47.385504 0c1.467693 27.047478 43.716272 27.257148 41.934074 0a65.941331 65.941331 0 1 0-68.352541 65.836496 67.199354 67.199354 0 0 0 68.352541-65.836496c1.782198-27.152313-40.466381-27.047478-41.934074 0z" fill="#49494A" p-id="10787"></path><path d="M1607.123492 870.730959a44.869459 44.869459 0 1 1-45.07913-44.869459 44.764624 44.764624 0 0 1 45.07913 44.869459z" fill="#ECEBEB" p-id="10788"></path><path d="M1586.05162 870.730959c-1.677363 30.402204-47.490339 30.611874-47.490339 0s45.812976-30.402204 47.490339 0c1.362857 27.047478 43.611437 27.152313 41.934074 0a65.941331 65.941331 0 1 0-68.352541 65.731661 66.989683 66.989683 0 0 0 68.352541-65.731661c1.677363-27.152313-40.571217-27.152313-41.934074 0zM306.433351 602.981897l94.351666-14.257585-16.773629-1.572528L440.307882 626.674649c22.120224 15.830113 43.296931-20.967037 20.967037-36.482645s-47.175833-44.135613-73.384629-41.934074c-31.450556 2.516044-62.06243 9.435167-92.674304 14.15275-26.732972 4.088572-15.410772 44.764624 11.217365 40.676052zM242.483888 612.626734c27.152313 0 27.257148-41.934074 0-41.934074s-27.257148 41.934074 0 41.934074zM82.505395 494.162975l99.383756 87.851885c20.233191 17.926817 50.216054-11.846376 29.878028-29.878028l-99.383756-87.851885c-20.233191-17.926817-50.216054 11.846376-29.878028 29.878028zM1712.692523 608.118821c6.919122-5.241759 13.733409-11.427035 20.967037-15.934948 12.685057-7.757804-11.53187-0.838681 9.854508-2.725715 19.289674-1.677363 39.313194 0 58.707703 0a21.596048 21.596048 0 0 0 20.338026-15.515607c6.709452-23.273411 15.305937-46.756493 20.338026-70.55408 0.838681-4.193407 2.725715-8.28198 3.564396-12.475387 2.306374-10.483519-7.967474 7.443298-6.604616 6.814287 7.652969-3.983737 15.096267-8.596485 22.6444-12.894728l130.62464-74.223311c23.587917-13.418904 2.411209-49.901548-20.967037-36.482644-47.280668 26.837807-96.972546 51.369241-142.575851 80.932763-34.490776 22.329894-36.901985 69.191222-47.385504 107.665735l20.338026-15.515608c-21.805718 0-46.441987-3.564396-67.828365 0-17.926817 3.04022-28.410335 13.314069-43.087261 24.531434-21.491213 16.144618 0 52.417593 20.967037 36.377809zM1838.285075 412.706036L1993.231478 325.063821c23.587917-13.418904 2.411209-49.901548-20.967037-36.482644l-154.946403 88.061555c-23.587917 13.418904-2.411209 49.901548 20.967037 36.377809zM1722.12769 525.194189c27.152313 0 27.152313-41.934074 0-41.934074s-27.257148 41.934074 0 41.934074zM1547.157766 633.593771l68.562211 31.450555a20.967037 20.967037 0 0 0 20.967037 0l20.967037-15.830113c20.967037-16.249454 0-52.941768-20.967037-36.482644l-20.967037 15.830113h20.967037l-68.562211-31.450556c-24.531433-11.3222-45.917811 25.055609-20.967037 36.482645zM1229.821661 644.28696l181.36487-83.868148h-20.967037l70.449244 32.603742c24.426598 11.427035 45.917811-24.950774 20.967037-36.482644-20.967037-10.483519-46.651657-27.466818-69.715398-32.289237-19.080004-4.088572-29.249017 3.04022-46.966163 11.217365L1208.540118 608.118821c-24.636268 11.427035-3.249891 47.804844 20.967037 36.482644z" fill="#49494A" p-id="10789"></path></svg>