<?xml version="1.0" standalone="no"?><!DOCTYPE svg PUBLIC "-//W3C//DTD SVG 1.1//EN" "http://www.w3.org/Graphics/SVG/1.1/DTD/svg11.dtd"><svg t="1575526591986" class="icon" viewBox="0 0 2028 1024" version="1.1" xmlns="http://www.w3.org/2000/svg" p-id="10050" xmlns:xlink="http://www.w3.org/1999/xlink" width="396.09375" height="200"><defs><style type="text/css"></style></defs><path d="M20.558659 1023.97658a231.337901 231.337901 0 0 0 147.407706-58.814721H137.764211a218.939122 218.939122 0 0 0 294.81541 0H402.695385a218.939122 218.939122 0 0 0 294.815411 0H667.626559a218.939122 218.939122 0 0 0 294.815411 0h-30.626044a219.045095 219.045095 0 0 0 294.921383 0h-30.202153a231.125956 231.125956 0 0 0 147.407705 58.814721c27.44687 1.165697 27.44687-41.541208 0-42.388988a183.65029 183.65029 0 0 1-117.205552-46.309969 22.148246 22.148246 0 0 0-30.202153 0 174.854575 174.854575 0 0 1-234.517076 0 22.148246 22.148246 0 0 0-30.202154 0 174.854575 174.854575 0 0 1-234.517075 0 21.936301 21.936301 0 0 0-30.096182 0 174.854575 174.854575 0 0 1-234.517075 0 22.148246 22.148246 0 0 0-30.202154 0 174.854575 174.854575 0 0 1-234.517075 0 21.936301 21.936301 0 0 0-30.096182 0 183.438345 183.438345 0 0 1-117.311524 45.992052c-27.340897 1.165697-27.44687 43.872602 0 42.388988z" fill="#49494A" p-id="10051"></path><path d="M1343.942861 1023.97658a231.337901 231.337901 0 0 0 147.407705-58.814721h-30.202154a219.045095 219.045095 0 0 0 294.921384 0h-30.202154a218.939122 218.939122 0 0 0 294.815411 0c21.194494-18.01532-9.43155-48.111501-30.202154-30.202153a174.748603 174.748603 0 0 1-234.411103 0 22.148246 22.148246 0 0 0-30.202154 0 174.854575 174.854575 0 0 1-234.517076 0 22.148246 22.148246 0 0 0-30.202154 0 183.438345 183.438345 0 0 1-117.205551 46.309969c-27.340897 1.165697-27.552842 43.872602 0 42.388988zM842.481134 730.008949h-423.889879c-27.44687 0-27.44687 42.388988 0 42.388988h423.889879c27.552842 0 27.552842-42.388988 0-42.388988z" fill="#49494A" p-id="10052"></path><path d="M1550.27126 872.965811h-133.313367L962.124053 453.208858H798.396587v-85.095893h207.388123l449.535217 421.876402h94.951333v82.976444z" fill="#F3D24F" p-id="10053"></path><path d="M1550.27126 851.559372c-37.620227 0-81.174912-6.146403-118.053332 0-22.784081 3.815009-4.556816 1.27167-2.861256 3.815009a107.244139 107.244139 0 0 0-16.849623-15.577953l-176.974025-163.303576-203.891031-188.101134a494.573516 494.573516 0 0 0-50.230951-46.415942c-19.922824-13.776421-40.163566-10.597247-64.643206-10.597247-27.44687 0-27.44687 42.388988 0 42.388988a183.968207 183.968207 0 0 0 27.552842 0c14.412256-2.225422 21.194494 6.040431 3.391119-5.616541a82.234637 82.234637 0 0 1 12.610724 11.656972c19.710879 21.194494 42.388988 39.315786 63.583481 58.708748l211.94494 195.519207c52.3504 48.217474 102.899268 100.567874 158.004952 145.712146 37.196337 30.520071 110.423313 13.776421 156.521338 13.776421 27.44687 0 27.44687-42.388988 0-42.388988z" fill="#49494A" p-id="10054"></path><path d="M1344.048833 714.854886c30.626044 28.718539 60.192363 64.537234 94.527443 88.698957 26.917007 19.075045 79.691297 7.841963 111.694984 7.841963 27.44687 0 27.44687-42.388988 0-42.388988h-58.602776c-6.994183 0-25.75131-3.497092-31.791741 0-9.537522 5.510568 9.00766-1.27167 9.961412 5.828486 0-1.165697-5.298623-4.662789-5.722513-5.298624-12.398779-18.43921-36.772447-34.547025-52.986235-49.80706l-37.090365-34.758971c-20.028797-18.8631-50.230951 11.339054-30.096181 30.202154zM1264.569481 640.250267l40.163566 38.150089a21.194494 21.194494 0 0 0 30.520071-30.626043l-40.163566-37.7262a21.936301 21.936301 0 0 0-30.202153 0 21.194494 21.194494 0 0 0 0 30.202154zM872.577316 389.413431c37.514254 0 81.068939 6.252376 118.053331 0 16.31976-2.755284 15.577953 7.841963 0-5.934458 1.377642 1.27167 4.662789 3.391119 5.192651 4.874734 4.132926 10.597247 26.1752 24.585613 34.441053 31.791741l167.966364 157.687035c20.028797 18.757127 50.230951-11.339054 30.202154-30.202154L1049.12745 379.663964c-18.227265-17.061568-27.764787-30.096181-52.986235-32.957438-40.375511-4.556816-83.612279 0-124.305707 0-27.44687 0-27.552842 42.388988 0 42.388988zM859.648674 431.802419h-61.252087c-27.552842 0-27.552842 42.388988 0 42.388988h61.252087c27.552842 0 27.552842-42.388988 0-42.388988z" fill="#49494A" p-id="10055"></path><path d="M853.820189 258.113541H418.37931L636.152736 21.477017l217.667453 236.636524z" fill="#92CAEE" p-id="10056"></path><path d="M636.576626 21.477017L418.8032 258.113541H527.742899L690.940503 80.609655l-54.363877-59.132638z" fill="#5DA1D3" p-id="10057"></path><path d="M561.65409 134.231724l89.864654-97.706617H620.998673l217.773425 236.636525 15.048091-36.454529H418.37931l15.154064 36.454529L489.486838 212.12149c18.545182-20.134769-11.550999-50.442896-30.202154-30.202154l-55.953464 60.828197a21.194494 21.194494 0 0 0 15.04809 36.45453h435.440879A21.194494 21.194494 0 0 0 868.974252 242.959478L651.200826 6.322953a21.194494 21.194494 0 0 0-30.202153 0L531.239991 104.02957c-18.651155 20.134769 11.445027 50.442896 30.096181 30.202154z" fill="#49494A" p-id="10058"></path><path d="M513.436616 175.772932c27.44687 0 27.44687-42.388988 0-42.388987s-27.552842 42.388988 0 42.388987z" fill="#49494A" p-id="10059"></path><path d="M418.37931 466.455417h423.677934v121.02056H418.37931z" fill="#92CAEE" p-id="10060"></path><path d="M414.034439 466.455417h119.748891v121.02056h-119.748891z" fill="#5DA1D3" p-id="10061"></path><path d="M587.723317 487.649911h254.333927l-21.194494-21.194494v121.02056l21.194494-21.194494h-423.889878l21.194493 21.194494V466.455417l-21.194493 21.194494h82.552553c27.44687 0 27.552842-42.388988 0-42.388988h-82.340609a21.194494 21.194494 0 0 0-21.194493 21.194494v121.02056a21.194494 21.194494 0 0 0 21.194493 21.194494h423.889879a21.194494 21.194494 0 0 0 21.194494-21.194494V466.455417a21.194494 21.194494 0 0 0-21.194494-21.194494h-254.333927c-27.44687 0-27.44687 42.388988 0 42.388988z" fill="#49494A" p-id="10062"></path><path d="M820.756778 587.475977V997.37749c0 27.44687 42.388988 27.552842 42.388988 0V587.475977c0-27.44687-42.388988-27.552842-42.388988 0zM690.198695 587.475977v385.3159c0 27.44687 42.388988 27.552842 42.388988 0V587.475977c0-27.44687-42.388988-27.552842-42.388988 0zM516.61579 587.475977v415.094164c0 27.44687 42.388988 27.552842 42.388988 0V587.475977c0-27.44687-42.388988-27.552842-42.388988 0zM350.662902 258.113541V466.455417c0 27.44687 42.388988 27.552842 42.388988 0V258.113541c0-27.552842-42.388988-27.552842-42.388988 0zM651.094854 258.113541V466.455417c0 27.44687 42.388988 27.552842 42.388988 0V258.113541c0-27.552842-42.388988-27.552842-42.388988 0zM776.990148 258.113541V466.455417c0 27.44687 42.388988 27.552842 42.388988 0V258.113541c0-27.552842-42.388988-27.552842-42.388988 0zM337.840233 950.113769V587.475977c0-27.44687-42.388988-27.552842-42.388987 0v362.637792c0 27.44687 42.388988 27.44687 42.388987 0zM123.14001 524.95222h60.192363c27.44687 0 27.44687-42.388988 0-42.388988h-60.192363c-27.44687 0-27.44687 42.388988 0 42.388988z" fill="#49494A" p-id="10063"></path><path d="M316.433795 482.351287H183.332373a21.194494 21.194494 0 0 0-21.194494 21.194494v499.02436c0 27.44687 42.388988 27.552842 42.388988 0V503.651754l-21.194494 21.194494h133.101422c27.552842 0 27.552842-42.388988 0-42.388988zM101.839543 503.651754v489.062948c0 27.44687 42.388988 27.552842 42.388988 0V503.651754c0-27.44687-42.388988-27.552842-42.388988 0z" fill="#49494A" p-id="10064"></path><path d="M123.14001 608.776444h60.192363c27.44687 0 27.44687-42.388988 0-42.388988h-60.192363c-27.44687 0-27.44687 42.388988 0 42.388988zM123.14001 692.600667h60.192363c27.44687 0 27.44687-42.388988 0-42.388988h-60.192363c-27.44687 0-27.44687 42.388988 0 42.388988zM123.14001 776.424891h60.192363c27.44687 0 27.44687-42.388988 0-42.388988h-60.192363c-27.44687 0-27.44687 42.388988 0 42.388988zM123.14001 860.355087h60.192363c27.44687 0 27.44687-42.388988 0-42.388988h-60.192363c-27.44687 0-27.44687 42.388988 0 42.388988zM123.14001 944.17931h60.192363c27.44687 0 27.44687-42.388988 0-42.388988h-60.192363c-27.44687 0-27.44687 42.388988 0 42.388988zM1040.54368 545.192962v456.635372c0 27.44687 42.388988 27.44687 42.388988 0V545.192962c0-27.44687-42.388988-27.44687-42.388988 0zM1241.043593 733.082151v250.730863c0 27.44687 42.388988 27.44687 42.388988 0V733.082151c0-27.44687-42.388988-27.44687-42.388988 0zM1406.678563 872.965811v110.317341c0 27.44687 42.388988 27.552842 42.388988 0V872.965811c0-27.44687-42.388988-27.552842-42.388988 0zM1512.651033 872.965811v110.317341c0 27.44687 42.388988 27.552842 42.388988 0V872.965811c0-27.44687-42.388988-27.552842-42.388988 0z" fill="#49494A" p-id="10065"></path><path d="M1936.434939 806.203155a69.94183 69.94183 0 0 0 27.87076-5.510569 68.352243 68.352243 0 1 0-54.04596-125.471404 69.305995 69.305995 0 0 0-23.207971 16.425733L1765.607318 811.925668z" fill="#92CAEE" p-id="10066"></path><path d="M1858.651146 830.152933c27.552842 0 27.552842-42.388988 0-42.388988s-27.44687 42.388988 0 42.388988z" fill="#49494A" p-id="10067"></path><path d="M1936.434939 827.503621c52.3504-4.662789 95.375223-42.388988 89.65271-98.766342a89.970627 89.970627 0 0 0-115.615965-76.088233c-33.381328 10.597247-59.026666 44.296492-83.188389 68.140298l-76.83004 76.088233c-19.498934 19.286989 10.597247 49.489143 30.202154 30.202154l82.976443-82.234636c12.080862-11.868917 23.631861-25.539365 36.772447-36.348557 71.107527-58.178886 121.974313 68.67016 36.03064 76.300178-27.128952 2.437367-27.340897 45.144272 0 42.388988z" fill="#49494A" p-id="10068"></path><path d="M1764.653566 609.730196a67.504463 67.504463 0 0 0 12.928641-25.32742 68.352243 68.352243 0 0 0-132.14767-34.970915 66.338766 66.338766 0 0 0-1.271669 28.400622l19.498934 169.555951z" fill="#5DA1D3" p-id="10069"></path><path d="M1718.661514 693.872337c27.44687 0 27.552842-42.388988 0-42.388988s-27.44687 42.388988 0 42.388988z" fill="#49494A" p-id="10070"></path><path d="M1783.092775 620.539388c71.63739-110.105396-103.217186-204.420894-153.342163-89.758682-14.836146 34.123135-3.497092 77.147958 0.529862 112.542763l12.292807 104.382883c3.073202 27.02298 45.886079 27.340897 42.388988 0l-13.034614-113.814433c-2.013477-17.59143-5.086679-35.394805-6.146403-52.986235-5.616541-95.375223 129.710303-57.437079 80.433104 18.333237-15.048091 23.101998 21.936301 44.508437 36.878419 21.194494z" fill="#49494A" p-id="10071"></path></svg>