<?xml version="1.0" standalone="no"?><!DOCTYPE svg PUBLIC "-//W3C//DTD SVG 1.1//EN" "http://www.w3.org/Graphics/SVG/1.1/DTD/svg11.dtd"><svg t="1575526639615" class="icon" viewBox="0 0 1794 1024" version="1.1" xmlns="http://www.w3.org/2000/svg" p-id="11644" xmlns:xlink="http://www.w3.org/1999/xlink" width="350.390625" height="200"><defs><style type="text/css"></style></defs><path d="M1770.142058 694.23951a308.628181 308.628181 0 1 1-308.523738-308.628181 308.628181 308.628181 0 0 1 308.523738 308.628181z" fill="#92CAEE" p-id="11645"></path><path d="M1274.874771 694.23951a308.628181 308.628181 0 0 1 247.529201-302.883833 308.732624 308.732624 0 1 0 0 605.036566A308.523738 308.523738 0 0 1 1274.874771 694.23951z" fill="#5DA1D3" p-id="11646"></path><path d="M1751.969028 694.23951c-3.655495 156.664051-127.942308 287.426313-287.426312 287.426312a287.426313 287.426313 0 0 1 0-574.434854c159.484004 0 283.770818 130.448933 287.426312 287.426313 0.626656 27.155102 43.030393 27.259545 42.403737 0a329.830049 329.830049 0 1 0-612.243112 170.346045 333.276658 333.276658 0 0 0 344.660913 153.426327c155.82851-29.870612 263.508934-167.734977 267.164428-323.772372 1.044427-27.677316-41.35931-27.677316-41.985966-0.417771z" fill="#49494A" p-id="11647"></path><path d="M635.372114 694.23951a308.628181 308.628181 0 1 1-308.523738-308.628181 308.628181 308.628181 0 0 1 308.523738 308.628181z" fill="#92CAEE" p-id="11648"></path><path d="M140.313713 694.23951a308.628181 308.628181 0 0 1 247.5292-302.883833 308.732624 308.732624 0 1 0 0 605.036566 308.523738 308.523738 0 0 1-247.5292-302.152733z" fill="#5DA1D3" p-id="11649"></path><path d="M616.885756 694.23951C613.54359 850.799118 489.256776 981.770265 329.772772 981.770265a287.426313 287.426313 0 0 1 0-574.434854C489.256776 407.335411 613.54359 537.26213 616.885756 694.23951c0.626656 27.155102 43.030393 27.259545 42.403737 0a335.052184 335.052184 0 0 0-213.271995-308.628181A329.830049 329.830049 0 0 0 47.359709 864.585555a333.381101 333.381101 0 0 0 344.660913 153.426327c155.82851-29.870612 263.508934-167.734977 267.164428-323.772372 1.044427-27.259545-41.35931-27.259545-42.299294 0z" fill="#49494A" p-id="11650"></path><path d="M1583.607395 694.23951a122.093517 122.093517 0 1 1-121.989075-122.093517 122.093517 122.093517 0 0 1 121.989075 122.093517z" fill="#F3D24F" p-id="11651"></path><path d="M1395.08832 694.23951a121.884632 121.884632 0 0 1 93.371774-118.542466 117.393596 117.393596 0 0 0-28.6173-3.551051 122.093517 122.093517 0 1 0 28.6173 240.218211 121.884632 121.884632 0 0 1-93.371774-118.124694z" fill="#BFAD65" p-id="11652"></path><path d="M1562.509969 694.23951c-6.997661 129.195621-201.887741 130.344491-201.783298 0s194.785637-129.300064 201.783298 0c1.462198 27.05066 43.761492 27.259545 42.299294 0-4.177708-77.705369-62.66562-143.295385-143.190943-143.295386a143.190943 143.190943 0 0 0-6.684333 286.173c83.554161 3.759937 145.593125-62.66562 149.875276-142.877614 1.462198-27.259545-40.837096-27.155102-42.299294 0z" fill="#49494A" p-id="11653"></path><path d="M452.701831 694.23951a122.093517 122.093517 0 1 1-122.093518-122.093517 122.093517 122.093517 0 0 1 122.093518 122.093517z" fill="#F3D24F" p-id="11654"></path><path d="M264.078313 694.23951a121.989075 121.989075 0 0 1 93.998431-118.542466 117.393596 117.393596 0 0 0-28.6173-3.551051 122.093517 122.093517 0 1 0 28.6173 240.218211 121.989075 121.989075 0 0 1-93.998431-118.124694z" fill="#BFAD65" p-id="11655"></path><path d="M431.499962 694.23951c-6.893218 129.195621-201.783298 130.344491-201.783298 0s194.89008-129.300064 201.783298 0c1.462198 27.05066 43.865934 27.259545 42.403737 0-4.177708-77.705369-62.66562-143.295385-143.295386-143.295386a143.190943 143.190943 0 0 0-6.162119 286.173c83.554161 3.759937 145.488682-62.66562 149.875276-142.877614 1.044427-27.259545-41.35931-27.155102-42.821508 0z" fill="#49494A" p-id="11656"></path><path d="M1145.888036 188.005739l-544.146471-56.503501a20.88854 20.88854 0 0 0-18.277473 10.44427L310.033101 683.481912a21.515196 21.515196 0 0 0 18.277473 31.959466h593.756754c14.726421 0 34.570534 3.446609 47.625872-4.595479 15.039749-9.190958 27.677316-35.092747 37.9127-48.565856l84.807473-111.649247 154.67964-203.663266a20.88854 20.88854 0 0 0 0-20.888541L1164.165508 198.450009c-14.830864-22.768509-51.490251-1.566641-36.554945 21.410754l82.927505 127.524537v-20.88854l-271.551022 357.925136 18.277472-10.44427H328.310574l18.277473 31.33281L620.019037 162.939491l-18.277472 10.44427 544.146471 56.399058c27.05066 2.924396 26.946217-39.479341 0-41.77708z" fill="#49494A" p-id="11657"></path><path d="M583.464092 162.939491l355.105183 541.953174c14.935306 22.768509 51.594694 1.566641 36.554945-20.88854l-355.105183-541.848732c-14.830864-22.768509-51.490251-1.566641-36.554945 20.888541zM671.404846 0.008878H521.320685a20.88854 20.88854 0 0 0-18.381915 31.855023l52.22135 80.525323c14.830864 22.768509 51.490251 1.566641 36.659388-20.88854L539.598158 10.453148l-18.277473 31.959466h150.084161c27.155102 0 27.259545-42.403737 0-42.403736zM777.309745 572.877091c27.259545 0 27.259545-42.299294 0-42.299293s-27.363988 42.299294 0 42.299293zM592.759492 305.503777l132.64223 205.021022c14.726421 22.768509 51.385809 1.566641 36.554946-21.410754L629.314438 284.093024c-14.830864-22.768509-51.490251-1.566641-36.554946 21.410753zM1312.996357 251.298016c45.850346-3.446609 62.66562-46.268116 55.459074-87.314098-7.206546-43.343721-38.121586-81.674192-84.180817-83.554161-27.259545-1.14887-27.155102 41.150424 0 42.403737 23.18628 0.939984 36.868273 23.081837 41.777081 43.657049 2.924396 12.428681 5.953234 41.150424-12.846453 42.612622-26.946217 2.088854-27.155102 44.492591 0 41.77708z" fill="#49494A" p-id="11658"></path><path d="M1025.570044 697.372791a77.705369 77.705369 0 1 1-77.705369-77.70537 77.705369 77.705369 0 0 1 77.705369 77.70537z" fill="#ECEBEB" p-id="11659"></path><path d="M1004.368176 697.372791c-3.86438 72.378792-113.007002 73.109891-113.007002 0s109.142622-72.483234 113.007002 0c1.462198 27.05066 43.865934 27.259545 42.403737 0-2.924396-53.683548-42.92595-98.907238-98.907238-98.907238a98.802795 98.802795 0 0 0-4.282151 197.60559c57.652371 2.402182 100.16055-43.343721 103.189389-98.698352 1.462198-27.259545-40.941539-27.155102-42.403737 0zM969.066543 546.453088v-102.144961c0-27.259545-42.403737-27.259545-42.403736 0v102.144961c0 27.259545 42.403737 27.259545 42.403736 0z" fill="#49494A" p-id="11660"></path><path d="M899.821033 465.509995h96.087284c27.259545 0 27.259545-42.403737 0-42.403736h-96.087284c-27.259545 0-27.259545 42.403737 0 42.403736zM899.821033 948.035273h96.087284c27.259545 0 27.259545-42.403737 0-42.403737h-96.087284c-27.259545 0-27.259545 42.403737 0 42.403737z" fill="#49494A" p-id="11661"></path><path d="M969.066543 926.833404V835.550484c0-27.259545-42.403737-27.363988-42.403736 0v91.700691c0 27.259545 42.403737 27.259545 42.403736 0zM1222.653421 80.325315h-146.219781a20.88854 20.88854 0 0 0-18.381916 31.855023l385.498009 592.712327c14.726421 22.768509 51.490251 1.566641 36.554945-20.88854l-385.602451-593.23454-18.068587 31.959466h146.219781c27.259545 0 27.259545-42.403737 0-42.403736zM947.864675 718.574659c27.259545 0 27.259545-42.403737 0-42.403736s-27.259545 42.403737 0 42.403736z" fill="#49494A" p-id="11662"></path></svg>